<?xml version="1.0" encoding="UTF-8"?>
<svg xmlns="http://www.w3.org/2000/svg" xmlns:xlink="http://www.w3.org/1999/xlink" width="px" height="px" viewBox="0 0 880 858" version="1.1">
<g id="surface1">
<path style=" stroke:none;fill-rule:nonzero;fill:rgb(0%,0%,0%);fill-opacity:1;" d="M 429.394531 0.601562 L 415.527344 1.648438 C 314.121094 9.835938 218.96875 53.984375 147.203125 126.140625 C -5.574219 279.128906 -20.546875 522.019531 112.277344 692.640625 C 193.519531 797.109375 318.460938 858.148438 450.753906 858 C 485.550781 858.398438 520.246094 854.238281 553.960938 845.625 C 606.046875 832.914062 655.222656 810.363281 698.84375 779.183594 C 744.605469 746.496094 783.621094 705.269531 813.742188 657.765625 C 851.792969 597.257812 874.15625 528.203125 878.800781 456.859375 C 879.785156 433.707031 879.382812 410.519531 877.601562 387.417969 C 874.304688 356.144531 865.910156 314.898438 861.035156 306.273438 C 858.175781 302.179688 854.195312 299.003906 849.570312 297.125 C 848.070312 296.675781 844.996094 296.300781 842.449219 296.300781 C 831.207031 296.300781 821.761719 305.671875 821.761719 316.699219 C 821.761719 319.320312 822.960938 325.621094 824.683594 332.445312 C 839.546875 391.089844 840.699219 452.367188 828.058594 511.53125 C 812.246094 585.042969 775.089844 652.25 721.253906 704.714844 C 696.929688 728.835938 669.445312 749.550781 639.558594 766.28125 C 562.921875 809.105469 474.023438 824.628906 387.421875 810.304688 C 322.851562 799.867188 262.058594 772.953125 210.914062 732.160156 C 182.332031 709.035156 156.925781 682.230469 135.363281 652.441406 C 102.234375 605.347656 81.398438 555.703125 70.605469 498.03125 C 64.953125 464.976562 63.34375 431.359375 65.808594 397.914062 C 69.394531 350.960938 81.753906 305.097656 102.234375 262.703125 C 111.679688 242.980469 117.523438 232.703125 128.839844 215.679688 C 152.699219 179.917969 182.246094 148.304688 216.308594 122.089844 C 276.035156 76.265625 347.9375 49.085938 423.023438 43.945312 C 522.183594 36.441406 620.375 67.824219 696.820312 131.464844 L 699.667969 133.9375 L 698.542969 137.089844 C 693.0625 154.617188 697.09375 173.738281 709.1875 187.558594 C 716.472656 195.398438 725.824219 201.015625 736.167969 203.757812 C 744.238281 205.332031 752.535156 205.332031 760.601562 203.757812 C 777.890625 199.21875 791.808594 186.414062 797.777344 169.558594 C 803.457031 152.574219 800.03125 133.863281 788.707031 119.988281 C 775.585938 104.054688 754.40625 97.203125 734.445312 102.441406 L 730.097656 103.566406 L 723.953125 98.464844 C 697.328125 76.46875 668.132812 57.78125 637.007812 42.820312 C 586.289062 18.058594 531.101562 3.773438 474.738281 0.824219 C 463.421875 0.148438 436.664062 0 429.394531 0.601562 Z M 429.394531 0.601562 "/>
<path style=" stroke:none;fill-rule:nonzero;fill:rgb(0%,0%,0%);fill-opacity:1;" d="M 385.023438 247.328125 L 346.574219 347.292969 L 286.089844 504.40625 C 266.152344 556.375 249.585938 599.121094 249.363281 599.421875 C 249.210938 599.796875 270.273438 600.023438 296.132812 600.023438 L 343.277344 600.023438 L 346.050781 592.296875 L 358.339844 559.300781 L 367.785156 534.027344 L 438.539062 534.027344 C 494.902344 534.027344 509.292969 533.804688 508.992188 533.054688 L 490.628906 480.40625 L 484.035156 461.660156 L 437.1875 461.285156 L 390.421875 460.910156 L 420.773438 376.992188 C 430.484375 349.230469 440.777344 321.675781 451.65625 294.347656 L 478.636719 371.140625 L 532.453125 523.152344 L 559.359375 599.648438 L 606.277344 599.871094 C 632.0625 599.949219 653.199219 599.871094 653.199219 599.722656 C 653.199219 599.574219 647.125 583.597656 639.632812 564.324219 C 617.496094 507.269531 595.460938 450.171875 573.523438 393.039062 L 556.0625 347.667969 L 526.457031 270.800781 L 504.570312 213.957031 L 503.070312 210.054688 L 399.414062 210.054688 Z M 385.023438 247.328125 "/>
</g>
</svg>
