<?xml version="1.0" encoding="UTF-8"?>
<svg xmlns="http://www.w3.org/2000/svg" xmlns:xlink="http://www.w3.org/1999/xlink" width="px" height="px" viewBox="0 0 192 126" version="1.1">
<g id="surface1">
<path style=" stroke:none;fill-rule:nonzero;fill:rgb(0%,44.313725%,80.784314%);fill-opacity:1;" d="M 163.949219 121.386719 C 161.167969 121.269531 158.855469 119.210938 158.417969 116.460938 C 157.984375 113.710938 159.542969 111.035156 162.148438 110.0625 C 173.011719 106.726562 180.414062 96.675781 180.375 85.3125 C 180.328125 77.789062 177.058594 70.648438 171.394531 65.699219 C 165.726562 60.75 158.210938 58.46875 150.75 59.4375 L 145.050781 60.1875 L 144.300781 54.488281 C 140.773438 30.1875 119.550781 11.8125 94.949219 11.8125 C 74.632812 11.757812 56.332031 24.085938 48.75 42.9375 L 47.25 46.460938 L 43.5 46.539062 C 28.332031 46.929688 15.425781 57.707031 12.332031 72.5625 C 9.238281 87.417969 16.773438 102.449219 30.523438 108.863281 C 33.046875 110.402344 34.027344 113.582031 32.804688 116.273438 C 31.582031 118.964844 28.546875 120.324219 25.726562 119.4375 C 7.679688 111.027344 -2.5625 91.632812 0.667969 71.988281 C 3.898438 52.34375 19.8125 37.25 39.601562 35.0625 C 49.765625 13.722656 71.3125 0.148438 94.949219 0.1875 C 123.449219 0.1875 148.351562 20.210938 154.800781 47.585938 C 173.109375 48.066406 188.429688 61.625 191.128906 79.742188 C 193.828125 97.855469 183.125 115.292969 165.75 121.085938 C 165.074219 121.3125 164.476562 121.386719 163.875 121.386719 Z M 163.949219 121.386719 "/>
<path style=" stroke:none;fill-rule:nonzero;fill:rgb(86.27451%,51.372549%,15.294118%);fill-opacity:1;" d="M 75 123.9375 C 74.886719 123.863281 74.757812 123.8125 74.625 123.789062 C 72.074219 123.789062 70.050781 121.761719 70.050781 119.289062 L 70.050781 68.136719 L 73.949219 68.136719 C 74.550781 68.136719 74.925781 67.761719 74.925781 67.164062 C 74.925781 66.789062 74.699219 66.414062 74.324219 66.261719 L 55.574219 53.289062 C 55.238281 53.050781 54.789062 53.050781 54.449219 53.289062 L 35.476562 66.414062 C 35.160156 66.671875 35.042969 67.097656 35.175781 67.484375 C 35.308594 67.867188 35.667969 68.128906 36.074219 68.136719 L 39.976562 68.136719 L 39.976562 119.289062 C 40.015625 122.902344 42.960938 125.8125 46.574219 125.8125 L 74.625 125.8125 C 74.851562 125.8125 75.074219 125.664062 75.300781 125.511719 C 75.449219 125.289062 75.601562 125.0625 75.601562 124.761719 C 75.570312 124.394531 75.339844 124.078125 75 123.9375 Z M 75 123.9375 "/>
<path style=" stroke:none;fill-rule:nonzero;fill:rgb(95.686275%,69.803922%,10.588235%);fill-opacity:1;" d="M 115.574219 123.9375 C 115.460938 123.863281 115.335938 123.8125 115.199219 123.789062 C 112.648438 123.789062 110.625 121.761719 110.625 119.289062 L 110.625 79.613281 L 114.523438 79.613281 C 114.988281 79.613281 115.390625 79.285156 115.480469 78.828125 C 115.570312 78.371094 115.328125 77.917969 114.898438 77.738281 L 96.148438 64.761719 C 95.8125 64.523438 95.363281 64.523438 95.023438 64.761719 L 76.050781 77.8125 C 75.664062 78.050781 75.496094 78.519531 75.636719 78.949219 C 75.78125 79.378906 76.199219 79.652344 76.648438 79.613281 L 80.550781 79.613281 L 80.550781 119.289062 C 80.589844 122.902344 83.535156 125.8125 87.148438 125.8125 L 115.199219 125.8125 C 115.425781 125.8125 115.726562 125.664062 115.875 125.511719 C 116.101562 125.289062 116.175781 125.0625 116.175781 124.761719 C 116.144531 124.394531 115.914062 124.078125 115.574219 123.9375 Z M 115.574219 123.9375 "/>
<path style=" stroke:none;fill-rule:nonzero;fill:rgb(94.901961%,84.705882%,39.215686%);fill-opacity:1;" d="M 156.300781 123.9375 L 156.226562 123.9375 C 156.132812 123.871094 156.03125 123.820312 155.925781 123.789062 C 153.375 123.789062 151.273438 121.761719 151.273438 119.289062 L 151.273438 90.9375 L 155.25 90.9375 C 155.773438 90.9375 156.226562 90.5625 156.226562 89.960938 C 156.226562 89.585938 156 89.210938 155.625 89.0625 L 136.875 76.085938 C 136.523438 75.8125 136.027344 75.8125 135.675781 76.085938 L 116.773438 89.210938 C 116.46875 89.460938 116.34375 89.871094 116.460938 90.25 C 116.574219 90.628906 116.90625 90.898438 117.300781 90.9375 L 121.199219 90.9375 L 121.199219 119.210938 C 121.242188 122.828125 124.183594 125.738281 127.800781 125.738281 L 155.851562 125.738281 C 156.148438 125.738281 156.375 125.585938 156.601562 125.4375 C 156.75 125.210938 156.824219 124.988281 156.824219 124.6875 C 156.808594 124.339844 156.609375 124.023438 156.300781 123.863281 Z M 156.300781 123.9375 "/>
</g>
</svg>
