<?xml version="1.0" encoding="UTF-8"?>
<svg xmlns="http://www.w3.org/2000/svg" xmlns:xlink="http://www.w3.org/1999/xlink" width="px" height="px" viewBox="0 0 93 106" version="1.1">
<g id="surface1">
<path style=" stroke:none;fill-rule:nonzero;fill:rgb(10.588235%,45.098039%,72.941176%);fill-opacity:1;" d="M 7.800781 94.914062 L 0 0.1875 L 93 0.410156 L 84.75 94.914062 L 46.875 105.8125 Z M 7.800781 94.914062 "/>
<path style=" stroke:none;fill-rule:nonzero;fill:rgb(10.980392%,53.333333%,78.039216%);fill-opacity:1;" d="M 46.875 96.707031 L 46.875 9.144531 L 85.125 9.292969 L 78.375 87.523438 Z M 46.875 96.707031 "/>
<path style=" stroke:none;fill-rule:nonzero;fill:rgb(100%,100%,100%);fill-opacity:1;" d="M 75.675781 20.339844 L 16.726562 20.339844 L 18.300781 31.835938 L 46.273438 31.835938 L 18.75 43.480469 L 20.324219 54.679688 L 60.824219 54.679688 L 59.398438 70.132812 L 45.75 72.746094 L 33.300781 69.535156 L 32.398438 60.800781 L 20.851562 60.800781 L 22.351562 79.015625 L 46.949219 85.808594 L 70.425781 78.34375 L 73.425781 42.734375 L 48.601562 42.734375 L 75.601562 31.539062 Z M 75.675781 20.339844 "/>
</g>
</svg>
