<?xml version="1.0" encoding="UTF-8"?>
<svg xmlns="http://www.w3.org/2000/svg" xmlns:xlink="http://www.w3.org/1999/xlink" width="px" height="px" viewBox="0 0 384 112" version="1.1">
<g id="surface1">
<path style=" stroke:none;fill-rule:nonzero;fill:rgb(13.333333%,13.333333%,13.333333%);fill-opacity:1;" d="M 2.476562 86.894531 L 2.476562 44.046875 L 55.875 44.046875 L 55.875 41.566406 L 2.476562 41.566406 L 2.476562 2.480469 L 59.25 2.480469 L 59.25 0 L 0 0 L 0 89.449219 L 59.699219 89.449219 L 59.699219 86.894531 Z M 107.851562 25.03125 L 85.726562 54.195312 L 64.125 25.03125 L 60.75 25.03125 L 84.148438 56.074219 L 58.574219 89.449219 L 61.574219 89.449219 L 85.726562 57.878906 L 109.949219 89.375 L 113.101562 89.375 L 87.375 56 L 110.851562 24.957031 L 107.851562 24.957031 Z M 120.601562 111.472656 L 120.601562 71.410156 L 120.824219 71.410156 C 122.324219 77.199219 125.324219 81.933594 129.675781 85.464844 C 134.175781 89 139.726562 90.726562 146.550781 90.726562 C 154.519531 90.871094 162.074219 87.183594 166.875 80.804688 C 169.125 77.722656 170.925781 74.039062 172.125 69.980469 C 174.703125 61.402344 174.703125 52.25 172.125 43.671875 C 170.851562 39.613281 168.976562 36.082031 166.648438 33.074219 C 161.8125 26.914062 154.371094 23.378906 146.550781 23.527344 C 143.488281 23.527344 140.445312 24.035156 137.550781 25.03125 C 134.699219 25.933594 132.300781 27.285156 130.050781 29.089844 C 127.875 30.847656 125.976562 32.925781 124.425781 35.253906 C 122.835938 37.664062 121.625 40.296875 120.824219 43.070312 L 120.601562 43.070312 L 120.601562 25.03125 L 118.050781 25.03125 L 118.050781 111.472656 Z M 146.550781 88.398438 C 139.390625 88.667969 132.488281 85.714844 127.726562 80.355469 C 122.925781 74.941406 120.601562 67.199219 120.601562 57.050781 C 120.574219 53.027344 121.15625 49.023438 122.324219 45.175781 C 123.441406 41.605469 125.191406 38.269531 127.5 35.328125 C 132.085938 29.386719 139.203125 25.957031 146.699219 26.082031 C 154.109375 25.855469 161.144531 29.355469 165.449219 35.402344 C 167.398438 38.261719 168.898438 41.566406 169.949219 45.25 C 172.066406 52.789062 172.117188 60.761719 170.101562 68.328125 C 169.125 72.085938 167.625 75.394531 165.601562 78.324219 C 161.507812 84.820312 154.285156 88.652344 146.625 88.398438 Z M 187.726562 89.449219 L 187.726562 52.992188 C 187.726562 49.460938 188.175781 46.078125 189.226562 42.695312 C 190.199219 39.386719 191.699219 36.457031 193.800781 33.902344 C 195.898438 31.34375 198.523438 29.390625 201.75 27.886719 C 204.976562 26.382812 208.800781 25.78125 213.148438 26.082031 L 213.148438 23.527344 C 209.398438 23.527344 206.023438 23.902344 203.101562 24.804688 C 200.429688 25.625 197.917969 26.894531 195.675781 28.5625 C 193.574219 30.140625 191.925781 32.019531 190.726562 34.125 C 189.472656 36.230469 188.539062 38.511719 187.949219 40.890625 L 187.726562 40.890625 L 187.726562 25.105469 L 185.175781 25.105469 L 185.175781 89.449219 Z M 216.300781 57.730469 L 270 57.730469 C 270.226562 53.292969 269.773438 49.085938 268.726562 44.949219 C 267.753906 41.03125 266.050781 37.332031 263.699219 34.050781 C 258.671875 27.105469 250.503906 23.152344 241.949219 23.527344 C 234.476562 23.523438 227.367188 26.757812 222.449219 32.398438 C 219.71875 35.484375 217.582031 39.054688 216.148438 42.921875 C 214.515625 47.5 213.726562 52.339844 213.824219 57.203125 C 213.824219 62.011719 214.351562 66.449219 215.398438 70.582031 C 216.375 74.453125 218.082031 78.101562 220.425781 81.332031 C 222.675781 84.339844 225.601562 86.742188 229.125 88.398438 C 233.136719 90.164062 237.496094 90.984375 241.875 90.800781 C 249.226562 90.800781 255.375 88.699219 260.398438 84.5625 C 265.5625 80.164062 268.773438 73.894531 269.324219 67.125 L 266.773438 67.125 C 266.179688 73.304688 263.222656 79.015625 258.523438 83.058594 C 254.023438 86.667969 248.398438 88.398438 241.648438 88.398438 C 237.148438 88.398438 233.25 87.644531 230.023438 86.066406 C 226.957031 84.550781 224.304688 82.304688 222.300781 79.527344 C 220.273438 76.746094 218.851562 73.515625 217.800781 69.753906 C 216.898438 66.074219 216.375 62.089844 216.300781 57.730469 Z M 267.523438 55.25 L 216.300781 55.25 C 216.523438 50.738281 217.425781 46.679688 218.773438 43.070312 C 220.085938 39.699219 221.988281 36.59375 224.398438 33.902344 C 228.90625 28.820312 235.394531 25.96875 242.175781 26.082031 C 249.496094 25.742188 256.535156 28.960938 261.074219 34.726562 C 263.25 37.359375 264.824219 40.441406 265.949219 44.046875 C 267 47.582031 267.523438 51.339844 267.523438 55.25 Z M 321.898438 44.046875 L 324.375 44.046875 C 324.375 36.90625 322.273438 31.722656 318.148438 28.414062 C 313.183594 24.914062 307.1875 23.191406 301.125 23.527344 C 297.148438 23.527344 293.773438 24.054688 291 25.03125 C 288.519531 25.882812 286.226562 27.210938 284.25 28.941406 C 282.523438 30.519531 281.25 32.246094 280.5 34.203125 C 279.75 36.082031 279.375 37.960938 279.375 39.6875 C 279.375 43.222656 280.050781 46.003906 281.25 48.105469 C 282.523438 50.210938 284.476562 51.867188 287.175781 52.992188 C 288.976562 53.746094 291.074219 54.496094 293.398438 55.25 L 301.5 57.351562 L 309.75 59.382812 C 312.375 60.058594 314.773438 60.886719 316.800781 62.089844 C 318.824219 63.214844 320.550781 64.644531 321.75 66.375 C 323.136719 68.402344 323.820312 70.832031 323.699219 73.289062 C 323.699219 75.996094 323.101562 78.324219 321.75 80.277344 C 320.484375 82.171875 318.820312 83.761719 316.875 84.941406 C 314.785156 86.183594 312.503906 87.074219 310.125 87.570312 C 307.726562 88.171875 305.324219 88.398438 303 88.398438 C 296.765625 88.832031 290.578125 87.050781 285.523438 83.359375 C 281.476562 79.980469 279.523438 74.640625 279.523438 67.351562 L 276.976562 67.351562 C 276.976562 75.46875 279.226562 81.40625 283.574219 85.164062 C 287.925781 88.921875 294.375 90.800781 303 90.800781 C 305.699219 90.800781 308.476562 90.503906 311.25 89.824219 C 314.101562 89.222656 316.574219 88.246094 318.75 86.820312 C 320.953125 85.40625 322.800781 83.503906 324.148438 81.257812 C 325.5 79 326.25 76.296875 326.25 72.988281 C 326.25 69.980469 325.648438 67.425781 324.375 65.472656 C 323.167969 63.5625 321.554688 61.945312 319.648438 60.734375 C 317.699219 59.457031 315.523438 58.480469 313.050781 57.730469 C 310.558594 57.027344 308.058594 56.351562 305.550781 55.699219 C 302.503906 54.910156 299.453125 54.132812 296.398438 53.367188 C 293.773438 52.617188 291.375 51.867188 289.125 50.964844 C 286.875 50.0625 285.226562 48.707031 283.875 47.054688 C 282.472656 44.867188 281.8125 42.28125 282 39.6875 C 282 39.085938 282.148438 38.035156 282.449219 36.605469 C 282.824219 35.101562 283.574219 33.601562 284.851562 32.019531 C 286.125 30.519531 288 29.015625 290.625 27.886719 C 293.984375 26.542969 297.585938 25.925781 301.199219 26.082031 C 304.273438 26.082031 307.125 26.382812 309.675781 27.058594 C 312.226562 27.738281 314.398438 28.789062 316.199219 30.21875 C 318.074219 31.722656 319.5 33.601562 320.476562 35.855469 C 321.449219 38.109375 321.976562 40.816406 321.976562 44.125 Z M 379.726562 44.046875 L 382.273438 44.046875 C 382.273438 36.90625 380.175781 31.722656 375.976562 28.414062 C 371.03125 24.929688 365.0625 23.207031 359.023438 23.527344 C 354.976562 23.527344 351.601562 24.054688 348.898438 25.03125 C 346.417969 25.882812 344.125 27.210938 342.148438 28.941406 C 340.425781 30.519531 339.148438 32.246094 338.398438 34.203125 C 337.648438 36.082031 337.273438 37.960938 337.273438 39.6875 C 337.273438 43.222656 337.875 46.003906 339.148438 48.105469 C 340.425781 50.210938 342.375 51.867188 345 52.992188 C 346.875 53.746094 348.898438 54.496094 351.226562 55.25 L 359.398438 57.351562 L 367.5 59.382812 C 370.199219 60.058594 372.523438 60.886719 374.550781 62.089844 C 376.574219 63.214844 378.300781 64.644531 379.574219 66.375 C 380.960938 68.402344 381.644531 70.832031 381.523438 73.289062 C 381.523438 75.996094 380.851562 78.324219 379.574219 80.277344 C 378.285156 82.179688 376.597656 83.769531 374.625 84.941406 C 372.535156 86.183594 370.253906 87.074219 367.875 87.570312 C 365.476562 88.171875 363.074219 88.398438 360.75 88.398438 C 354.539062 88.8125 348.382812 87.03125 343.351562 83.359375 C 339.300781 79.980469 337.273438 74.640625 337.273438 67.351562 L 334.800781 67.351562 C 334.800781 75.46875 336.976562 81.40625 341.324219 85.164062 C 345.675781 88.921875 352.199219 90.800781 360.824219 90.800781 C 363.523438 90.800781 366.300781 90.503906 369.074219 89.824219 C 371.851562 89.222656 374.324219 88.246094 376.574219 86.820312 C 378.777344 85.40625 380.628906 83.503906 381.976562 81.257812 C 383.324219 79 384 76.296875 384 72.988281 C 384 69.980469 383.398438 67.425781 382.199219 65.472656 C 380.996094 63.5625 379.378906 61.945312 377.476562 60.734375 C 375.449219 59.457031 373.273438 58.480469 370.800781 57.730469 C 368.332031 57.027344 365.855469 56.351562 363.375 55.699219 C 360.328125 54.910156 357.277344 54.132812 354.226562 53.367188 C 351.601562 52.617188 349.125 51.867188 346.875 50.964844 C 344.699219 50.0625 342.976562 48.707031 341.699219 47.054688 C 340.269531 44.875 339.585938 42.289062 339.75 39.6875 C 339.75 39.085938 339.898438 38.035156 340.273438 36.605469 C 340.574219 35.101562 341.398438 33.601562 342.675781 32.019531 C 343.875 30.519531 345.824219 29.015625 348.375 27.886719 C 351.753906 26.53125 355.386719 25.914062 359.023438 26.082031 C 362.023438 26.082031 364.875 26.382812 367.425781 27.058594 C 369.976562 27.738281 372.148438 28.789062 374.023438 30.21875 C 375.824219 31.722656 377.25 33.601562 378.226562 35.855469 C 379.273438 38.109375 379.726562 40.816406 379.726562 44.125 Z M 379.726562 44.046875 "/>
</g>
</svg>
