<?xml version="1.0" encoding="UTF-8"?>
<svg xmlns="http://www.w3.org/2000/svg" xmlns:xlink="http://www.w3.org/1999/xlink" width="px" height="px" viewBox="0 0 192 192" version="1.1">
<g id="surface1">
<path style=" stroke:none;fill-rule:nonzero;fill:rgb(87.058824%,29.803922%,21.176471%);fill-opacity:1;" d="M 188.398438 87.449219 L 104.550781 3.601562 C 99.71875 -1.214844 91.90625 -1.214844 87.074219 3.601562 L 69.675781 21 L 91.726562 43.125 C 97.042969 41.324219 102.921875 42.710938 106.875 46.695312 C 110.832031 50.679688 112.167969 56.570312 110.324219 61.875 L 131.625 83.101562 C 138.1875 80.878906 145.40625 83.542969 148.957031 89.488281 C 152.507812 95.4375 151.425781 103.054688 146.359375 107.777344 C 141.292969 112.5 133.617188 113.046875 127.933594 109.085938 C 122.25 105.128906 120.101562 97.738281 122.773438 91.351562 L 102.976562 71.550781 L 102.976562 123.824219 C 104.417969 124.53125 105.734375 125.46875 106.875 126.601562 C 112.589844 132.347656 112.574219 141.640625 106.835938 147.367188 C 101.097656 153.09375 91.804688 153.09375 86.066406 147.367188 C 80.328125 141.640625 80.308594 132.347656 86.023438 126.601562 C 87.398438 125.21875 89.027344 124.125 90.824219 123.375 L 90.824219 70.648438 C 89.023438 69.90625 87.394531 68.808594 86.023438 67.425781 C 81.820312 63.207031 80.578125 56.871094 82.875 51.375 L 61.125 29.625 L 3.601562 87 C -1.214844 91.828125 -1.214844 99.644531 3.601562 104.476562 L 87.449219 188.324219 C 92.28125 193.140625 100.09375 193.140625 104.925781 188.324219 L 188.398438 104.851562 C 193.214844 100.019531 193.214844 92.203125 188.398438 87.375 "/>
</g>
</svg>
