<?xml version="1.0" encoding="UTF-8"?>
<svg xmlns="http://www.w3.org/2000/svg" xmlns:xlink="http://www.w3.org/1999/xlink" width="px" height="px" viewBox="0 0 789 789" version="1.1">
<g id="surface1">
<rect x="0" y="0" width="789" height="789" style="fill:rgb(94.117647%,85.882353%,30.980392%);fill-opacity:1;stroke:none;"/>
<path style=" stroke:none;fill-rule:nonzero;fill:rgb(19.607843%,20%,18.823529%);fill-opacity:1;" d="M 724.425781 600.824219 C 718.648438 564.824219 695.175781 534.601562 625.648438 506.398438 C 601.5 495.300781 574.574219 487.351562 566.550781 469.050781 C 563.699219 458.398438 563.324219 452.398438 565.125 445.949219 C 570.300781 425.023438 595.273438 418.5 615.074219 424.5 C 629.4375 429.550781 641.058594 440.332031 647.175781 454.273438 C 681.226562 432.226562 681.148438 432.375 704.925781 417.226562 C 699.515625 408.0625 693.128906 399.511719 685.875 391.726562 C 665.398438 368.851562 637.5 357.074219 592.875 357.976562 L 569.625 360.976562 C 547.351562 366.601562 526.125 378.300781 513.675781 393.976562 C 476.324219 436.351562 486.976562 510.523438 532.425781 541.050781 C 577.199219 574.648438 642.976562 582.300781 651.375 613.726562 C 659.550781 652.199219 623.101562 664.648438 586.875 660.226562 C 560.175781 654.675781 545.324219 641.101562 529.273438 616.425781 L 469.351562 651 C 476.550781 666.75 484.125 673.875 496.199219 687.523438 C 553.351562 745.5 696.375 742.648438 722.023438 654.898438 C 723.074219 651.898438 729.976562 631.800781 724.425781 600.824219 Z M 428.925781 362.625 L 355.125 362.625 C 355.125 426.375 354.824219 489.675781 354.824219 553.425781 C 354.824219 594 356.925781 631.199219 350.324219 642.601562 C 339.523438 665.023438 311.550781 662.25 298.800781 657.898438 C 285.824219 651.523438 279.226562 642.449219 271.574219 629.625 C 269.476562 625.949219 267.898438 623.101562 267.375 622.875 L 207.375 659.625 C 217.351562 680.101562 232.050781 697.875 250.875 709.425781 C 279 726.300781 316.800781 731.476562 356.324219 722.398438 C 382.050781 714.898438 404.25 699.375 415.875 675.75 C 432.675781 644.773438 429.074219 607.273438 428.925781 565.800781 C 429.300781 498.148438 428.925781 430.5 428.925781 362.625 Z M 428.925781 362.625 "/>
</g>
</svg>
