<?xml version="1.0" encoding="UTF-8"?>
<svg xmlns="http://www.w3.org/2000/svg" xmlns:xlink="http://www.w3.org/1999/xlink" width="px" height="px" viewBox="0 0 60 63" version="1.1">
<g id="surface1">
<path style=" stroke:none;fill-rule:evenodd;fill:rgb(60%,25.882353%,30.980392%);fill-opacity:1;" d="M 56.363281 31.054688 C 56.363281 27.496094 53.8125 24.457031 50.363281 23.644531 L 58.085938 1.851562 L 19.914062 1.851562 L 27.636719 23.71875 C 24.242188 24.621094 21.878906 27.65625 21.863281 31.128906 C 21.863281 33.648438 23.210938 35.945312 25.238281 37.355469 C 22.871094 40.566406 19.613281 43.039062 15.863281 44.46875 C 13.6875 43.0625 12.863281 40.617188 13.613281 38.46875 C 16.914062 37.503906 19.3125 34.539062 19.3125 31.054688 C 19.3125 26.832031 15.710938 23.421875 11.289062 23.421875 C 6.863281 23.421875 3.261719 26.832031 3.261719 31.128906 C 3.261719 33.203125 4.164062 35.132812 5.585938 36.464844 L 5.210938 37.207031 C 4.085938 39.652344 2.664062 42.246094 2.136719 45.285156 C 1.085938 51.289062 2.8125 56.105469 6.9375 58.847656 C 9.1875 60.332031 11.738281 61.148438 14.4375 61.148438 C 19.433594 60.699219 24.269531 59.183594 28.613281 56.699219 C 31.914062 55.144531 35.363281 53.511719 38.664062 52.699219 C 39.863281 52.402344 41.210938 52.253906 42.5625 52.03125 C 45.40625 51.808594 48.179688 51.054688 50.738281 49.808594 C 53.738281 48.175781 55.761719 45.359375 56.363281 42.246094 C 56.8125 39.726562 56.363281 37.28125 55.164062 35.132812 C 55.957031 33.917969 56.375 32.5 56.363281 31.054688 Z M 52.914062 31.054688 C 52.914062 33.425781 50.886719 35.355469 48.414062 35.355469 C 45.9375 35.355469 43.914062 33.425781 43.914062 31.054688 C 43.890625 29.726562 44.5 28.460938 45.5625 27.644531 C 45.734375 27.542969 45.910156 27.441406 46.085938 27.347656 L 46.3125 27.203125 L 46.613281 27.054688 L 46.835938 26.980469 L 46.914062 26.980469 L 47.136719 26.90625 L 47.4375 26.832031 L 47.738281 26.832031 L 47.738281 26.757812 L 49.3125 26.757812 C 51.386719 27.175781 52.882812 28.964844 52.914062 31.054688 Z M 24.9375 5.261719 L 53.0625 5.261719 L 46.613281 23.570312 L 45.863281 23.792969 L 39.039062 10.449219 L 32.210938 23.71875 L 31.3125 23.496094 Z M 37.6875 29.574219 C 37.386719 27.941406 36.488281 26.535156 35.289062 25.421875 L 39.039062 18.234375 L 42.789062 25.644531 C 41.65625 26.703125 40.875 28.070312 40.539062 29.574219 Z M 28.6875 26.832031 L 29.289062 26.832031 L 29.511719 26.757812 L 30.414062 26.757812 C 30.4375 26.75 30.464844 26.75 30.488281 26.757812 L 30.710938 26.757812 L 30.710938 26.832031 L 31.011719 26.832031 C 31.09375 26.871094 31.167969 26.921875 31.238281 26.980469 L 31.539062 26.980469 L 31.539062 27.054688 L 31.761719 27.128906 C 31.871094 27.160156 31.972656 27.210938 32.0625 27.273438 L 32.289062 27.347656 L 32.511719 27.496094 C 32.71875 27.660156 32.921875 27.835938 33.113281 28.015625 C 33.910156 28.804688 34.367188 29.867188 34.386719 30.980469 C 34.386719 33.425781 32.363281 35.429688 29.886719 35.429688 C 27.414062 35.429688 25.386719 33.425781 25.386719 30.980469 C 25.386719 29.054688 26.8125 27.273438 28.761719 26.832031 Z M 11.136719 26.757812 C 13.613281 26.757812 15.636719 28.683594 15.636719 31.054688 C 15.636719 33.425781 13.613281 35.355469 11.136719 35.355469 C 8.664062 35.355469 6.636719 33.425781 6.636719 31.054688 C 6.636719 28.683594 8.664062 26.757812 11.136719 26.757812 Z M 52.761719 41.578125 C 52.386719 43.804688 50.960938 45.730469 48.863281 46.917969 C 46.710938 47.890625 44.398438 48.46875 42.039062 48.621094 L 37.761719 49.363281 C 34.011719 50.25 30.488281 51.957031 27.039062 53.585938 C 23.207031 55.828125 18.9375 57.246094 14.511719 57.738281 C 12.488281 57.738281 10.6875 57.144531 8.960938 56.03125 C 4.988281 53.4375 5.210938 48.546875 5.585938 45.804688 C 6.039062 43.359375 7.238281 40.988281 8.363281 38.761719 L 8.585938 38.320312 L 9.789062 38.617188 C 9.113281 42.320312 11.0625 46.027344 14.8125 47.878906 L 15.5625 48.25 L 16.238281 47.953125 C 21.25 46.238281 25.566406 42.960938 28.539062 38.617188 L 29.8125 38.6875 C 33.5625 38.6875 36.636719 36.242188 37.539062 32.980469 L 40.539062 32.980469 C 41.4375 36.242188 44.585938 38.6875 48.335938 38.6875 C 49.835938 38.6875 51.1875 38.320312 52.386719 37.652344 C 52.835938 38.910156 52.988281 40.246094 52.6875 41.578125 Z M 52.761719 41.578125 "/>
</g>
</svg>
