<?xml version="1.0" encoding="UTF-8"?>
<svg xmlns="http://www.w3.org/2000/svg" xmlns:xlink="http://www.w3.org/1999/xlink" width="px" height="px" viewBox="0 0 1876 938" version="1.1">
<g id="surface1">
<rect x="0" y="0" width="1876" height="938" style="fill:rgb(0%,0%,0%);fill-opacity:1;stroke:none;"/>
<path style=" stroke:none;fill-rule:evenodd;fill:rgb(100%,100%,100%);fill-opacity:1;" d="M 505.621094 359.742188 L 505.167969 233.597656 L 434.78125 233.597656 L 435.230469 359.742188 L 470.425781 408.066406 Z M 435.230469 575.933594 L 435.230469 702.523438 L 505.621094 702.523438 L 505.621094 575.933594 L 470.425781 527.605469 Z M 435.230469 575.933594 "/>
<path style=" stroke:none;fill-rule:evenodd;fill:rgb(0%,94.901961%,90.196078%);fill-opacity:1;" d="M 505.621094 575.933594 L 579.757812 678.210938 L 636.488281 636.941406 L 562.351562 534.660156 L 505.621094 516.351562 Z M 435.230469 359.742188 L 360.640625 257.460938 L 303.910156 298.734375 L 378.050781 400.9375 L 435.230469 419.25 Z M 435.230469 359.742188 "/>
<path style=" stroke:none;fill-rule:evenodd;fill:rgb(0%,72.54902%,94.509804%);fill-opacity:1;" d="M 378.050781 401.015625 L 257.988281 362.066406 L 236.375 428.628906 L 356.441406 468.023438 L 413.171875 449.265625 Z M 527.15625 486.335938 L 562.351562 534.660156 L 682.414062 573.605469 L 704.023438 507.046875 L 583.960938 468.097656 Z M 527.15625 486.335938 "/>
<path style=" stroke:none;fill-rule:evenodd;fill:rgb(83.921569%,22.745098%,100%);fill-opacity:1;" d="M 583.886719 468.097656 L 703.949219 428.703125 L 682.339844 362.144531 L 562.273438 401.089844 L 527.082031 449.414062 Z M 356.441406 468.097656 L 236.375 507.046875 L 257.988281 573.605469 L 378.050781 534.660156 L 413.246094 486.335938 Z M 356.441406 468.097656 "/>
<path style=" stroke:none;fill-rule:evenodd;fill:rgb(98.431373%,0.392157%,35.686275%);fill-opacity:1;" d="M 378.050781 534.660156 L 303.910156 636.941406 L 360.640625 678.210938 L 435.230469 575.933594 L 435.230469 516.351562 Z M 562.351562 401.015625 L 636.488281 298.734375 L 579.757812 257.460938 L 505.621094 359.667969 L 505.621094 419.25 Z M 562.351562 401.015625 "/>
<path style=" stroke:none;fill-rule:evenodd;fill:rgb(100%,100%,100%);fill-opacity:1;" d="M 966.589844 353.136719 L 966.589844 517.25 C 966.464844 553.460938 937.140625 582.789062 900.929688 582.910156 L 900.929688 550.042969 C 909.664062 550.105469 918.0625 546.660156 924.238281 540.484375 C 930.414062 534.304688 933.859375 525.910156 933.796875 517.175781 L 933.796875 353.136719 Z M 1566.007812 386.003906 L 1640.074219 386.003906 L 1640.074219 353.214844 L 1459.527344 353.214844 L 1459.527344 386.003906 L 1533.140625 386.003906 L 1533.140625 582.984375 L 1566.007812 582.984375 Z M 1360.550781 353.136719 L 1360.550781 517.25 C 1360.550781 535.558594 1345.992188 550.117188 1327.683594 550.117188 C 1309.371094 550.117188 1294.816406 535.558594 1294.816406 517.25 L 1294.816406 418.796875 C 1294.816406 382.703125 1265.25 353.136719 1229.15625 353.136719 C 1193.0625 353.136719 1163.496094 382.703125 1163.496094 418.796875 L 1163.496094 517.324219 C 1163.496094 535.636719 1148.9375 550.191406 1130.628906 550.191406 C 1112.316406 550.191406 1097.761719 535.636719 1097.761719 517.324219 L 1097.761719 353.136719 L 1064.894531 353.136719 L 1064.894531 517.25 C 1064.894531 553.34375 1094.457031 582.910156 1130.550781 582.910156 C 1166.648438 582.910156 1196.210938 553.34375 1196.210938 517.25 L 1196.210938 418.796875 C 1196.210938 400.488281 1210.769531 385.929688 1229.082031 385.929688 C 1247.390625 385.929688 1261.949219 400.488281 1261.949219 418.796875 L 1261.949219 517.324219 C 1261.949219 553.421875 1291.511719 582.984375 1327.609375 582.984375 C 1363.703125 582.984375 1393.269531 553.421875 1393.269531 517.324219 L 1393.269531 353.136719 Z M 1360.550781 353.136719 "/>
</g>
</svg>
