<?xml version="1.0" encoding="UTF-8"?>
<svg xmlns="http://www.w3.org/2000/svg" xmlns:xlink="http://www.w3.org/1999/xlink" width="px" height="px" viewBox="0 0 450 357" version="1.1">
<g id="surface1">
<path style=" stroke:none;fill-rule:nonzero;fill:rgb(0%,69.019608%,100%);fill-opacity:1;" d="M 0.140625 194.726562 L 0.140625 0 L 168.785156 97.363281 L 168.785156 162.273438 L 56.355469 97.363281 L 56.355469 227.183594 Z M 0.140625 194.726562 "/>
<path style=" stroke:none;fill-rule:nonzero;fill:rgb(0%,50.588235%,79.607843%);fill-opacity:1;" d="M 168.785156 97.363281 L 337.429688 0 L 337.429688 194.726562 L 225 259.636719 L 168.785156 227.183594 L 281.214844 162.273438 L 281.214844 97.363281 L 168.785156 162.273438 Z M 168.785156 97.363281 "/>
<path style=" stroke:none;fill-rule:nonzero;fill:rgb(0%,69.019608%,100%);fill-opacity:1;" d="M 168.785156 227.183594 L 168.785156 292.089844 L 281.214844 357 L 281.214844 292.089844 Z M 168.785156 227.183594 "/>
<path style=" stroke:none;fill-rule:nonzero;fill:rgb(0%,50.588235%,79.607843%);fill-opacity:1;" d="M 281.214844 357 L 449.859375 259.636719 L 449.859375 129.816406 L 393.644531 162.273438 L 393.644531 227.183594 L 281.214844 292.089844 Z M 393.644531 97.363281 L 393.644531 32.453125 L 449.859375 0 L 449.859375 64.910156 Z M 393.644531 97.363281 "/>
</g>
</svg>
