<svg width="150" height="108" viewBox="0 0 150 108" fill="none" xmlns="http://www.w3.org/2000/svg">
<path d="M19.043 23.332V108H0.878906V2.33594H18.0664L19.043 23.332ZM15.332 51.1641L6.93359 50.8711C6.9987 43.6445 7.94271 36.9714 9.76562 30.8516C11.5885 24.6667 14.2904 19.2956 17.8711 14.7383C21.4518 10.181 25.9115 6.66536 31.25 4.19141C36.5885 1.65234 42.7734 0.382812 49.8047 0.382812C54.7526 0.382812 59.3099 1.09896 63.4766 2.53125C67.6432 3.89844 71.2565 6.07943 74.3164 9.07422C77.3763 12.069 79.7526 15.9102 81.4453 20.5977C83.138 25.2852 83.9844 30.9492 83.9844 37.5898V108H65.918V38.4688C65.918 32.9349 64.974 28.5078 63.0859 25.1875C61.263 21.8672 58.6589 19.4583 55.2734 17.9609C51.888 16.3984 47.9167 15.6172 43.3594 15.6172C38.0208 15.6172 33.5612 16.5612 29.9805 18.4492C26.3997 20.3372 23.5352 22.9414 21.3867 26.2617C19.2383 29.582 17.6758 33.3906 16.6992 37.6875C15.7878 41.9193 15.332 46.4115 15.332 51.1641ZM83.7891 41.2031L71.6797 44.9141C71.7448 39.1198 72.6888 33.5534 74.5117 28.2148C76.3997 22.8763 79.1016 18.1237 82.6172 13.957C86.1979 9.79036 90.5924 6.5026 95.8008 4.09375C101.009 1.61979 106.966 0.382812 113.672 0.382812C119.336 0.382812 124.349 1.13151 128.711 2.62891C133.138 4.1263 136.849 6.4375 139.844 9.5625C142.904 12.6224 145.215 16.5612 146.777 21.3789C148.34 26.1966 149.121 31.9258 149.121 38.5664V108H130.957V38.3711C130.957 32.4466 130.013 27.8568 128.125 24.6016C126.302 21.2812 123.698 18.9701 120.312 17.668C116.992 16.3008 113.021 15.6172 108.398 15.6172C104.427 15.6172 100.911 16.3008 97.8516 17.668C94.7917 19.0352 92.2201 20.9232 90.1367 23.332C88.0534 25.6758 86.4583 28.3776 85.3516 31.4375C84.3099 34.4974 83.7891 37.7526 83.7891 41.2031Z" fill="#880000"/>
</svg>
