<?xml version="1.0" encoding="UTF-8"?>
<svg xmlns="http://www.w3.org/2000/svg" xmlns:xlink="http://www.w3.org/1999/xlink" width="px" height="px" viewBox="0 0 14 30" version="1.1">
<g id="surface1">
<path style=" stroke:none;fill-rule:nonzero;fill:rgb(34.901961%,58.823529%,21.176471%);fill-opacity:1;" d="M 5.808594 3.808594 L 6.5 5.101562 L 6.960938 5.710938 C 7.515625 6.257812 8.027344 6.84375 8.5 7.460938 C 10.234375 9.792969 11.25 12.570312 11.425781 15.457031 C 11.425781 18.730469 10.347656 21.546875 8.039062 23.910156 C 7.660156 24.296875 7.246094 24.652344 6.808594 24.976562 C 6.578125 24.976562 6.5 24.824219 6.421875 24.59375 C 6.238281 24.316406 6.109375 24.003906 6.039062 23.679688 C 5.957031 23.28125 5.929688 22.871094 5.960938 22.460938 L 5.960938 22.308594 C 5.960938 22.308594 5.730469 4.035156 5.808594 3.808594 Z M 5.808594 3.808594 "/>
<path style=" stroke:none;fill-rule:nonzero;fill:rgb(42.352941%,67.45098%,28.235294%);fill-opacity:1;" d="M 5.808594 3.808594 L 5.730469 3.808594 C 5.730469 4.113281 5.652344 4.339844 5.5 4.570312 L 4.882812 5.175781 C 2.179688 7.6875 0.53125 11.113281 0.261719 14.773438 C 0.261719 15.53125 0.570312 18.199219 0.878906 18.960938 C 1.707031 21.453125 3.292969 23.636719 5.421875 25.203125 L 5.574219 24.976562 C 5.609375 24.824219 5.636719 24.671875 5.652344 24.519531 L 5.960938 22.460938 Z M 5.808594 3.808594 "/>
<path style=" stroke:none;fill-rule:nonzero;fill:rgb(76.078431%,74.901961%,74.901961%);fill-opacity:1;" d="M 6.5 25.734375 C 6.5 25.429688 6.652344 25.203125 6.808594 24.976562 L 6.421875 24.59375 C 6.335938 24.472656 6.257812 24.347656 6.191406 24.214844 C 6.039062 23.605469 5.960938 23.070312 5.960938 22.460938 L 5.960938 22.15625 L 5.882812 22.691406 C 5.851562 23.304688 5.773438 23.914062 5.652344 24.519531 L 5.421875 25.203125 C 5.652344 25.964844 5.730469 26.726562 5.730469 27.488281 L 5.730469 27.714844 C 5.730469 28.019531 5.730469 27.945312 6.039062 28.019531 L 6.34375 28.171875 L 6.421875 28.019531 L 6.421875 25.734375 Z M 6.5 25.734375 "/>
</g>
</svg>
