<?xml version="1.0" encoding="UTF-8"?>
<svg xmlns="http://www.w3.org/2000/svg" xmlns:xlink="http://www.w3.org/1999/xlink" width="px" height="px" viewBox="0 0 767 767" version="1.1">
<g id="surface1">
<path style=" stroke:none;fill-rule:nonzero;fill:rgb(0%,0%,0%);fill-opacity:1;" d="M 358.386719 0.597656 L 346.765625 1.648438 C 170.898438 18.625 29.269531 153.191406 3.484375 327.816406 C 0.414062 348.859375 0.0390625 355.078125 0.0390625 383.613281 C 0.0390625 412.148438 0.414062 418.363281 3.484375 439.410156 C 24.949219 584 126.59375 703.941406 265.800781 748.949219 C 290.6875 756.964844 316.929688 762.429688 346.765625 765.726562 C 358.386719 767 408.613281 767 420.234375 765.726562 C 468.410156 761.019531 515.277344 747.324219 558.402344 725.359375 C 565 721.988281 566.273438 721.089844 565.371094 720.339844 C 564.773438 719.890625 536.660156 682.21875 502.925781 636.683594 L 441.601562 553.921875 L 364.757812 440.308594 C 339.207031 402.300781 313.417969 364.453125 287.390625 326.765625 C 287.089844 326.691406 286.789062 377.171875 286.640625 438.808594 C 286.417969 546.734375 286.339844 551.078125 284.992188 553.625 C 283.679688 556.613281 281.339844 559.03125 278.394531 560.441406 C 275.996094 561.636719 273.894531 561.863281 262.578125 561.863281 L 249.605469 561.863281 L 246.15625 559.691406 C 243.910156 558.265625 242.261719 556.394531 241.136719 554.222656 L 239.5625 550.851562 L 239.710938 400.6875 L 239.9375 250.449219 L 242.261719 247.527344 C 243.460938 245.957031 246.007812 243.933594 247.808594 242.960938 C 250.882812 241.460938 252.082031 241.3125 265.050781 241.3125 C 280.34375 241.3125 282.894531 241.910156 286.867188 246.253906 C 287.992188 247.453125 329.597656 310.066406 379.375 385.484375 L 530.664062 614.4375 L 591.386719 706.335938 L 594.460938 704.3125 C 623.6875 684.90625 650.1875 661.683594 673.253906 635.257812 C 721.570312 580.007812 752.910156 512.007812 763.515625 439.410156 C 766.585938 418.363281 766.960938 412.148438 766.960938 383.613281 C 766.960938 355.078125 766.585938 348.859375 763.515625 327.816406 C 737.640625 153.652344 596.707031 19.273438 421.359375 1.574219 C 414.160156 0.824219 364.609375 0 358.386719 0.597656 Z M 515.367188 232.324219 C 518.96875 234.121094 521.890625 237.566406 522.941406 241.160156 C 523.539062 243.109375 523.691406 284.75 523.539062 378.59375 L 523.316406 513.253906 L 499.550781 476.855469 L 475.710938 440.457031 L 475.710938 342.570312 C 475.710938 279.285156 476.011719 243.707031 476.460938 241.984375 C 477.660156 237.792969 480.285156 234.496094 483.882812 232.550781 C 486.957031 230.976562 488.082031 230.828125 499.851562 230.828125 C 510.945312 230.828125 512.894531 230.976562 515.367188 232.324219 Z M 515.367188 232.324219 "/>
<path style=" stroke:none;fill-rule:nonzero;fill:rgb(0%,0%,0%);fill-opacity:1;" d="M 587.636719 707.984375 C 585.015625 709.628906 584.191406 710.753906 586.515625 709.480469 C 588.164062 708.507812 590.863281 706.484375 590.414062 706.410156 C 590.1875 706.410156 588.914062 707.160156 587.636719 707.984375 Z M 582.464844 711.351562 C 581.117188 712.402344 581.117188 712.476562 582.765625 711.652344 C 583.664062 711.203125 584.414062 710.679688 584.414062 710.527344 C 584.414062 709.929688 584.039062 710.078125 582.464844 711.351562 Z M 578.71875 713.601562 C 577.367188 714.648438 577.367188 714.722656 579.015625 713.898438 C 579.917969 713.449219 580.667969 712.925781 580.667969 712.777344 C 580.667969 712.175781 580.292969 712.328125 578.71875 713.601562 Z M 574.96875 715.847656 C 573.621094 716.894531 573.621094 716.96875 575.269531 716.144531 C 576.167969 715.695312 576.917969 715.171875 576.917969 715.023438 C 576.917969 714.421875 576.542969 714.574219 574.96875 715.847656 Z M 569.269531 718.84375 C 566.421875 720.339844 566.574219 720.941406 569.421875 719.515625 C 570.695312 718.84375 571.671875 718.167969 571.671875 718.019531 C 571.671875 717.496094 571.59375 717.570312 569.269531 718.84375 Z M 569.269531 718.84375 "/>
</g>
</svg>
