<?xml version="1.0" encoding="UTF-8"?>
<svg xmlns="http://www.w3.org/2000/svg" xmlns:xlink="http://www.w3.org/1999/xlink" width="px" height="px" viewBox="0 0 192 75" version="1.1">
<g id="surface1">
<path style=" stroke:none;fill-rule:nonzero;fill:rgb(79.607843%,21.960784%,21.568627%);fill-opacity:1;" d="M 0 0 L 0 64.125 L 53.398438 64.125 L 53.398438 74.851562 L 96 74.851562 L 96 64.125 L 192 64.125 L 192 0 Z M 0 0 "/>
<path style=" stroke:none;fill-rule:nonzero;fill:rgb(100%,100%,100%);fill-opacity:1;" d="M 31.875 10.726562 L 10.726562 10.726562 L 10.726562 53.398438 L 31.875 53.398438 L 31.875 21.523438 L 42.601562 21.523438 L 42.601562 53.398438 L 53.398438 53.398438 L 53.398438 10.726562 Z M 64.125 10.726562 L 64.125 64.125 L 85.648438 64.125 L 85.648438 53.398438 L 106.726562 53.398438 L 106.726562 10.726562 Z M 96 42.601562 L 85.648438 42.601562 L 85.648438 21.523438 L 96 21.523438 Z M 138.601562 10.726562 L 117.523438 10.726562 L 117.523438 53.398438 L 138.601562 53.398438 L 138.601562 21.523438 L 149.398438 21.523438 L 149.398438 53.398438 L 160.125 53.398438 L 160.125 21.523438 L 170.851562 21.523438 L 170.851562 53.398438 L 181.648438 53.398438 L 181.648438 10.726562 Z M 138.601562 10.726562 "/>
</g>
</svg>
