<?xml version="1.0" encoding="UTF-8"?>
<svg xmlns="http://www.w3.org/2000/svg" xmlns:xlink="http://www.w3.org/1999/xlink" width="px" height="px" viewBox="0 0 66 64" version="1.1">
<g id="surface1">
<path style="fill-rule:evenodd;fill:rgb(0%,0%,0%);fill-opacity:1;stroke-width:6;stroke-linecap:butt;stroke-linejoin:round;stroke:rgb(0%,0%,0%);stroke-opacity:1;stroke-miterlimit:4;" d="M 64.5 59.802551 C 65 55.200806 64.802083 54.500427 68.401042 55.299377 L 69.197917 55.299377 C 71.901042 55.501709 75.5 54.899902 77.5 54.00238 C 82 51.999817 84.598958 48.601685 80.197917 49.499207 C 70.197917 51.50177 69.5 48.202209 69.5 48.202209 C 80.098958 32.799072 84.5 13.198853 80.697917 8.399963 C 70.302083 -4.601135 52.302083 1.598511 52 1.702271 L 51.901042 1.702271 C 49.901042 1.297607 47.697917 1.100464 45.197917 1.100464 C 40.598958 1.001892 37.197917 2.200317 34.598958 4.099121 C 34.598958 4.099121 2.401042 -8.901978 3.901042 20.498352 C 4.197917 26.697998 13 67.698669 23.5 55.299377 C 27.401042 50.801392 31.098958 46.998596 31.098958 46.998596 C 32.901042 48.202209 35.098958 48.798828 37.401042 48.601685 L 37.598958 48.399353 C 37.520833 48.995972 37.520833 49.602966 37.598958 50.199585 C 35 53.198242 35.802083 53.701477 30.401042 54.801331 C 24.901042 55.797424 28.098958 57.799988 30.197917 58.401794 C 32.697917 58.998413 38.598958 59.901123 42.598958 54.401855 L 42.5 54.998474 C 43.5 55.901184 43.5 61.000977 43.598958 64.700012 C 43.697917 68.399048 44 71.802368 44.802083 73.799744 C 45.598958 75.802307 46.401042 81.099243 53.598958 79.599915 C 59.5 78.297729 64 76.601257 64.5 59.802551 " transform="matrix(0.75,0,0,0.752941,2.0625,1.882353)"/>
<path style=" stroke:none;fill-rule:evenodd;fill:rgb(20%,40.392157%,56.862745%);fill-opacity:1;" d="M 62.210938 39.152344 C 54.710938 40.660156 54.1875 38.175781 54.1875 38.175781 C 62.136719 26.578125 65.4375 11.820312 62.585938 8.207031 C 54.789062 -1.582031 41.289062 3.085938 41.0625 3.164062 L 40.988281 3.164062 C 39.488281 2.859375 37.835938 2.710938 35.960938 2.710938 C 32.511719 2.636719 29.960938 3.539062 28.011719 4.96875 C 28.011719 4.96875 3.863281 -4.820312 4.988281 17.316406 C 5.210938 21.984375 11.8125 52.855469 19.6875 43.519531 C 22.613281 40.132812 25.386719 37.269531 25.386719 37.269531 C 26.738281 38.175781 28.386719 38.625 30.113281 38.476562 L 30.261719 38.324219 L 30.261719 39.679688 C 28.3125 41.9375 28.914062 42.316406 24.863281 43.144531 C 20.738281 43.894531 23.136719 45.402344 24.710938 45.855469 C 26.585938 46.304688 31.011719 46.984375 34.011719 42.84375 L 33.9375 43.292969 C 34.6875 43.972656 35.289062 47.359375 35.136719 50.523438 C 34.988281 53.683594 34.988281 55.792969 35.664062 57.449219 C 36.335938 59.105469 36.863281 62.945312 42.1875 61.816406 C 46.6875 60.835938 48.9375 58.429688 49.3125 54.363281 C 49.539062 51.5 50.0625 51.878906 50.0625 49.316406 L 50.511719 48.113281 C 50.960938 44.199219 50.511719 42.917969 53.363281 43.519531 L 53.960938 43.519531 C 55.988281 43.671875 58.6875 43.21875 60.1875 42.542969 C 63.5625 41.035156 65.511719 38.476562 62.210938 39.152344 Z M 62.210938 39.152344 "/>
<path style="fill:none;stroke-width:2;stroke-linecap:round;stroke-linejoin:round;stroke:rgb(100%,100%,100%);stroke-opacity:1;stroke-miterlimit:4;" d="M 43 52.399292 C 42.802083 62.10083 43.098958 71.90094 44 74.199219 C 44.901042 76.497498 47.098958 81.197815 54.197917 79.698486 C 60.197917 78.500061 62.302083 75.999451 63.197917 70.702515 C 64 66.702576 65.302083 55.901184 65.5 53.701477 M 34.5 3.901978 C 34.5 3.901978 2.302083 -9.000549 3.802083 20.39978 C 4.098958 26.599426 12.901042 67.600098 23.401042 55.200806 C 27.302083 50.697632 30.802083 47.200928 30.802083 47.200928 M 51.901042 1.499939 C 50.802083 1.800842 69.901042 -5.301514 80.697917 8.197632 C 84.5 13.001709 80 32.498169 69.5 47.901306 M 69.5 47.901306 C 69.5 47.901306 70.098958 51.299438 80.197917 49.198303 C 84.598958 48.399353 81.901042 51.698914 77.5 53.800049 C 73.802083 55.397949 65.598958 55.797424 65.5 53.597717 C 65.098958 47.600403 69.802083 49.400635 69.5 47.901306 C 69.197917 46.599121 67.098958 45.302124 65.697917 42.002563 C 64.5 39.20105 49.197917 17.198792 69.901042 20.498352 C 70.697917 20.301208 64.5 1.100464 45.098958 0.799561 C 25.697917 0.498657 26.302083 24.301147 26.302083 24.301147 " transform="matrix(0.75,0,0,0.752941,2.0625,1.882353)"/>
<path style="fill:none;stroke-width:2;stroke-linecap:round;stroke-linejoin:round;stroke:rgb(100%,100%,100%);stroke-opacity:1;stroke-miterlimit:4;" d="M 37.598958 50.002441 C 34.901042 53.001099 35.697917 53.597717 30.302083 54.598999 C 24.802083 55.797424 28 57.701416 30.098958 58.199463 C 32.697917 58.899841 38.598958 59.698792 42.5 54.199524 C 43.802083 52.601624 42.5 50.002441 40.901042 49.198303 C 40.098958 49.00116 39 48.601685 37.598958 50.101013 Z M 37.401042 50.002441 C 37.197917 48.300781 38 46.199646 38.901042 43.797607 C 40.302083 40.098572 43.5 36.498108 40.901042 25.001526 C 39.098958 16.30127 26.302083 23.201294 26.302083 24.301147 C 26.302083 25.401001 26.901042 30.298462 26.098958 35.797729 C 25.098958 42.998657 30.802083 49.099731 37.401042 48.497925 M 34.401042 24.202576 C 34.401042 24.602051 35.098958 25.598145 36.197917 25.800476 C 37.302083 25.99762 38.197917 25.100098 38.197917 24.700623 C 38.197917 24.301147 37.401042 23.797913 36.401042 23.699341 C 35.401042 23.600769 34.401042 23.699341 34.401042 24.202576 Z M 66.197917 23.299866 C 66.197917 23.699341 65.5 24.799194 64.401042 24.897766 C 63.302083 25.001526 62.401042 24.301147 62.401042 23.901672 C 62.401042 23.502197 63.197917 22.998962 64.197917 22.900391 C 65.197917 22.801819 66.197917 22.900391 66.197917 23.299866 Z M 69.901042 20.602112 C 70.098958 23.699341 69.197917 25.800476 69.098958 29.198608 C 69 33.997498 71.5 39.501953 67.697917 45.001221 " transform="matrix(0.75,0,0,0.752941,2.0625,1.882353)"/>
</g>
</svg>
