<?xml version="1.0" encoding="UTF-8"?>
<svg xmlns="http://www.w3.org/2000/svg" xmlns:xlink="http://www.w3.org/1999/xlink" width="px" height="px" viewBox="0 0 25 30" version="1.1">
<g id="surface1">
<path style=" stroke:none;fill-rule:evenodd;fill:rgb(0%,0%,0%);fill-opacity:1;" d="M 24.699219 22.925781 L 14.199219 1.09375 C 13.933594 0.503906 13.339844 0.121094 12.6875 0.121094 C 12.085938 0.078125 11.507812 0.363281 11.179688 0.867188 L 0.0742188 18.964844 C -0.265625 19.515625 -0.265625 20.207031 0.0742188 20.757812 L 5.664062 29.28125 C 6.074219 29.941406 6.878906 30.246094 7.628906 30.03125 L 23.640625 25.320312 C 24.105469 25.179688 24.488281 24.851562 24.699219 24.421875 C 24.929688 23.949219 24.929688 23.398438 24.699219 22.925781 Z M 22.28125 23.824219 L 8.6875 27.785156 C 8.308594 27.9375 7.929688 27.5625 8.007812 27.1875 L 12.839844 4.15625 C 12.914062 3.785156 13.59375 3.710938 13.746094 4.15625 L 22.734375 22.925781 C 22.804688 23.105469 22.796875 23.304688 22.710938 23.476562 C 22.625 23.644531 22.46875 23.773438 22.28125 23.824219 Z M 22.28125 23.824219 "/>
</g>
</svg>
