<?xml version="1.0" encoding="UTF-8"?>
<svg xmlns="http://www.w3.org/2000/svg" xmlns:xlink="http://www.w3.org/1999/xlink" width="px" height="px" viewBox="0 0 368 328" version="1.1">
<g id="surface1">
<path style=" stroke:none;fill-rule:nonzero;fill:rgb(38.039216%,85.490196%,98.431373%);fill-opacity:1;" d="M 367.890625 164.039062 C 367.890625 139.636719 337.382812 116.515625 290.601562 102.175781 C 301.398438 54.429688 296.597656 16.441406 275.457031 4.277344 C 270.335938 1.398438 264.539062 -0.0546875 258.667969 0.0742188 L 258.667969 16.816406 C 262.113281 16.816406 264.886719 17.492188 267.210938 18.769531 C 277.40625 24.625 281.832031 46.921875 278.382812 75.601562 C 277.558594 82.65625 276.207031 90.089844 274.558594 97.671875 C 259.867188 94.066406 243.824219 91.289062 226.957031 89.488281 C 217.40625 76.296875 206.988281 63.753906 195.769531 51.953125 C 220.207031 29.203125 243.148438 16.742188 258.742188 16.742188 L 258.742188 0 C 238.125 0 211.136719 14.714844 183.851562 40.238281 C 156.5625 14.863281 129.574219 0.300781 108.957031 0.300781 L 108.957031 17.042969 C 124.476562 17.042969 147.492188 29.429688 171.929688 52.027344 C 161.433594 63.0625 150.941406 75.601562 140.96875 89.488281 C 124.90625 91.136719 108.972656 93.894531 93.289062 97.746094 C 91.566406 90.238281 90.292969 82.957031 89.394531 75.976562 C 85.871094 47.296875 90.21875 25 100.335938 19.070312 C 102.585938 17.71875 105.511719 17.117188 108.957031 17.117188 L 108.957031 0.375 C 102.660156 0.375 96.964844 1.726562 92.015625 4.578125 C 70.949219 16.742188 66.226562 54.652344 77.097656 102.25 C 30.46875 116.664062 0.109375 139.714844 0.109375 164.039062 C 0.109375 188.4375 30.617188 211.558594 77.398438 225.898438 C 66.601562 273.644531 71.402344 311.632812 92.542969 323.796875 C 97.6875 326.683594 103.511719 328.132812 109.410156 328 C 130.023438 328 157.011719 313.285156 184.300781 287.761719 C 211.585938 313.136719 238.574219 327.699219 259.191406 327.699219 C 265.488281 327.699219 271.1875 326.347656 276.132812 323.496094 C 297.199219 311.332031 301.921875 273.421875 291.050781 225.824219 C 337.53125 211.484375 367.890625 188.363281 367.890625 164.039062 Z M 270.285156 113.964844 C 267.371094 124 263.996094 133.894531 260.164062 143.617188 C 253.984375 131.367188 247.101562 119.484375 239.550781 108.03125 C 250.195312 109.609375 260.464844 111.558594 270.285156 113.964844 Z M 235.953125 193.917969 C 230.335938 203.726562 224.308594 213.296875 217.882812 222.59375 C 195.390625 224.582031 172.765625 224.605469 150.265625 222.671875 C 137.453125 204.152344 126.167969 184.621094 116.53125 164.261719 C 126.015625 143.785156 137.253906 124.167969 150.117188 105.628906 C 172.609375 103.644531 195.234375 103.621094 217.734375 105.554688 C 230.546875 124.070312 241.832031 143.605469 251.46875 163.960938 C 246.699219 174.152344 241.523438 184.144531 235.953125 193.917969 Z M 260.164062 184.15625 C 264.214844 194.21875 267.664062 204.277344 270.511719 214.035156 C 260.316406 216.519531 250.007812 218.523438 239.625 220.042969 C 247.0625 208.429688 253.917969 196.453125 260.164062 184.15625 Z M 184.148438 264.261719 C 176.796875 256.617188 169.839844 248.597656 163.308594 240.238281 C 177.121094 240.855469 190.953125 240.855469 204.765625 240.238281 C 198.019531 249.023438 191.046875 257.054688 184.148438 264.261719 Z M 128.375 220.042969 C 118.042969 218.542969 107.789062 216.5625 97.640625 214.113281 C 100.414062 204.425781 103.859375 194.441406 107.757812 184.457031 C 113.9375 196.707031 120.824219 208.589844 128.375 220.042969 Z M 183.773438 63.8125 C 190.746094 71.019531 197.71875 79.054688 204.617188 87.835938 C 190.804688 87.21875 176.972656 87.21875 163.160156 87.835938 C 169.90625 79.054688 176.878906 71.019531 183.773438 63.8125 Z M 128.300781 108.03125 C 120.863281 119.621094 114.007812 131.570312 107.757812 143.84375 C 103.710938 133.78125 100.261719 123.722656 97.414062 113.964844 C 107.234375 111.636719 117.578125 109.609375 128.300781 108.03125 Z M 60.457031 202.023438 C 33.917969 190.6875 16.75 175.824219 16.75 164.039062 C 16.75 152.25 33.917969 137.3125 60.457031 126.050781 C 66.902344 123.273438 73.949219 120.792969 81.222656 118.46875 C 85.496094 133.183594 91.117188 148.496094 98.089844 164.1875 C 91.515625 178.957031 85.953125 194.15625 81.445312 209.683594 C 74.023438 207.355469 66.976562 204.804688 60.457031 202.023438 Z M 100.789062 309.304688 C 90.59375 303.449219 86.167969 281.152344 89.617188 252.476562 C 90.441406 245.417969 91.792969 237.984375 93.441406 230.402344 C 108.132812 234.007812 124.175781 236.785156 141.042969 238.585938 C 150.59375 251.78125 161.011719 264.320312 172.230469 276.125 C 147.792969 298.871094 124.851562 311.332031 109.257812 311.332031 C 105.886719 311.257812 103.035156 310.582031 100.789062 309.304688 Z M 278.605469 252.101562 C 282.128906 280.777344 277.78125 303.074219 267.664062 309.007812 C 265.414062 310.359375 262.488281 310.957031 259.042969 310.957031 C 243.523438 310.957031 220.507812 298.570312 196.070312 275.972656 C 206.566406 264.9375 217.058594 252.398438 227.03125 238.511719 C 243.09375 236.863281 259.027344 234.105469 274.710938 230.253906 C 276.390625 237.460938 277.691406 244.753906 278.605469 252.101562 Z M 307.46875 202.023438 C 301.023438 204.804688 293.976562 207.28125 286.703125 209.609375 C 282.429688 194.894531 276.808594 179.578125 269.835938 163.886719 C 276.410156 149.117188 281.972656 133.917969 286.480469 118.390625 C 293.902344 120.71875 300.949219 123.273438 307.542969 126.050781 C 334.082031 137.386719 351.25 152.25 351.25 164.039062 C 351.175781 175.824219 334.007812 190.765625 307.46875 202.023438 Z M 307.46875 202.023438 "/>
<path style=" stroke:none;fill-rule:nonzero;fill:rgb(38.039216%,85.490196%,98.431373%);fill-opacity:1;" d="M 218.183594 164.039062 C 218.183594 182.984375 202.847656 198.347656 183.925781 198.347656 C 165.003906 198.347656 149.664062 182.984375 149.664062 164.039062 C 149.664062 145.089844 165.003906 129.730469 183.925781 129.730469 C 202.847656 129.730469 218.183594 145.089844 218.183594 164.039062 Z M 218.183594 164.039062 "/>
</g>
</svg>
