<?xml version="1.0" encoding="UTF-8"?>
<svg xmlns="http://www.w3.org/2000/svg" xmlns:xlink="http://www.w3.org/1999/xlink" width="px" height="px" viewBox="0 0 192 192" version="1.1">
<g id="surface1">
<path style=" stroke:none;fill-rule:nonzero;fill:rgb(0.392157%,0.392157%,0.392157%);fill-opacity:1;" d="M 72.300781 5.550781 C 96.832031 -0.785156 122.882812 3 144.601562 16.050781 C 171.523438 32.175781 189.074219 62.550781 189.523438 93.898438 C 190.207031 126.0625 174.351562 156.324219 147.523438 174.074219 C 117.203125 193.941406 78.164062 194.613281 47.175781 175.800781 C 15.390625 156.105469 -1.648438 119.410156 3.808594 82.421875 C 9.265625 45.433594 36.183594 15.222656 72.300781 5.550781 Z M 72.300781 5.550781 "/>
<path style=" stroke:none;fill-rule:nonzero;fill:rgb(100%,100%,100%);fill-opacity:1;" d="M 68.625 20.851562 C 114.375 2.550781 170.398438 36.375 175.125 85.351562 C 182.550781 129.523438 145.875 174.300781 101.25 175.648438 C 58.726562 179.851562 17.625 143.851562 16.5 101.101562 C 13.273438 66.601562 36 32.25 68.625 20.851562 Z M 68.625 20.851562 "/>
<path style=" stroke:none;fill-rule:nonzero;fill:rgb(0.392157%,0.392157%,0.392157%);fill-opacity:1;" d="M 73.199219 91.273438 C 93.75 74.550781 113.773438 57.226562 134.699219 40.949219 C 123.75 57.75 112.5 74.476562 101.476562 91.351562 Z M 90.523438 100.574219 C 100.050781 100.574219 109.425781 100.574219 118.875 100.726562 C 98.25 117.375 78.300781 134.851562 57.300781 151.050781 C 68.25 134.25 79.5 117.449219 90.523438 100.574219 Z M 90.523438 100.574219 "/>
</g>
</svg>
