<svg viewBox="0 0 318 318" xmlns="http://www.w3.org/2000/svg" xmlns:xlink="http://www.w3.org/1999/xlink"><defs><path id="a" d="M0 0h318v318H0z"/><mask id="b" fill="#fff" height="318" width="318" x="0" y="0"><use xlink:href="#a"/></mask></defs><g fill="none" fill-rule="evenodd"><use mask="url(#b)" stroke="#4a4a4a" stroke-width="8" xlink:href="#a"/><path d="M44.3 229.4c-4.4 0-7.4 2.4-7.4 5.6 0 2.8 1.8 4.6 5.7 5.7 3.6 1 4.3 1.5 4.3 3.1 0 1.5-1.3 2.3-3.4 2.3-2 0-3.7-.7-5.2-1.9l-2.3 2.6c1.8 1.6 4.4 2.7 7.6 2.7 4.4 0 8-2 8-6 0-3.4-2.1-5-6-6-3.3-1-4-1.5-4-2.8 0-1.1 1-1.9 2.9-1.9 1.7 0 3.2.6 4.8 1.6l1.8-2.7c-1.8-1.4-4-2.3-6.8-2.3zm20.4 15.7 1.6 3a8.3 8.3 0 0 1-4.8 1.4c-3.7 0-5.7-2.1-5.7-6.2v-10h-3V230h3v-4.3l4.6-.5v4.8h4.4l-.4 3.3h-4v9.9c0 1.9.6 2.6 2 2.6.7 0 1.5-.2 2.3-.7zM84.3 230l-6.2 19c-1.4 4.5-4.2 7.4-9.9 7.8l-.4-3.3c3.7-.6 5-1.8 6-4.5h-1.5l-6-19H71l4.1 16 4.4-16zm7.3 19.5a7.5 7.5 0 0 0 3-.6l-.9-3.2-1 .1c-.8 0-1.1-.4-1.1-1.3v-22.7l-4.7.5v22.3c0 3.2 1.8 5 4.7 5zm21.8-10.5-.1 1.9h-12c.3 3.9 2.2 5.1 4.7 5.1a8 8 0 0 0 4.7-1.6l2 2.6a11 11 0 0 1-7.1 2.5c-6 0-9-3.9-9-9.9 0-5.8 3-10.2 8.4-10.2 5.3 0 8.4 3.6 8.4 9.6zm-4.6-1v-.3c0-3.1-1.1-5-3.7-5-2.2 0-3.5 1.4-3.8 5.2zm20.1-16.2 4.6.5V249h-4l-.4-2.4c-1.1 1.7-3 3-5.4 3-4.8 0-7.2-4-7.2-10.1 0-5.9 3-10 7.6-10 2 0 3.6.8 4.8 2zM125 246c1.7 0 2.8-.8 4-2.4v-8.7c-1-1.2-2.2-2-3.7-2-2.4 0-4 2-4 6.6 0 4.9 1.4 6.5 3.7 6.5zm-80.6 19.4c-5.4 0-8.9 4.2-8.9 10.2s3.5 10 9 10c2.4 0 4.4-.9 6.1-2.3l-2-2.9a6.6 6.6 0 0 1-3.9 1.4c-2.6 0-4.3-1.6-4.3-6.2s1.7-6.5 4.3-6.5a6 6 0 0 1 3.9 1.3l2-2.8a8.9 8.9 0 0 0-6.2-2.2zm17.4 0c5.6 0 8.9 3.8 8.9 10 0 6-3.4 10.1-9 10.1s-9-3.8-9-10c0-6 3.4-10 9-10zm0 3.5c-2.7 0-4.2 2-4.2 6.6 0 4.5 1.4 6.5 4.1 6.5s4.1-2 4.1-6.5-1.4-6.6-4-6.6zm33.4-3.5c-2.5 0-4.3 1.2-5.7 3.2-.7-2-2.4-3.2-4.6-3.2a6.5 6.5 0 0 0-5.5 3L79 266h-4v19h4.6v-13.2c1-1.8 2-3 3.6-3 1.2 0 2.1.8 2.1 3.1V285H90v-13.2c1-1.8 2-3 3.6-3 1.2 0 2.1.8 2.1 3.1V285h4.6v-13.8c0-3.6-2-5.8-5-5.8zm20.3 0c5 0 7 4 7 10 0 5.9-2.7 10.1-7.5 10.1a6 6 0 0 1-4.8-2v8.8l-4.6.5V266h4l.3 2.3a7 7 0 0 1 5.6-2.9zm-1.8 16.6c2.5 0 4-2 4-6.5 0-4.9-1.3-6.6-3.6-6.6-1.6 0-3 1-3.9 2.6v8.5a4 4 0 0 0 3.5 2zm21.1-16.6c5.7 0 9 3.8 9 10 0 6-3.4 10.1-9 10.1s-9-3.8-9-10c0-6 3.4-10 9-10zm0 3.5c-2.7 0-4.1 2-4.1 6.6 0 4.5 1.4 6.5 4.1 6.5s4.1-2 4.1-6.5-1.4-6.6-4-6.6zm23.4-3.5a7.1 7.1 0 0 0-5.8 3l-.3-2.4h-4v19h4.6v-13.2c1.1-1.8 2.3-3 4-3 1.4 0 2.3.8 2.3 3.1V285h4.6v-13.8c0-3.6-2-5.8-5.4-5.8zm26.4 9.6v1.9h-12c.3 3.9 2.1 5.1 4.6 5.1a8 8 0 0 0 4.8-1.6l1.9 2.6a11 11 0 0 1-7 2.5c-6 0-9.1-3.9-9.1-9.9 0-5.8 3-10.2 8.4-10.2s8.4 3.6 8.4 9.6zm-4.5-1v-.3c0-3.1-1.2-5-3.8-5-2.1 0-3.5 1.4-3.7 5.2zm18.8-8.6a7.1 7.1 0 0 0-5.8 3l-.3-2.4h-4v19h4.6v-13.2c1-1.8 2.3-3 4-3 1.4 0 2.3.8 2.3 3.1V285h4.6v-13.8c0-3.6-2-5.8-5.4-5.8zm20 15.7c-.8.5-1.5.7-2.2.7-1.4 0-2-.7-2-2.6v-10h4l.4-3.2h-4.4v-4.8l-4.6.5v4.3h-3v3.3h3v10c0 4 2 6.2 5.7 6.2 1.7 0 3.4-.4 4.8-1.4zm10.3-15.7c-4.4 0-7.4 2.4-7.4 5.6 0 2.8 1.8 4.6 5.7 5.7 3.6 1 4.3 1.5 4.3 3.1 0 1.5-1.3 2.3-3.4 2.3-2 0-3.7-.7-5.1-1.9l-2.4 2.6c1.8 1.6 4.4 2.7 7.6 2.7 4.4 0 8-2 8-6 0-3.4-2.1-5-6-6-3.3-1-4-1.5-4-2.8 0-1.1 1-1.9 2.9-1.9 1.7 0 3.2.6 4.8 1.6l1.8-2.7c-1.8-1.4-4-2.3-6.8-2.3zM79.8 87.2l-36.2 22.5 36.2 22.9-3.7 4.6-37.7-23.6v-7.9l38.1-23.6m189.3 22.7v7.8l-37.7 23.6-3.7-4.9 36.1-22.6L224.4 86l3.2-4.9" fill="#4a4a4a"/><text fill="#000" font-family="AppleColorEmoji, Apple Color Emoji" font-size="100" letter-spacing=".5" transform="translate(38 44)"><tspan x="70" y="100">💅</tspan></text></g></svg>