<?xml version="1.0" encoding="UTF-8"?>
<svg xmlns="http://www.w3.org/2000/svg" xmlns:xlink="http://www.w3.org/1999/xlink" width="px" height="px" viewBox="0 0 300 300" version="1.1">
<g id="surface1">
<path style=" stroke:none;fill-rule:nonzero;fill:rgb(0%,47.843137%,80%);fill-opacity:1;" d="M 0 150 L 0 0 L 300 0 L 300 300 L 0 300 "/>
<path style=" stroke:none;fill-rule:nonzero;fill:rgb(100%,100%,100%);fill-opacity:1;" d="M 65.773438 150.523438 L 65.773438 162.75 L 104.773438 162.75 L 104.773438 273.75 L 132.449219 273.75 L 132.449219 162.75 L 171.449219 162.75 L 171.449219 150.75 C 171.449219 144 171.449219 138.523438 171.148438 138.375 C 171.148438 138.148438 147.375 138.074219 118.5 138.074219 L 66 138.300781 L 66 150.601562 Z M 241.050781 138 C 248.699219 139.800781 254.550781 143.25 259.800781 148.726562 C 262.597656 151.605469 265.019531 154.832031 267 158.324219 C 267 158.773438 254.023438 167.550781 246.148438 172.425781 C 245.851562 172.648438 244.648438 171.375 243.449219 169.425781 C 239.550781 163.875 235.574219 161.476562 229.351562 161.023438 C 220.351562 160.425781 214.351562 165.148438 214.351562 173.023438 C 214.351562 175.425781 214.800781 176.773438 215.699219 178.726562 C 217.726562 182.851562 221.476562 185.324219 233.101562 190.425781 C 254.550781 199.648438 263.851562 205.726562 269.476562 214.425781 C 275.949219 225.492188 277.238281 238.847656 273 250.949219 C 268.199219 263.476562 256.5 271.949219 239.773438 274.726562 C 234.523438 275.625 222.523438 275.476562 216.898438 274.5 C 204.898438 272.25 193.425781 266.25 186.375 258.523438 C 183.285156 255.03125 180.660156 251.148438 178.574219 246.976562 L 181.425781 245.175781 L 192.675781 238.648438 L 201.148438 233.699219 L 203.101562 236.324219 C 206.105469 240.667969 209.925781 244.386719 214.351562 247.273438 C 224.101562 252.300781 237.148438 251.625 243.601562 245.773438 C 246.234375 243.542969 247.703125 240.226562 247.574219 236.773438 C 247.574219 233.324219 247.050781 231.75 245.324219 229.125 C 242.925781 225.824219 238.125 223.125 224.625 217.125 C 209.101562 210.523438 202.5 206.324219 196.351562 199.875 C 192.824219 195.976562 189.601562 189.898438 188.101562 184.875 C 186.976562 180.523438 186.601562 169.875 187.648438 165.601562 C 190.875 150.601562 202.199219 140.101562 218.398438 137.101562 C 225.992188 136.148438 233.6875 136.402344 241.199219 137.851562 Z M 241.050781 138 "/>
</g>
</svg>
