<svg width="40" height="40" viewBox="0 0 40 40" fill="none" xmlns="http://www.w3.org/2000/svg">
<rect width="40" height="40" rx="8" fill="#3F3D56"/>
<rect width="40" height="40" rx="8" fill="#3F3D56"/>
<path fill-rule="evenodd" clip-rule="evenodd" d="M11.75 9.41671C13.9381 7.22868 16.9057 5.99945 20 5.99945C23.0944 5.99945 26.062 7.22868 28.25 9.41671C30.4381 11.6047 31.6673 14.5724 31.6673 17.6667C31.6673 20.7611 30.4381 23.7287 28.25 25.9167L20 34.1667L11.75 25.9167C10.6666 24.8333 9.80708 23.5472 9.22071 22.1316C8.63433 20.7161 8.33252 19.1989 8.33252 17.6667C8.33252 16.1345 8.63433 14.6173 9.22071 13.2018C9.80708 11.7863 10.6666 10.5001 11.75 9.41671V9.41671ZM20 21C20.8841 21 21.7319 20.6489 22.3571 20.0237C22.9822 19.3986 23.3334 18.5508 23.3334 17.6667C23.3334 16.7827 22.9822 15.9348 22.3571 15.3097C21.7319 14.6846 20.8841 14.3334 20 14.3334C19.116 14.3334 18.2681 14.6846 17.643 15.3097C17.0179 15.9348 16.6667 16.7827 16.6667 17.6667C16.6667 18.5508 17.0179 19.3986 17.643 20.0237C18.2681 20.6489 19.116 21 20 21Z" fill="white"/>
</svg>
