<svg width="40" height="40" viewBox="0 0 40 40" fill="none" xmlns="http://www.w3.org/2000/svg">
<rect width="40" height="40" rx="8" fill="#3F3D56"/>
<path fill-rule="evenodd" clip-rule="evenodd" d="M13.3333 6.99998C13.3333 6.55795 13.5089 6.13403 13.8214 5.82147C14.134 5.50891 14.5579 5.33331 15 5.33331H15.0166C15.4587 5.33331 15.8826 5.50891 16.1951 5.82147C16.5077 6.13403 16.6833 6.55795 16.6833 6.99998C16.6833 7.44201 16.5077 7.86593 16.1951 8.17849C15.8826 8.49105 15.4587 8.66665 15.0166 8.66665H15C14.5579 8.66665 14.134 8.49105 13.8214 8.17849C13.5089 7.86593 13.3333 7.44201 13.3333 6.99998ZM16.6666 12C16.6666 11.558 16.491 11.134 16.1785 10.8215C15.8659 10.5089 15.442 10.3333 15 10.3333C14.5579 10.3333 14.134 10.5089 13.8214 10.8215C13.5089 11.134 13.3333 11.558 13.3333 12V13.6666C12.4492 13.6666 11.6014 14.0178 10.9763 14.643C10.3511 15.2681 9.99996 16.1159 9.99996 17V18.6666C9.1159 18.6666 8.26806 19.0178 7.64294 19.643C7.01782 20.2681 6.66663 21.1159 6.66663 22V23.1383C7.29163 23.3135 7.88504 23.5863 8.42496 23.9466C8.89141 24.2575 9.43941 24.4234 9.99996 24.4234C10.5605 24.4234 11.1085 24.2575 11.575 23.9466C12.5892 23.2703 13.7809 22.9094 15 22.9094C16.219 22.9094 17.4107 23.2703 18.425 23.9466C18.8914 24.2575 19.4394 24.4234 20 24.4234C20.5605 24.4234 21.1085 24.2575 21.575 23.9466C22.5892 23.2703 23.7809 22.9094 25 22.9094C26.219 22.9094 27.4107 23.2703 28.425 23.9466C28.8914 24.2575 29.4394 24.4234 30 24.4234C30.5605 24.4234 31.1085 24.2575 31.575 23.9466C32.1149 23.5863 32.7083 23.3135 33.3333 23.1383V22C33.3333 21.1159 32.9821 20.2681 32.357 19.643C31.7319 19.0178 30.884 18.6666 30 18.6666V17C30 16.1159 29.6488 15.2681 29.0236 14.643C28.3985 14.0178 27.5507 13.6666 26.6666 13.6666V12C26.6666 11.558 26.491 11.134 26.1785 10.8215C25.8659 10.5089 25.442 10.3333 25 10.3333C24.5579 10.3333 24.134 10.5089 23.8214 10.8215C23.5089 11.134 23.3333 11.558 23.3333 12V13.6666H21.6666V12C21.6666 11.558 21.491 11.134 21.1785 10.8215C20.8659 10.5089 20.442 10.3333 20 10.3333C19.5579 10.3333 19.134 10.5089 18.8214 10.8215C18.5089 11.134 18.3333 11.558 18.3333 12V13.6666H16.6666V12ZM33.3333 26.78C32.3229 27.4281 31.1455 27.7677 29.9452 27.757C28.7448 27.7463 27.5737 27.386 26.575 26.72C26.1085 26.4091 25.5605 26.2432 25 26.2432C24.4394 26.2432 23.8914 26.4091 23.425 26.72C22.4107 27.3963 21.219 27.7572 20 27.7572C18.7809 27.7572 17.5892 27.3963 16.575 26.72C16.1085 26.4091 15.5605 26.2432 15 26.2432C14.4394 26.2432 13.8914 26.4091 13.425 26.72C12.4263 27.386 11.2551 27.7463 10.0547 27.757C8.85439 27.7677 7.67699 27.4281 6.66663 26.78V30.3333C6.66663 30.7753 6.84222 31.1993 7.15478 31.5118C7.46734 31.8244 7.89127 32 8.33329 32H31.6666C32.1087 32 32.5326 31.8244 32.8451 31.5118C33.1577 31.1993 33.3333 30.7753 33.3333 30.3333V26.78ZM18.3333 6.99998C18.3333 6.55795 18.5089 6.13403 18.8214 5.82147C19.134 5.50891 19.5579 5.33331 20 5.33331H20.0166C20.4587 5.33331 20.8826 5.50891 21.1951 5.82147C21.5077 6.13403 21.6833 6.55795 21.6833 6.99998C21.6833 7.44201 21.5077 7.86593 21.1951 8.17849C20.8826 8.49105 20.4587 8.66665 20.0166 8.66665H20C19.5579 8.66665 19.134 8.49105 18.8214 8.17849C18.5089 7.86593 18.3333 7.44201 18.3333 6.99998ZM23.3333 6.99998C23.3333 6.55795 23.5089 6.13403 23.8214 5.82147C24.134 5.50891 24.5579 5.33331 25 5.33331H25.0166C25.4587 5.33331 25.8826 5.50891 26.1951 5.82147C26.5077 6.13403 26.6833 6.55795 26.6833 6.99998C26.6833 7.44201 26.5077 7.86593 26.1951 8.17849C25.8826 8.49105 25.4587 8.66665 25.0166 8.66665H25C24.5579 8.66665 24.134 8.49105 23.8214 8.17849C23.5089 7.86593 23.3333 7.44201 23.3333 6.99998Z" fill="white"/>
</svg>
