<svg width="30" height="30" viewBox="0 0 30 30" fill="none" xmlns="http://www.w3.org/2000/svg">
<rect width="30" height="30" rx="8" fill="#A0616A"/>
<path fill-rule="evenodd" clip-rule="evenodd" d="M18.1634 6.50864C18.3067 6.55634 18.4393 6.6318 18.5534 6.73073C18.6676 6.82966 18.7612 6.95011 18.8288 7.08521C18.8964 7.2203 18.9367 7.36739 18.9474 7.51807C18.9582 7.66876 18.9391 7.82008 18.8913 7.96339L14.2913 21.7634C14.195 22.0528 13.9875 22.2921 13.7147 22.4287C13.4419 22.5652 13.126 22.5877 12.8366 22.4913C12.5471 22.395 12.3078 22.1876 12.1713 21.9147C12.0348 21.6419 12.0123 21.326 12.1086 21.0366L16.7086 7.23659C16.7563 7.09326 16.8318 6.96072 16.9307 6.84655C17.0297 6.73239 17.1501 6.63883 17.2852 6.57123C17.4203 6.50363 17.5674 6.46331 17.7181 6.45257C17.8688 6.44183 18.0201 6.46089 18.1634 6.50864V6.50864ZM10.563 10.2369C10.7786 10.4526 10.8997 10.7451 10.8997 11.05C10.8997 11.3549 10.7786 11.6474 10.563 11.863L7.92609 14.5L10.563 17.1369C10.6729 17.243 10.7605 17.3699 10.8208 17.5102C10.881 17.6505 10.9128 17.8014 10.9141 17.9541C10.9154 18.1068 10.8863 18.2583 10.8285 18.3996C10.7707 18.5409 10.6853 18.6693 10.5773 18.7773C10.4693 18.8853 10.3409 18.9707 10.1996 19.0285C10.0583 19.0863 9.90683 19.1154 9.75413 19.1141C9.60143 19.1128 9.45053 19.081 9.31023 19.0208C9.16992 18.9605 9.04303 18.8729 8.93694 18.763L5.48694 15.313C5.27135 15.0974 5.15024 14.8049 5.15024 14.5C5.15024 14.1951 5.27135 13.9026 5.48694 13.6869L8.93694 10.2369C9.1526 10.0214 9.44505 9.90024 9.74999 9.90024C10.0549 9.90024 10.3474 10.0214 10.563 10.2369V10.2369ZM20.4369 10.2369C20.6526 10.0214 20.9451 9.90024 21.25 9.90024C21.5549 9.90024 21.8474 10.0214 22.063 10.2369L25.513 13.6869C25.7286 13.9026 25.8497 14.1951 25.8497 14.5C25.8497 14.8049 25.7286 15.0974 25.513 15.313L22.063 18.763C21.957 18.8729 21.8301 18.9605 21.6898 19.0208C21.5495 19.081 21.3985 19.1128 21.2459 19.1141C21.0932 19.1154 20.9417 19.0863 20.8004 19.0285C20.6591 18.9707 20.5307 18.8853 20.4227 18.7773C20.3147 18.6693 20.2293 18.5409 20.1715 18.3996C20.1137 18.2583 20.0846 18.1068 20.0859 17.9541C20.0872 17.8014 20.119 17.6505 20.1792 17.5102C20.2395 17.3699 20.3271 17.243 20.4369 17.1369L23.0739 14.5L20.4369 11.863C20.2214 11.6474 20.1002 11.3549 20.1002 11.05C20.1002 10.7451 20.2214 10.4526 20.4369 10.2369V10.2369Z" fill="white"/>
</svg>
