<svg width="40" height="40" viewBox="0 0 40 40" fill="none" xmlns="http://www.w3.org/2000/svg">
<rect width="40" height="40" rx="8" fill="#3F3D56"/>
<path d="M6.67175 13.14L20.0001 19.8033L33.3284 13.14C33.2791 12.2907 32.9069 11.4925 32.2881 10.9087C31.6693 10.3249 30.8508 9.99984 30.0001 10H10.0001C9.14939 9.99984 8.33083 10.3249 7.71205 10.9087C7.09327 11.4925 6.72109 12.2907 6.67175 13.14V13.14Z" fill="white"/>
<path d="M33.3334 16.8633L20.0001 23.53L6.66675 16.8633V26.6667C6.66675 27.5507 7.01794 28.3986 7.64306 29.0237C8.26818 29.6488 9.11603 30 10.0001 30H30.0001C30.8841 30 31.732 29.6488 32.3571 29.0237C32.9822 28.3986 33.3334 27.5507 33.3334 26.6667V16.8633Z" fill="white"/>
</svg>
