<svg width="40" height="40" viewBox="0 0 40 40" fill="none" xmlns="http://www.w3.org/2000/svg">
<rect width="40" height="40" rx="8" fill="url(#paint0_linear_93_100)"/>
<path d="M15.194 34.0284C15.668 33.8325 16 33.38 16 32.8533V29.3973C16 29.2712 16.0106 29.14 16.0273 29.0069C16.018 29.0095 16.0093 29.0114 16 29.0133C16 29.0133 14 29.0133 13.6 29.0133C12.6 29.0133 11.7333 28.6293 11.3333 27.8613C10.8666 27.0293 10.6666 25.6213 9.46663 24.8533C9.26663 24.7253 9.39996 24.5333 9.79996 24.5333C10.2 24.5973 11.0666 25.1093 11.6 25.8133C12.2 26.5173 12.8 27.0933 13.8666 27.0933C15.5246 27.0933 16.4133 27.0133 16.948 26.7381C17.5706 25.8492 18.4326 25.1733 19.3333 25.1733V25.1573C15.5546 25.0408 13.1406 23.8351 12.0166 21.9733C9.57329 22.0002 7.44596 22.2325 6.23196 22.4258C6.19329 22.2165 6.15996 22.006 6.13129 21.7941C7.32929 21.6047 9.35996 21.38 11.6946 21.3372C11.62 21.1605 11.5553 20.9794 11.5006 20.7938C9.15996 20.6799 7.13996 20.7688 6.04263 20.8559C6.02929 20.6434 6.01129 20.4316 6.00863 20.2165C7.10796 20.1301 9.07329 20.0437 11.354 20.1455C11.3013 19.8255 11.2673 19.4984 11.2673 19.158C11.2673 18.07 11.6673 16.918 12.4006 15.958C12.0673 14.87 11.6006 12.566 12.534 11.734C14.334 11.734 15.6006 12.566 16.2006 13.078C17.3333 12.6293 18.6 12.3733 20 12.3733C21.4 12.3733 22.6666 12.6293 23.7333 13.0773C24.3333 12.5653 25.6 11.7333 27.4 11.7333C28.4 12.6293 27.8666 14.9333 27.5333 15.9573C28.2666 16.9173 28.6666 18.0053 28.6 19.1573C28.6 19.4671 28.57 19.766 28.5266 20.0591C30.8593 19.949 32.878 20.0373 33.996 20.1244C33.9946 20.34 33.974 20.5506 33.962 20.7637C32.848 20.6754 30.7786 20.5845 28.3893 20.7068C28.33 20.9218 28.258 21.1311 28.1726 21.334C30.5366 21.3634 32.616 21.5829 33.8713 21.7749C33.8426 21.9874 33.8093 22.198 33.7706 22.4066C32.496 22.2108 30.3233 21.9816 27.8513 21.9701C26.7413 23.812 24.3713 25.0133 20.6666 25.1535V25.1733C22.4 25.1733 24 27.6693 24 29.3973V32.8533C24 33.38 24.332 33.8325 24.806 34.0284C30.9133 32.0879 35.3333 26.5583 35.3333 20.0533C35.3333 11.9368 28.4553 5.33331 20 5.33331C11.5446 5.33331 4.66663 11.9368 4.66663 20.0533C4.66663 26.5583 9.08663 32.0879 15.194 34.0284Z" fill="white"/>
<rect x="0.5" y="0.5" width="39" height="39" rx="7.5" stroke="#C78989" stroke-opacity="0.17"/>
<defs>
<linearGradient id="paint0_linear_93_100" x1="20" y1="0" x2="20" y2="40" gradientUnits="userSpaceOnUse">
<stop stop-color="#3F3D56"/>
<stop offset="1" stop-color="#3F3D56"/>
</linearGradient>
</defs>
</svg>
