<svg width="40" height="40" viewBox="0 0 40 40" fill="none" xmlns="http://www.w3.org/2000/svg">
<rect width="40" height="40" rx="8" fill="url(#paint0_linear_93_99)"/>
<path d="M31.6825 5.33331H8.31742C6.30218 5.33331 4.66663 6.92993 4.66663 8.89718V31.706C4.66663 33.6732 6.30218 35.2698 8.31742 35.2698H31.6825C33.6977 35.2698 35.3333 33.6732 35.3333 31.706V8.89718C35.3333 6.92993 33.6977 5.33331 31.6825 5.33331ZM14.1587 16.7377V30.2804H9.77774V16.7377H14.1587ZM9.77774 12.7961C9.77774 11.7982 10.6539 11.0355 11.9682 11.0355C13.2825 11.0355 14.1076 11.7982 14.1587 12.7961C14.1587 13.7939 13.3409 14.5994 11.9682 14.5994C10.6539 14.5994 9.77774 13.7939 9.77774 12.7961ZM30.2222 30.2804H25.8412C25.8412 30.2804 25.8412 23.6801 25.8412 23.1527C25.8412 21.7271 25.1111 20.3016 23.2857 20.2731H23.2273C21.4603 20.2731 20.7301 21.7414 20.7301 23.1527C20.7301 23.8013 20.7301 30.2804 20.7301 30.2804H16.3492V16.7377H20.7301V18.5624C20.7301 18.5624 22.1393 16.7377 24.9723 16.7377C27.8711 16.7377 30.2222 18.6836 30.2222 22.6252V30.2804Z" fill="white"/>
<rect x="0.5" y="0.5" width="39" height="39" rx="7.5" stroke="#C78989" stroke-opacity="0.17"/>
<defs>
<linearGradient id="paint0_linear_93_99" x1="20" y1="0" x2="20" y2="40" gradientUnits="userSpaceOnUse">
<stop stop-color="#3F3D56"/>
<stop offset="1" stop-color="#3F3D56"/>
</linearGradient>
</defs>
</svg>
