<svg width="40" height="40" viewBox="0 0 40 40" fill="none" xmlns="http://www.w3.org/2000/svg">
<rect width="40" height="40" rx="8" fill="#3F3D56"/>
<path d="M6.66675 8.33329C6.66675 7.89127 6.84234 7.46734 7.1549 7.15478C7.46746 6.84222 7.89139 6.66663 8.33341 6.66663H11.9217C12.3163 6.66681 12.6979 6.80693 12.9988 7.06206C13.2997 7.31719 13.5004 7.67079 13.5651 8.05996L14.7984 15.4516C14.8573 15.8037 14.8017 16.1653 14.6397 16.4833C14.4777 16.8014 14.2178 17.059 13.8984 17.2183L11.3184 18.5066C12.2436 20.7994 13.6215 22.8821 15.3697 24.6303C17.1179 26.3786 19.2007 27.7564 21.4934 28.6816L22.7834 26.1016C22.9426 25.7825 23.2 25.5229 23.5177 25.3609C23.8354 25.1989 24.1966 25.1431 24.5484 25.2016L31.9401 26.435C32.3292 26.4997 32.6828 26.7003 32.938 27.0012C33.1931 27.3021 33.3332 27.6838 33.3334 28.0783V31.6666C33.3334 32.1087 33.1578 32.5326 32.8453 32.8451C32.5327 33.1577 32.1088 33.3333 31.6667 33.3333H28.3334C16.3667 33.3333 6.66675 23.6333 6.66675 11.6666V8.33329Z" fill="white"/>
</svg>
