<svg width="30" height="30" viewBox="0 0 30 30" fill="none" xmlns="http://www.w3.org/2000/svg">
<rect width="30" height="30" rx="8" fill="#A0616A"/>
<path fill-rule="evenodd" clip-rule="evenodd" d="M11.3392 6.1021C11.2636 5.82028 11.0792 5.58002 10.8265 5.43417C10.5738 5.28832 10.2735 5.24884 9.9917 5.3244C9.70988 5.39996 9.46962 5.58438 9.32377 5.83708C9.17793 6.08979 9.13844 6.39008 9.214 6.6719L9.4989 7.7345C9.57446 8.01632 9.75888 8.25658 10.0116 8.40243C10.2643 8.54827 10.5646 8.58776 10.8464 8.5122C11.1282 8.43664 11.3685 8.25222 11.5143 7.99952C11.6602 7.74681 11.6997 7.44652 11.6241 7.1647L11.3381 6.1021H11.3392ZM6.6719 9.214C6.53211 9.17589 6.38618 9.16578 6.24247 9.18423C6.09877 9.20269 5.96012 9.24935 5.8345 9.32154C5.70888 9.39374 5.59876 9.49003 5.51047 9.6049C5.42217 9.71978 5.35743 9.85096 5.31998 9.99092C5.28253 10.1309 5.27309 10.2769 5.29222 10.4205C5.31134 10.5641 5.35865 10.7025 5.43143 10.8278C5.50421 10.9531 5.60102 11.0628 5.7163 11.1505C5.83158 11.2383 5.96306 11.3024 6.1032 11.3392L7.1658 11.6241C7.44711 11.698 7.74623 11.6574 7.99772 11.5113C8.24922 11.3652 8.43262 11.1255 8.5078 10.8445C8.58299 10.5636 8.54384 10.2643 8.39892 10.0121C8.254 9.75991 8.01511 9.57539 7.7345 9.4989L6.6719 9.2129V9.214ZM16.3673 8.5881C16.4694 8.4859 16.5504 8.36458 16.6057 8.23108C16.6609 8.09757 16.6893 7.95449 16.6893 7.81001C16.6892 7.66553 16.6607 7.52247 16.6054 7.389C16.55 7.25554 16.469 7.13428 16.3667 7.03215C16.2645 6.93002 16.1432 6.84902 16.0097 6.79378C15.8762 6.73853 15.7331 6.71012 15.5887 6.71018C15.4442 6.71023 15.3011 6.73874 15.1677 6.79407C15.0342 6.84941 14.9129 6.9305 14.8108 7.0327L14.0331 7.8104C13.9309 7.9126 13.8498 8.03393 13.7945 8.16746C13.7392 8.301 13.7107 8.44411 13.7107 8.58865C13.7107 8.73318 13.7392 8.8763 13.7945 9.00983C13.8498 9.14337 13.9309 9.2647 14.0331 9.3669C14.1353 9.4691 14.2566 9.55017 14.3902 9.60548C14.5237 9.66079 14.6668 9.68926 14.8113 9.68926C14.9559 9.68926 15.099 9.66079 15.2325 9.60548C15.3661 9.55017 15.4874 9.4691 15.5896 9.3669L16.3673 8.5881V8.5881ZM8.5892 16.3673L9.3669 15.5896C9.57345 15.3833 9.6896 15.1035 9.68981 14.8116C9.69002 14.5197 9.57426 14.2397 9.368 14.0331C9.16174 13.8265 8.88188 13.7104 8.58998 13.7102C8.29808 13.71 8.01805 13.8257 7.8115 14.032L7.0327 14.8097C6.82629 15.0161 6.71034 15.296 6.71034 15.5879C6.71034 15.8799 6.82629 16.1598 7.0327 16.3662C7.2391 16.5726 7.51905 16.6886 7.81095 16.6886C8.10285 16.6886 8.38279 16.5726 8.5892 16.3662V16.3673ZM12.1092 10.6792C11.9093 10.5992 11.6903 10.5796 11.4794 10.6229C11.2685 10.6661 11.0749 10.7704 10.9226 10.9226C10.7704 11.0749 10.6661 11.2685 10.6229 11.4794C10.5796 11.6903 10.5992 11.9093 10.6792 12.1092L15.0792 23.1092C15.158 23.3061 15.2921 23.476 15.4653 23.5984C15.6384 23.7209 15.8433 23.7906 16.0552 23.7994C16.267 23.8081 16.4769 23.7554 16.6596 23.6475C16.8422 23.5397 16.9898 23.3814 17.0845 23.1917L18.6025 20.1568L21.9223 23.4788C22.1287 23.6851 22.4086 23.8009 22.7004 23.8008C22.9922 23.8007 23.272 23.6847 23.4782 23.4783C23.6845 23.2718 23.8003 22.992 23.8002 22.7002C23.8001 22.4084 23.6841 22.1286 23.4777 21.9223L20.1568 18.6003L23.1928 17.0834C23.3822 16.9884 23.5401 16.8408 23.6476 16.6582C23.7551 16.4757 23.8075 16.266 23.7987 16.0543C23.7899 15.8426 23.7201 15.638 23.5978 15.465C23.4755 15.292 23.3058 15.1581 23.1092 15.0792L12.1092 10.6792V10.6792Z" fill="white"/>
</svg>
