<svg fill="none" xmlns="http://www.w3.org/2000/svg" viewBox="0 0 413 222" xmlns:xlink="http://www.w3.org/1999/xlink"><defs><path d="M254 23.2c3.2.8 6.5 1.7 7.8 0 .2-1.1.7-2.2 1.3-3.1.2 1 .4 2 .9 3 4 1 7.9 1.1 11.2 0 .4.9.7 1.7.8 2.6a3.8 3.8 0 0 1 .8-.4h.4l.2.2v.8c0 .6-.2 1.1-.5 1.6l-.5.5-.6.2c-.5 2.4-4.1 5.6-4.1 5.6 11 .4 11-6.5 11-13l-1.3-2.5h-4.5v-5.3h-12.3a11 11 0 0 0-7.5 2.9 9.4 9.4 0 0 0-3.1 6.9Z" fill="#2F2E41" id="reuse-0"/></defs><path d="M279 16c1 .6 2 1.3 3.2 1.4 1.2.2 2.6-.3 2.9-1.4.4-1.3-.9-2.5-2-3.4l-3.7-2.7a9 9 0 0 0-2.2-1.3 3.2 3.2 0 0 0-2.6 0l-1 1-.2 1.3c0 .9.3 1.7.9 2.5a9 9 0 0 0 2.6 2.4c1 .7 2.2 1.1 3.4 1.3" fill="#2F2E41"/><path d="M277.4 9.1c-.2-2.4 2.7-4.4 5.3-4.2a9 9 0 0 1 6.4 3.9c1.5 2 2.4 4.3 3.6 6.5 1.2 2.2 2.8 4.3 5.1 5.5 2.4 1.1 5.6 1 7.2-1a5.1 5.1 0 0 1 .6 4.8c-.6 1.6-1.9 3-3.5 3.8l-2 .8c-.3-.7-.7-1.4-1.2-2 .2.7.3 1.5.2 2.2-1 .2-2.2.2-3.3 0-1-.2-2-.7-2.9-1.3a6.6 6.6 0 0 1-2-2.4c-1-2.2-.4-4.7-.6-7-.3-2.3-1.8-5-4.3-5-2-.1-1.7 0-3 1.4" fill="#2F2E41"/><path d="M259.7 22c0 2.8 1.2 5.5 3.4 7.5 2.1 2 5 3 8.1 3 6.3 0 12.4-6.7 12.4-12.6 0-5.8-6-8.5-12.4-8.5-3 0-6 1-8.1 3-2.2 2-3.4 4.8-3.4 7.6Z" fill="#2F2E41"/><path d="M265.6 37c-6-1.2-9.8-6.5-8.6-12 1.2-5.5 7-9 13-7.9 5.9 1.2 9.7 6.5 8.5 12-1.2 5.5-7 9-13 7.9Z" fill="#FFB6B6"/><use xlink:href="#reuse-0"/><use xlink:href="#reuse-0"/><path d="M376.8 221.6v-40s15.6 28.3 0 40Z" fill="#F1F1F1"/><path d="m377.8 221.6-29.5-27s31.4 7.6 29.5 27Z" fill="#F1F1F1"/><path d="m216.8 76.9.5.5 22.6-.5 2.6-4.8 7.8 3-3.8 9a3.6 3.6 0 0 1-3.8 2.2L217 83.2a4.8 4.8 0 1 1-.3-6.3ZM290.5 214.2h-7.4l-3.6-28.7h11v28.7Z" fill="#FFB7B7"/><path d="M292.4 221.4h-24v-.3a9.3 9.3 0 0 1 9.4-9.3h14.6v9.6Z" fill="#2F2E41"/><path d="m223 214-6.8-2.9 8-27.8 10 4.4L223 214Z" fill="#FFB7B7"/><path d="m222 221.4-22.1-9.4v-.3a9.3 9.3 0 0 1 12.3-5l13.5 5.8-3.8 9Z" fill="#2F2E41"/><path d="m254.4 83-.6 8.8 15.7 1.7 16.5 1.7-4.8-13.2-26.8 1Z" fill="#FFB7B7"/><path d="m253.3 91.9-6-42.6 10.5-3.4 3.1-4.3 15.1.9 2.3 5 8 3.8-1.2 23 .9 19.3-32.7-1.7Z" fill="#2F2E41"/><path d="m249.5 80.5-10.8-4.3V76c.1-.2 4.7-19.3 5.3-22.4.6-3.2 3-4.1 3-4.1h.1l4.3 1.2 1.9 14.7-3.8 15ZM228.5 209l-14.3-3 22.9-63.1 7.8-21.6s5-17.3 7.3-24l1.3-9 32.1 3.6s9 13.2 6.2 34.6l1.3 80.7-14.4.7-12-81.3-21 44.6s-6.7 19-11.4 23.1l-5.8 14.7Z" fill="#2F2E41"/><path d="M272.7 94.9h.8l15-17-1.8-5.1 7.5-3.7 4 9a3.6 3.6 0 0 1-1 4.2L277.6 99a4.8 4.8 0 1 1-4.9-4.1Z" fill="#FFB7B7"/><path d="M287.3 79.6 281 65l2.5-10.2 2.6-3.3a1.5 1.5 0 0 1 1.2 0c1 .4 1.8 1.6 2.4 3.6l5.9 16.6-8.3 8Z" fill="#2F2E41"/><path d="m117.9 208 6.7 2.3 12.4-24.7-9.9-3.6-9.2 26Z" fill="#9F616A"/><path d="m113.8 213.8 3.1-8.7 13.3 4.8a9 9 0 0 1 5.4 11.4l-.1.3-21.7-7.8Z" fill="#2F2E41"/><path d="M161.6 214.6h7.1l3.4-27.5h-10.5v27.5Z" fill="#9F616A"/><path d="M159.7 212.3h14.1a9 9 0 0 1 9 9v.2h-23v-9.2Z" fill="#2F2E41"/><path d="m145.3 38.7 3.1-6.1s11.6 2.9 12.6 9.6l-15.7-3.5Z" fill="#F1F1F1"/><path d="m132.5 108.8 8.4 47.1-22.4 39.7 13.4 5.2 22.7-38.4 3-10.5 1.7 54.7 12-.3 5.6-51.1-8.9-47.5-35.5 1.1Z" fill="#2F2E41"/><path d="M148.5 120c-12.4 0-20.3-2.4-20.4-2.4h-.3l6.4-30 .3-27.6c0-11.8 7.7-20.4 8.8-21.2a5 5 0 0 1 2.7-3.3c2.6-1.1 5.7.3 5.8.3l9.4 3.6 12.6 41.2s-.7 35.6-1 36.7c0 0-17.4 2.7-24.3 2.7Z" fill="#3F3D56"/><path d="M158 30.7a12.7 12.7 0 1 0 0-25.5 12.7 12.7 0 0 0 0 25.5Z" fill="#9F616A"/><path opacity=".2" d="m143.8 62.2 22.3 31.1 3.3-14.5-25.6-16.6Z" fill="#000"/><path d="M213.7 83.4a5.5 5.5 0 0 1-8.2-1.7l-19.2 3 4.2-9.2L208 74a5.5 5.5 0 0 1 5.6 9.4Z" fill="#9F616A"/><path d="m191.5 75 6.9-.7 1.9 9.7-8.7.1-.1-9Z" fill="#F1F1F1"/><path d="m197.1 87.3-33.7-3-17-27.1-.1-.3a9.3 9.3 0 0 1 17.4-6.2l10 19.5 20.2 3 3.2 14.1Z" fill="#3F3D56"/><path d="m147.2 29 10.6.4c.6 0 2.4-7 2.6-8.4a4 4 0 0 1 4.1-3.2c.8 0 2.8-1.4 4.8-3.1a7.8 7.8 0 0 0-.9-12.6c-2.7-1.5-5.9-2-9-2.1-2.8 0-5.7.3-8.2 1.7-4.4 2.3-6.8 7.6-7 12.6-.2 5 1.4 10 3.3 14.7" fill="#2F2E41"/><path d="M412.2 222H.6a.6.6 0 0 1-.6-.6.6.6 0 0 1 .6-.5h411.8c.2 0 .3 0 .4.2l.2.3c0 .4-.5.6-.8.6Z" fill="#CBCBCB"/></svg>