<svg fill="none" xmlns="http://www.w3.org/2000/svg" viewBox="0 0 660 602"><path fill-rule="evenodd" clip-rule="evenodd" d="M337.9 22.7c69.3-1.5 141-41.3 202.7-9.6 64.1 33 108.2 103.4 118.1 174.8 9.3 67.2-50.1 121-68 186.5-19.2 70.6 18.2 166.3-40.2 210.5-58.2 44-140-13.2-212.6-19.2-64.3-5.4-130.5 14.3-188.4-14.2C85.2 519.8 19.2 470.9 3.2 400.9c-15.7-68.9 43-129.2 67.2-195.6 23-63.2 15.4-145.7 71-183.7 55.4-37.8 129.3 2.5 196.5 1.1Z" fill="url(#a)"/><defs><linearGradient id="a" x1="330.1" y1=".9" x2="330.1" y2="601.4" gradientUnits="userSpaceOnUse"><stop stop-color="#EDDCDC"/><stop offset=".6" stop-color="#D5CFDC" stop-opacity=".4"/><stop offset="1" stop-color="#C6C7DC" stop-opacity="0"/></linearGradient></defs></svg>