<svg width="487" height="410" viewBox="0 0 487 410" fill="none" xmlns="http://www.w3.org/2000/svg">
<path fill-rule="evenodd" clip-rule="evenodd" d="M258.226 0.0194737C291.551 -0.779621 318.961 23.2033 349.255 37.1056C382.74 52.4721 424.072 56.7674 446.144 86.2563C468.596 116.252 462.223 157.574 467.217 194.702C472.964 237.43 501.362 285.307 477.769 321.398C453.858 357.976 397.057 348.729 356.264 364.433C322.575 377.402 294.01 401.138 258.226 405.915C219.514 411.082 175.753 415.249 143.806 392.792C111.998 370.432 115.679 321.657 93.2214 289.924C67.609 253.733 14.1762 237.757 3.61647 194.702C-6.99918 151.419 6.05762 98.3157 38.8123 68.081C72.0868 37.3665 126.426 54.8299 169.683 41.4115C201.341 31.5913 225.088 0.814074 258.226 0.0194737Z" fill="url(#paint0_linear_203_157)"/>
<g clip-path="url(#clip0_203_157)">
<path d="M289.808 304.293L282.602 310.911L288.328 301.325C283.817 293.163 276.438 286.11 276.438 286.11C276.438 286.11 261.129 300.741 261.129 312.242C261.129 323.743 267.983 327.759 276.438 327.759C284.892 327.759 291.746 323.743 291.746 312.242C291.746 309.682 290.987 306.967 289.808 304.293Z" fill="#F2F2F2"/>
<path d="M280.749 311.269V311.836C280.715 318.426 279.601 323.567 277.415 327.187C277.384 327.241 277.35 327.291 277.319 327.345L277.074 327.196L276.841 327.05C279.266 323.141 280.124 317.615 280.155 311.867C280.158 311.682 280.161 311.494 280.158 311.306C280.149 308.872 280 306.411 279.761 304.02C279.744 303.835 279.725 303.647 279.705 303.459C279.373 300.304 278.895 297.29 278.405 294.672C278.371 294.486 278.335 294.301 278.298 294.119C277.451 289.69 276.588 286.482 276.391 285.772C276.368 285.685 276.354 285.637 276.351 285.626L276.619 285.551L276.622 285.548L276.892 285.472C276.894 285.483 276.942 285.643 277.021 285.941C277.322 287.052 278.104 290.069 278.872 294.049C278.906 294.228 278.942 294.413 278.976 294.599C279.376 296.723 279.767 299.097 280.076 301.59C280.155 302.215 280.225 302.833 280.287 303.442C280.31 303.63 280.329 303.818 280.346 304.003C280.605 306.588 280.739 309.01 280.749 311.269Z" fill="white"/>
<path d="M278.872 294.049C278.684 294.074 278.492 294.099 278.298 294.119C277.771 294.173 277.242 294.2 276.712 294.2C274.453 294.203 272.223 293.701 270.185 292.729C270.067 292.878 269.948 293.027 269.827 293.179C271.971 294.222 274.326 294.764 276.712 294.761C277.277 294.761 277.843 294.731 278.405 294.672C278.596 294.652 278.788 294.627 278.976 294.599C280.532 294.376 282.045 293.919 283.464 293.243C283.343 293.089 283.224 292.937 283.109 292.788C281.767 293.414 280.339 293.839 278.872 294.049V294.049Z" fill="white"/>
<path d="M280.287 303.442C280.093 303.453 279.899 303.459 279.705 303.459C279.646 303.461 279.584 303.461 279.525 303.461C277.078 303.462 274.667 302.871 272.498 301.741C270.328 300.611 268.465 298.974 267.067 296.97C266.955 297.136 266.842 297.301 266.733 297.47C268.19 299.497 270.11 301.149 272.335 302.289C274.559 303.428 277.024 304.023 279.525 304.023C279.604 304.023 279.682 304.023 279.761 304.02C279.958 304.017 280.152 304.012 280.346 304.003C283.35 303.85 286.246 302.836 288.688 301.084C288.598 300.919 288.508 300.753 288.415 300.588C286.042 302.308 283.217 303.3 280.287 303.442V303.442Z" fill="white"/>
<path d="M280.749 311.269C280.552 311.286 280.355 311.297 280.158 311.306C279.947 311.314 279.736 311.32 279.525 311.32C276.236 311.316 273.038 310.25 270.408 308.28C267.777 306.311 265.857 303.545 264.935 300.397C264.808 300.624 264.682 300.849 264.561 301.076C265.6 304.217 267.605 306.952 270.292 308.892C272.978 310.831 276.209 311.877 279.525 311.881C279.736 311.881 279.947 311.878 280.155 311.867C280.355 311.861 280.552 311.85 280.749 311.836C284.726 311.526 288.437 309.719 291.13 306.781C291.071 306.574 291.003 306.369 290.936 306.161C288.335 309.121 284.681 310.953 280.749 311.269V311.269Z" fill="white"/>
<path d="M160.93 190.809C181.326 190.809 197.86 174.315 197.86 153.969C197.86 133.622 181.326 117.128 160.93 117.128C140.534 117.128 124 133.622 124 153.969C124 174.315 140.534 190.809 160.93 190.809Z" fill="#E4E4E4"/>
<path d="M160.93 184.669C177.927 184.669 191.705 170.924 191.705 153.969C191.705 137.013 177.927 123.268 160.93 123.268C143.933 123.268 130.155 137.013 130.155 153.969C130.155 170.924 143.933 184.669 160.93 184.669Z" fill="#C78989"/>
<path d="M259 190.809C279.396 190.809 295.93 174.315 295.93 153.969C295.93 133.622 279.396 117.128 259 117.128C238.604 117.128 222.07 133.622 222.07 153.969C222.07 174.315 238.604 190.809 259 190.809Z" fill="#E4E4E4"/>
<path d="M259 184.669C275.997 184.669 289.775 170.924 289.775 153.969C289.775 137.013 275.997 123.268 259 123.268C242.003 123.268 228.225 137.013 228.225 153.969C228.225 170.924 242.003 184.669 259 184.669Z" fill="white"/>
<path d="M357.07 190.809C377.466 190.809 394 174.315 394 153.969C394 133.622 377.466 117.128 357.07 117.128C336.674 117.128 320.14 133.622 320.14 153.969C320.14 174.315 336.674 190.809 357.07 190.809Z" fill="#E4E4E4"/>
<path d="M357.07 184.669C374.067 184.669 387.845 170.924 387.845 153.969C387.845 137.013 374.067 123.268 357.07 123.268C340.073 123.268 326.295 137.013 326.295 153.969C326.295 170.924 340.073 184.669 357.07 184.669Z" fill="white"/>
<path d="M158.315 165.071C158.26 165.071 158.205 165.069 158.15 165.067C157.663 165.043 157.187 164.915 156.755 164.691C156.322 164.467 155.944 164.152 155.645 163.768L150.924 157.714C150.374 157.007 150.128 156.112 150.239 155.224C150.35 154.336 150.81 153.529 151.517 152.979L151.687 152.847C152.395 152.299 153.293 152.053 154.183 152.164C155.072 152.275 155.882 152.734 156.433 153.439C156.699 153.78 157.036 154.06 157.42 154.259C157.805 154.459 158.228 154.573 158.661 154.594C159.094 154.615 159.526 154.542 159.929 154.381C160.331 154.22 160.693 153.974 160.991 153.661L170.577 143.567C170.882 143.245 171.248 142.986 171.654 142.806C172.059 142.625 172.497 142.526 172.941 142.514C173.385 142.502 173.827 142.578 174.242 142.736C174.656 142.895 175.036 143.133 175.358 143.438L175.515 143.586C176.166 144.201 176.545 145.049 176.569 145.944C176.594 146.838 176.261 147.706 175.644 148.355L160.769 164.017C160.454 164.35 160.073 164.615 159.651 164.796C159.229 164.978 158.774 165.071 158.315 165.071V165.071Z" fill="white"/>
<path d="M242.792 146.509H218.484V125.421C218.509 124.115 219.052 122.872 219.994 121.965C220.936 121.058 222.2 120.561 223.509 120.582H231.589C237.766 120.582 242.792 125.421 242.792 131.369V146.509Z" fill="#2F2E41"/>
<path d="M251.791 322.978L247.176 322.977L244.981 305.222L251.792 305.222L251.791 322.978Z" fill="#FFB6B6"/>
<path d="M252.968 327.44L238.089 327.439V327.251C238.089 325.719 238.699 324.25 239.785 323.166C240.871 322.083 242.344 321.474 243.88 321.474H243.88L252.968 321.474L252.968 327.44Z" fill="#2F2E41"/>
<path d="M209.258 322.978L204.644 322.977L202.448 305.222L209.259 305.222L209.258 322.978Z" fill="#FFB6B6"/>
<path d="M210.435 327.44L195.556 327.439V327.251C195.556 325.719 196.166 324.25 197.252 323.166C198.338 322.083 199.811 321.474 201.347 321.474H201.348L210.435 321.474L210.435 327.44Z" fill="#2F2E41"/>
<path d="M214.83 180.332L211.819 199.482L240.425 199.857L236.661 181.459L214.83 180.332Z" fill="#FFB6B6"/>
<path d="M212.649 194.806L203.538 219.007L202.409 319.299H210.125L228.568 238.72L245.506 317.195H253.034L247.764 228.957C247.764 228.957 249.318 211.247 241.366 200.796L239.43 195.217L212.649 194.806Z" fill="#2F2E41"/>
<path d="M251.729 213.672C250.933 213.455 250.194 213.067 249.564 212.535C248.934 212.003 248.429 211.339 248.084 210.591C247.739 209.843 247.563 209.028 247.567 208.205C247.572 207.381 247.758 206.569 248.111 205.824L235.942 166.245L244.893 164.475L256.023 203.271C257.237 203.946 258.16 205.043 258.618 206.352C259.076 207.661 259.037 209.092 258.507 210.374C257.978 211.656 256.996 212.7 255.747 213.308C254.497 213.916 253.068 214.045 251.729 213.672H251.729Z" fill="#FFB6B6"/>
<path d="M235.624 190.908L215.906 190.528C215.342 190.516 214.798 190.32 214.357 189.971C213.915 189.621 213.601 189.136 213.462 188.591C212.405 184.416 210.079 173.535 211.313 162.697C211.556 160.598 212.22 158.568 213.263 156.729C214.307 154.89 215.709 153.278 217.388 151.989C219.067 150.7 220.988 149.76 223.038 149.224C225.087 148.689 227.223 148.569 229.32 148.872C231.532 149.188 233.652 149.967 235.541 151.157C237.43 152.348 239.045 153.924 240.28 155.781C241.516 157.638 242.344 159.735 242.71 161.934C243.076 164.133 242.972 166.384 242.404 168.54C239.922 177.943 238.52 184.67 238.237 188.535C238.195 189.094 237.971 189.623 237.599 190.043C237.227 190.463 236.728 190.75 236.177 190.86V190.86C236.013 190.892 235.846 190.908 235.679 190.909C235.661 190.909 235.643 190.908 235.624 190.908Z" fill="#E4E4E4"/>
<path d="M175.727 156.142C175.846 156.407 175.943 156.681 176.018 156.962L200.701 165.329L205.47 161.172L212.699 167.533L204.972 175.709C204.348 176.37 203.526 176.811 202.629 176.965C201.733 177.12 200.81 176.981 199.999 176.568L173.588 163.109C172.633 163.694 171.522 163.974 170.403 163.914C169.284 163.853 168.21 163.454 167.324 162.769C166.438 162.085 165.782 161.148 165.443 160.082C165.105 159.017 165.099 157.874 165.427 156.805C165.755 155.736 166.402 154.793 167.281 154.099C168.16 153.406 169.229 152.996 170.348 152.924C171.466 152.852 172.579 153.122 173.54 153.697C174.501 154.272 175.264 155.125 175.727 156.142V156.142Z" fill="#FFB6B6"/>
<path d="M200.752 163.994C200.754 163.655 200.829 163.32 200.972 163.013C201.116 162.706 201.324 162.433 201.583 162.213L210.62 154.533C211.764 153.226 213.381 152.424 215.116 152.304C216.851 152.184 218.563 152.756 219.877 153.894C221.19 155.031 221.998 156.642 222.122 158.373C222.247 160.104 221.678 161.813 220.541 163.126L214.105 173.124C213.921 173.409 213.678 173.651 213.392 173.835C213.106 174.018 212.784 174.137 212.447 174.185C212.111 174.232 211.768 174.207 211.442 174.111C211.116 174.014 210.815 173.849 210.559 173.626L201.561 165.786C201.305 165.563 201.1 165.287 200.96 164.978C200.821 164.669 200.749 164.333 200.752 163.994V163.994Z" fill="#E4E4E4"/>
<path d="M235.397 176.271C235.096 176.113 234.833 175.892 234.625 175.624C234.418 175.355 234.271 175.045 234.194 174.715L231.522 163.176C230.886 161.561 230.917 159.76 231.61 158.169C232.302 156.577 233.599 155.324 235.216 154.685C236.833 154.046 238.638 154.073 240.235 154.759C241.832 155.446 243.092 156.736 243.737 158.347L249.669 168.65C249.838 168.944 249.942 169.271 249.973 169.609C250.005 169.946 249.963 170.287 249.85 170.607C249.737 170.927 249.557 171.219 249.321 171.463C249.085 171.707 248.799 171.898 248.483 172.022L237.364 176.379C237.047 176.503 236.708 176.558 236.368 176.539C236.029 176.521 235.697 176.429 235.397 176.271Z" fill="#E4E4E4"/>
<path d="M244.962 122.643C245.876 120.51 244.305 117.797 241.456 116.583C238.606 115.369 235.555 116.113 234.642 118.245C233.729 120.377 235.299 123.09 238.149 124.304C240.999 125.519 244.049 124.775 244.962 122.643Z" fill="#2F2E41"/>
<path d="M236.122 138.491C239.171 132.928 237.121 125.952 231.544 122.911C225.967 119.87 218.974 121.914 215.925 127.478C212.877 133.041 214.926 140.017 220.503 143.058C226.081 146.1 233.073 144.055 236.122 138.491Z" fill="#FFB6B6"/>
<path d="M232.337 119.836H219.173C218.208 119.823 217.274 120.175 216.558 120.821C215.842 121.467 215.398 122.359 215.314 123.318C215.279 123.828 215.351 124.339 215.523 124.82C215.695 125.301 215.964 125.742 216.314 126.115C216.664 126.488 217.087 126.785 217.557 126.989C218.026 127.192 218.533 127.297 219.045 127.297C220.037 127.297 220.988 127.69 221.689 128.389C222.391 129.089 222.785 130.038 222.785 131.027V146.323H243.353V130.825C243.353 129.382 243.068 127.953 242.514 126.619C241.96 125.286 241.149 124.075 240.126 123.054C239.103 122.034 237.889 121.224 236.552 120.672C235.216 120.12 233.783 119.836 232.337 119.836Z" fill="#2F2E41"/>
<path d="M297.228 328H154.749C154.65 328 154.554 327.961 154.484 327.891C154.414 327.821 154.375 327.726 154.375 327.627C154.375 327.528 154.414 327.433 154.484 327.363C154.554 327.293 154.65 327.254 154.749 327.254H297.228C297.327 327.254 297.422 327.293 297.492 327.363C297.562 327.433 297.602 327.528 297.602 327.627C297.602 327.726 297.562 327.821 297.492 327.891C297.422 327.961 297.327 328 297.228 328Z" fill="#CACACA"/>
</g>
<defs>
<linearGradient id="paint0_linear_203_157" x1="243.5" y1="0" x2="243.5" y2="410" gradientUnits="userSpaceOnUse">
<stop stop-color="#EDDCDC"/>
<stop offset="0.636373" stop-color="#D5CFDC" stop-opacity="0.380622"/>
<stop offset="1" stop-color="#C6C7DC" stop-opacity="0"/>
</linearGradient>
<clipPath id="clip0_203_157">
<rect width="270" height="212" fill="white" transform="translate(124 116)"/>
</clipPath>
</defs>
</svg>
