<svg width="1182" height="1161" viewBox="0 0 1182 1161" fill="none" xmlns="http://www.w3.org/2000/svg">
<path fill-rule="evenodd" clip-rule="evenodd" d="M356.082 249.317C440.073 181.71 551.069 112.159 649.048 131.446C747.276 150.782 748.468 278.902 818.184 340.283C883.575 397.856 1009.6 395.15 1040.08 475.727C1071.36 558.423 1021.33 659.144 971.401 745.339C922.61 829.569 859.283 922.686 762.982 954.089C669.817 984.469 594.44 910.152 503.147 898.032C427.037 887.928 335.335 927.994 275.03 889.309C213.245 849.675 202.293 769.957 191.618 698.189C181.011 626.881 187.645 554.224 214.347 481.348C245.273 396.943 280.759 309.946 356.082 249.317Z" fill="url(#paint0_linear_88_10)"/>
<path d="M316.703 300.683H272.7C268.47 300.687 264.414 302.368 261.423 305.358C258.431 308.348 256.749 312.403 256.745 316.631V364.315C256.183 364.282 255.62 364.231 255.066 364.164C244.641 363.068 234.73 359.083 226.45 352.657C218.171 346.232 211.851 337.623 208.205 327.8C204.558 317.977 203.729 307.331 205.812 297.063C207.895 286.794 212.806 277.312 219.992 269.684C227.178 262.056 236.353 256.586 246.483 253.892C256.612 251.197 267.293 251.385 277.322 254.433C287.351 257.481 296.328 263.269 303.242 271.145C310.155 279.02 314.73 288.669 316.451 299.004C316.544 299.558 316.628 300.121 316.703 300.683Z" fill="#F2F2F2"/>
<path d="M836.171 299.004H272.7C268.025 299.01 263.543 300.868 260.236 304.173C256.93 307.477 255.071 311.958 255.066 316.631V613.766C255.071 618.439 256.93 622.92 260.236 626.224C263.543 629.529 268.025 631.388 272.7 631.393H836.171C840.846 631.388 845.328 629.529 848.634 626.224C851.941 622.92 853.8 618.439 853.805 613.766V316.631C853.8 311.958 851.941 307.477 848.634 304.173C845.328 300.868 840.846 299.01 836.171 299.004ZM852.126 613.766C852.122 617.995 850.44 622.049 847.448 625.039C844.457 628.029 840.401 629.71 836.171 629.714H272.7C268.47 629.71 264.414 628.029 261.423 625.039C258.431 622.049 256.749 617.995 256.745 613.766V316.631C256.749 312.403 258.431 308.348 261.423 305.358C264.414 302.368 268.47 300.687 272.7 300.683H836.171C840.401 300.687 844.457 302.368 847.448 305.358C850.44 308.348 852.122 312.403 852.126 316.631V613.766Z" fill="#3F3D56"/>
<path d="M808.459 347.158H300.412C300.189 347.158 299.976 347.07 299.818 346.913C299.661 346.755 299.572 346.542 299.572 346.319C299.572 346.096 299.661 345.883 299.818 345.726C299.976 345.568 300.189 345.48 300.412 345.48H808.459C808.682 345.48 808.895 345.568 809.053 345.726C809.21 345.883 809.299 346.096 809.299 346.319C809.299 346.542 809.21 346.755 809.053 346.913C808.895 347.07 808.682 347.158 808.459 347.158Z" fill="#3F3D56"/>
<path d="M444.009 595.3C443.786 595.3 443.572 595.212 443.415 595.054C443.257 594.897 443.169 594.683 443.169 594.461V318.31C443.169 318.087 443.257 317.874 443.415 317.716C443.572 317.559 443.786 317.47 444.009 317.47C444.231 317.47 444.445 317.559 444.603 317.716C444.76 317.874 444.848 318.087 444.848 318.31V594.461C444.848 594.683 444.76 594.897 444.603 595.054C444.445 595.212 444.231 595.3 444.009 595.3V595.3Z" fill="#3F3D56"/>
<path d="M570.811 595.3C570.588 595.3 570.374 595.212 570.217 595.054C570.059 594.897 569.971 594.683 569.971 594.461V318.31C569.971 318.087 570.059 317.874 570.217 317.716C570.374 317.559 570.588 317.47 570.811 317.47C571.033 317.47 571.247 317.559 571.404 317.716C571.562 317.874 571.65 318.087 571.65 318.31V594.461C571.65 594.683 571.562 594.897 571.404 595.054C571.247 595.212 571.033 595.3 570.811 595.3V595.3Z" fill="#3F3D56"/>
<path d="M697.612 595.3C697.39 595.3 697.176 595.212 697.018 595.054C696.861 594.897 696.773 594.683 696.773 594.461V318.31C696.773 318.087 696.861 317.874 697.018 317.716C697.176 317.559 697.39 317.47 697.612 317.47C697.835 317.47 698.049 317.559 698.206 317.716C698.364 317.874 698.452 318.087 698.452 318.31V594.461C698.452 594.683 698.364 594.897 698.206 595.054C698.049 595.212 697.835 595.3 697.612 595.3V595.3Z" fill="#3F3D56"/>
<path d="M362.482 433.796H331.798C330.796 433.795 329.836 433.396 329.127 432.688C328.419 431.98 328.02 431.02 328.019 430.019V393.825C328.02 392.824 328.419 391.864 329.127 391.156C329.836 390.448 330.796 390.049 331.798 390.048H362.482C363.484 390.049 364.445 390.448 365.153 391.156C365.862 391.864 366.26 392.824 366.261 393.825V430.019C366.26 431.02 365.862 431.98 365.153 432.688C364.445 433.396 363.484 433.795 362.482 433.796V433.796Z" fill="#C78989"/>
<path d="M406.149 537.038H375.465C374.463 537.036 373.503 536.638 372.794 535.93C372.086 535.222 371.687 534.262 371.686 533.26V497.067C371.687 496.066 372.086 495.106 372.794 494.398C373.503 493.69 374.463 493.291 375.465 493.29H406.149C407.151 493.291 408.112 493.69 408.82 494.398C409.529 495.106 409.927 496.066 409.928 497.067V533.26C409.927 534.262 409.529 535.222 408.82 535.93C408.112 536.638 407.151 537.036 406.149 537.038V537.038Z" fill="#C78989"/>
<path d="M505.24 455.619H474.555C473.553 455.618 472.593 455.22 471.884 454.512C471.176 453.803 470.777 452.843 470.776 451.842V415.649C470.777 414.648 471.176 413.687 471.884 412.979C472.593 412.271 473.553 411.873 474.555 411.872H505.24C506.241 411.873 507.202 412.271 507.91 412.979C508.619 413.687 509.017 414.648 509.018 415.649V451.842C509.017 452.843 508.619 453.804 507.91 454.512C507.202 455.22 506.241 455.618 505.24 455.619V455.619Z" fill="#C78989"/>
<path d="M633.721 416.169H603.036C602.035 416.168 601.074 415.77 600.366 415.062C599.657 414.354 599.259 413.393 599.258 412.392V376.199C599.259 375.198 599.657 374.238 600.366 373.529C601.074 372.821 602.035 372.423 603.036 372.422H633.721C634.723 372.423 635.683 372.821 636.392 373.529C637.1 374.238 637.498 375.198 637.5 376.199V412.392C637.498 413.393 637.1 414.354 636.392 415.062C635.683 415.77 634.723 416.168 633.721 416.169V416.169Z" fill="#C78989"/>
<path d="M752.125 416.169H721.441C720.439 416.168 719.478 415.77 718.77 415.062C718.062 414.354 717.663 413.393 717.662 412.392V376.199C717.663 375.198 718.062 374.238 718.77 373.529C719.478 372.821 720.439 372.423 721.441 372.422H752.125C753.127 372.423 754.088 372.821 754.796 373.529C755.504 374.238 755.903 375.198 755.904 376.199V412.392C755.903 413.393 755.504 414.354 754.796 415.062C754.088 415.77 753.127 416.168 752.125 416.169V416.169Z" fill="#C78989"/>
<path d="M806.709 426.241H776.024C775.022 426.24 774.062 425.842 773.353 425.134C772.645 424.426 772.247 423.466 772.245 422.464V386.271C772.247 385.27 772.645 384.31 773.353 383.602C774.062 382.894 775.022 382.495 776.024 382.494H806.709C807.71 382.495 808.671 382.894 809.379 383.602C810.088 384.31 810.486 385.27 810.487 386.271V422.464C810.486 423.466 810.088 424.426 809.379 425.134C808.671 425.842 807.71 426.24 806.709 426.241Z" fill="#E6E6E6"/>
<path d="M782.356 490.873H751.672C750.67 490.871 749.709 490.473 749.001 489.765C748.292 489.057 747.894 488.097 747.893 487.095V450.902C747.894 449.901 748.292 448.941 749.001 448.233C749.709 447.525 750.67 447.126 751.672 447.125H782.356C783.358 447.126 784.318 447.525 785.027 448.233C785.735 448.941 786.134 449.901 786.135 450.902V487.095C786.134 488.097 785.735 489.057 785.027 489.765C784.318 490.473 783.358 490.871 782.356 490.873Z" fill="#E6E6E6"/>
<path d="M678.227 477.443H647.543C646.541 477.442 645.581 477.043 644.872 476.335C644.164 475.627 643.765 474.667 643.764 473.666V437.472C643.765 436.471 644.164 435.511 644.872 434.803C645.581 434.095 646.541 433.696 647.543 433.695H678.227C679.229 433.696 680.19 434.095 680.898 434.803C681.607 435.511 682.005 436.471 682.006 437.472V473.666C682.005 474.667 681.607 475.627 680.898 476.335C680.19 477.043 679.229 477.442 678.227 477.443Z" fill="#FF6584"/>
<path d="M618.605 490.873H587.921C586.919 490.871 585.959 490.473 585.25 489.765C584.542 489.057 584.143 488.097 584.142 487.095V450.902C584.143 449.901 584.542 448.941 585.25 448.233C585.959 447.525 586.919 447.126 587.921 447.125H618.605C619.607 447.126 620.568 447.525 621.276 448.233C621.985 448.941 622.383 449.901 622.384 450.902V487.095C622.383 488.097 621.985 489.057 621.276 489.765C620.568 490.473 619.607 490.871 618.605 490.873V490.873Z" fill="#E6E6E6"/>
<path d="M490.124 547.949H459.44C458.438 547.948 457.477 547.55 456.769 546.842C456.06 546.134 455.662 545.174 455.661 544.172V507.979C455.662 506.978 456.06 506.018 456.769 505.309C457.477 504.601 458.438 504.203 459.44 504.202H490.124C491.126 504.203 492.086 504.601 492.795 505.309C493.503 506.018 493.902 506.978 493.903 507.979V544.172C493.902 545.174 493.503 546.134 492.795 546.842C492.086 547.55 491.126 547.948 490.124 547.949Z" fill="#E6E6E6"/>
<path d="M334.771 500.105H304.086C303.085 500.104 302.124 499.706 301.416 498.998C300.707 498.29 300.309 497.33 300.308 496.328V460.135C300.309 459.134 300.707 458.174 301.416 457.466C302.124 456.758 303.085 456.359 304.086 456.358H334.771C335.773 456.359 336.733 456.758 337.442 457.466C338.15 458.174 338.549 459.134 338.55 460.135V496.328C338.549 497.33 338.15 498.29 337.442 498.998C336.733 499.706 335.773 500.104 334.771 500.105V500.105Z" fill="#FF6584"/>
<path d="M421.265 433.796H390.58C389.578 433.795 388.618 433.396 387.91 432.688C387.201 431.98 386.803 431.02 386.802 430.019V393.825C386.803 392.824 387.201 391.864 387.91 391.156C388.618 390.448 389.578 390.049 390.58 390.048H421.265C422.267 390.049 423.227 390.448 423.936 391.156C424.644 391.864 425.042 392.824 425.044 393.825V430.019C425.042 431.02 424.644 431.98 423.936 432.688C423.227 433.396 422.267 433.795 421.265 433.796V433.796Z" fill="#E6E6E6"/>
<path d="M396.143 333.418H348.278C347.387 333.418 346.532 333.065 345.902 332.435C345.273 331.805 344.919 330.951 344.919 330.061C344.919 329.17 345.273 328.316 345.902 327.687C346.532 327.057 347.387 326.703 348.278 326.703H396.143C397.034 326.703 397.888 327.057 398.518 327.687C399.148 328.316 399.502 329.17 399.502 330.061C399.502 330.951 399.148 331.805 398.518 332.435C397.888 333.065 397.034 333.418 396.143 333.418Z" fill="#CCCCCC"/>
<path d="M531.342 333.418H483.477C482.586 333.418 481.732 333.065 481.102 332.435C480.472 331.805 480.118 330.951 480.118 330.061C480.118 329.17 480.472 328.316 481.102 327.687C481.732 327.057 482.586 326.703 483.477 326.703H531.342C532.233 326.703 533.088 327.057 533.718 327.687C534.347 328.316 534.701 329.17 534.701 330.061C534.701 330.951 534.347 331.805 533.718 332.435C533.088 333.065 532.233 333.418 531.342 333.418Z" fill="#CCCCCC"/>
<path d="M658.144 333.418H610.279C609.388 333.418 608.533 333.065 607.903 332.435C607.274 331.805 606.92 330.951 606.92 330.061C606.92 329.17 607.274 328.316 607.903 327.687C608.533 327.057 609.388 326.703 610.279 326.703H658.144C659.035 326.703 659.889 327.057 660.519 327.687C661.149 328.316 661.503 329.17 661.503 330.061C661.503 330.951 661.149 331.805 660.519 332.435C659.889 333.065 659.035 333.418 658.144 333.418Z" fill="#CCCCCC"/>
<path d="M776.548 333.418H728.683C727.792 333.418 726.938 333.065 726.308 332.435C725.678 331.805 725.324 330.951 725.324 330.061C725.324 329.17 725.678 328.316 726.308 327.687C726.938 327.057 727.792 326.703 728.683 326.703H776.548C777.439 326.703 778.294 327.057 778.924 327.687C779.554 328.316 779.907 329.17 779.907 330.061C779.907 330.951 779.554 331.805 778.924 332.435C778.294 333.065 777.439 333.418 776.548 333.418Z" fill="#CCCCCC"/>
<path d="M288.935 579.261C287.707 579.141 286.519 578.752 285.457 578.124C284.395 577.495 283.483 576.642 282.786 575.623C282.09 574.604 281.625 573.445 281.425 572.228C281.225 571.01 281.295 569.763 281.629 568.575L260.104 548.547L271.485 545.661L292.652 562.821C294.611 563.515 296.247 564.902 297.251 566.721C298.255 568.541 298.557 570.665 298.099 572.691C297.641 574.717 296.455 576.505 294.766 577.716C293.077 578.927 291.002 579.477 288.935 579.261V579.261Z" fill="#FFB8B8"/>
<path d="M318.658 727.292H328.953L333.851 687.601H318.656L318.658 727.292Z" fill="#FFB8B8"/>
<path d="M348.808 736.847L316.452 736.848L316.452 724.353L336.306 724.352C339.622 724.352 342.802 725.668 345.146 728.011C347.491 730.354 348.808 733.533 348.808 736.847V736.847L348.808 736.847Z" fill="#2F2E41"/>
<path d="M248.07 719.862L258.019 722.51L272.967 685.413L258.284 681.507L248.07 719.862Z" fill="#FFB8B8"/>
<path d="M274.747 736.85L243.479 728.531L246.695 716.456L265.882 721.561C269.086 722.413 271.82 724.503 273.482 727.37C275.145 730.237 275.599 733.647 274.747 736.85V736.85V736.85Z" fill="#2F2E41"/>
<path d="M331.722 719.778H316.012C315.02 719.781 314.062 719.413 313.328 718.746C312.593 718.079 312.135 717.162 312.044 716.174L302.507 617.187C302.437 616.461 302.117 615.781 301.601 615.265C301.086 614.749 300.407 614.428 299.68 614.357C298.954 614.286 298.226 614.47 297.62 614.877C297.014 615.283 296.568 615.888 296.359 616.587L268.67 709.084C268.377 710.067 267.716 710.899 266.824 711.407C265.932 711.915 264.879 712.059 263.883 711.809L249.269 708.156C248.759 708.029 248.279 707.802 247.857 707.488C247.435 707.175 247.08 706.781 246.811 706.329C246.542 705.878 246.365 705.378 246.29 704.858C246.215 704.337 246.244 703.808 246.374 703.299C246.613 702.367 270.232 610.105 270.438 609.157C275.79 569.734 282.192 559.17 285.632 553.495C285.917 553.025 286.178 552.593 286.414 552.185C286.709 551.675 288.524 546.608 289.675 543.318C289.825 542.783 290.084 542.284 290.436 541.854C290.787 541.424 291.225 541.071 291.72 540.819C306.173 533.431 323.082 538.545 327.921 540.288C328.723 540.571 329.412 541.105 329.884 541.812C344.399 563.695 337.276 690.792 335.7 716.048C335.635 717.058 335.187 718.006 334.448 718.699C333.709 719.391 332.735 719.777 331.722 719.778V719.778Z" fill="#2F2E41"/>
<path d="M291.181 469.047C302.572 469.047 311.806 459.817 311.806 448.432C311.806 437.046 302.572 427.816 291.181 427.816C279.791 427.816 270.556 437.046 270.556 448.432C270.556 459.817 279.791 469.047 291.181 469.047Z" fill="#FFB8B8"/>
<path d="M288.996 547.32L288.848 547.177C288.57 546.908 261.09 519.998 264.646 495.116C266.167 484.473 274.782 477.673 289.559 475.449C294.988 474.643 300.526 475.823 305.154 478.771C309.782 481.72 313.19 486.239 314.751 491.498L329.363 541.427L288.996 547.32Z" fill="#CCCCCC"/>
<path d="M274.931 566.46L255.35 547.011C254.011 545.674 253.039 544.014 252.527 542.193C252.015 540.371 251.981 538.449 252.428 536.61L261.907 498.067C262.191 496.912 262.709 495.828 263.429 494.881C264.149 493.935 265.056 493.146 266.094 492.563C267.131 491.981 268.277 491.618 269.461 491.496C270.645 491.374 271.841 491.497 272.975 491.856C275.137 492.552 276.943 494.063 278.01 496.067C279.078 498.072 279.322 500.413 278.693 502.594L268.713 536.502L284.851 553.824L274.931 566.46Z" fill="#CCCCCC"/>
<path d="M379.96 500.085C379.442 501.205 378.685 502.198 377.741 502.994C376.798 503.79 375.692 504.37 374.5 504.692C373.309 505.014 372.061 505.072 370.845 504.86C369.628 504.648 368.473 504.172 367.461 503.466L341.32 517.009L342.476 505.505L365.65 491.169C366.95 489.548 368.799 488.46 370.848 488.11C372.897 487.761 375.003 488.175 376.767 489.274C378.53 490.373 379.83 492.08 380.418 494.073C381.007 496.065 380.844 498.204 379.96 500.085H379.96Z" fill="#FFB8B8"/>
<path d="M364.606 508.648L339.123 519.655C337.427 520.382 335.572 520.66 333.737 520.463C331.902 520.267 330.149 519.601 328.646 518.531L296.241 495.324C295.274 494.631 294.459 493.747 293.847 492.727C293.236 491.707 292.84 490.573 292.684 489.394C292.529 488.214 292.617 487.016 292.944 485.872C293.271 484.729 293.829 483.665 294.583 482.745C296.034 480.997 298.108 479.882 300.366 479.637C302.625 479.391 304.891 480.034 306.683 481.429L334.469 503.288L356.554 494.747L364.606 508.648Z" fill="#CCCCCC"/>
<path d="M294.601 455.038C297.145 451.851 301.899 451.68 305.394 449.578C309.972 446.824 311.865 440.671 310.389 435.538C308.914 430.406 304.563 426.405 299.575 424.492C294.586 422.579 289.036 422.555 283.774 423.48C275.939 424.857 268.225 428.512 263.447 434.869C258.668 441.227 257.452 450.537 261.783 457.207C263.773 460.273 266.846 462.803 267.641 466.37C268.684 471.054 265.397 475.571 261.876 478.832C257.865 482.547 253.263 485.659 249.749 489.847C246.235 494.035 243.891 499.756 245.495 504.982C246.838 509.361 250.748 512.586 255.035 514.202C259.323 515.817 263.992 516.051 268.573 516.14C273.021 516.227 277.746 516.119 281.493 513.722C285.505 511.155 287.647 506.286 287.805 501.528C287.963 496.77 286.373 492.108 284.241 487.851C282.97 485.314 281.493 482.855 280.648 480.146C279.804 477.436 279.658 474.362 281.01 471.867C282.431 469.244 285.307 467.663 288.235 467.088C288.387 467.058 288.548 467.031 288.717 467.007C289.55 466.899 290.352 466.623 291.076 466.197C291.799 465.77 292.428 465.201 292.926 464.524C293.423 463.847 293.777 463.076 293.968 462.258C294.159 461.44 294.181 460.592 294.035 459.765C293.701 457.907 293.73 456.128 294.601 455.038Z" fill="#2F2E41"/>
<path d="M569.595 728.171H559.3L554.402 688.479L569.597 688.48L569.595 728.171Z" fill="#A0616A"/>
<path d="M551.946 725.231H571.801V737.727H539.445C539.445 736.086 539.768 734.461 540.397 732.945C541.025 731.429 541.946 730.051 543.106 728.891C544.267 727.731 545.645 726.81 547.162 726.182C548.679 725.554 550.304 725.231 551.946 725.231Z" fill="#2F2E41"/>
<path d="M644.295 716.515L634.931 720.79L613.976 686.721L627.797 680.411L644.295 716.515Z" fill="#A0616A"/>
<path d="M627.019 721.17L645.08 712.924L650.273 724.29L620.842 737.727C620.16 736.234 619.779 734.622 619.72 732.982C619.661 731.342 619.926 729.707 620.5 728.17C621.074 726.632 621.945 725.223 623.063 724.022C624.182 722.82 625.526 721.851 627.019 721.17V721.17Z" fill="#2F2E41"/>
<path d="M614.314 594.341C615.3 593.599 616.112 592.649 616.691 591.56C617.271 590.471 617.605 589.267 617.669 588.035C617.733 586.803 617.526 585.571 617.063 584.428C616.599 583.284 615.891 582.256 614.987 581.416L627.089 553.969L611.714 556.573L602.579 582.238C601.267 583.849 600.592 585.886 600.683 587.962C600.773 590.037 601.622 592.007 603.068 593.499C604.515 594.991 606.458 595.901 608.531 596.056C610.604 596.211 612.661 595.601 614.314 594.341Z" fill="#A0616A"/>
<path d="M568.939 717.706H559.104C558.15 717.702 557.232 717.34 556.534 716.691C555.835 716.041 555.407 715.153 555.335 714.202L549.971 571.041C549.931 570.493 550.012 569.942 550.207 569.428C550.402 568.914 550.708 568.448 551.101 568.064C551.495 567.68 551.968 567.387 552.488 567.204C553.007 567.022 553.56 566.955 554.107 567.009L610.988 573.046C611.909 573.137 612.766 573.562 613.395 574.242C614.024 574.922 614.381 575.809 614.399 576.734L615.591 639.884C615.597 640.227 615.664 640.566 615.787 640.886L639.12 701.364C639.3 701.831 639.385 702.33 639.371 702.83C639.357 703.331 639.243 703.824 639.037 704.28C638.83 704.736 638.535 705.147 638.168 705.488C637.801 705.829 637.37 706.094 636.9 706.267L626.934 709.937C626.068 710.256 625.116 710.247 624.256 709.913C623.397 709.578 622.689 708.941 622.267 708.121L593.604 652.413C593.448 652.11 593.334 651.788 593.265 651.454L588.368 627.873C588.226 627.189 587.845 626.579 587.294 626.15C586.742 625.722 586.056 625.504 585.358 625.535C584.66 625.567 583.996 625.846 583.485 626.323C582.974 626.799 582.65 627.442 582.571 628.135L572.693 714.358C572.588 715.279 572.147 716.13 571.455 716.747C570.762 717.365 569.867 717.706 568.939 717.706V717.706Z" fill="#2F2E41"/>
<path d="M573.836 459.104C585.227 459.104 594.461 449.874 594.461 438.488C594.461 427.103 585.227 417.873 573.836 417.873C562.445 417.873 553.211 427.103 553.211 438.488C553.211 449.874 562.445 459.104 573.836 459.104Z" fill="#A0616A"/>
<path d="M587.981 584.132C573.994 583.978 560.341 579.844 548.619 572.214L548.419 572.076L548.439 571.833L556.329 479.993C556.601 476.877 557.992 473.965 560.246 471.795C562.499 469.625 565.463 468.345 568.588 468.19C578.813 467.72 592.547 468.313 599.899 473.786C611.009 482.057 616.364 494.513 614.591 507.958C610.913 535.841 615.079 573.453 615.566 577.65L615.602 577.952L615.325 578.079C606.76 582.062 597.428 584.128 587.981 584.132V584.132Z" fill="#C78989"/>
<path d="M615.471 577.806C614.89 577.805 614.315 577.683 613.783 577.449C613.251 577.215 612.773 576.872 612.38 576.444L607.869 571.524C607.381 570.99 607.04 570.339 606.877 569.634C606.713 568.929 606.734 568.194 606.937 567.5L617.225 532.696L601.572 499.841C600.841 498.303 600.662 496.56 601.065 494.906C601.42 493.454 602.208 492.143 603.323 491.147C604.439 490.151 605.83 489.517 607.313 489.327C608.797 489.138 610.303 489.403 611.633 490.086C612.964 490.77 614.055 491.84 614.764 493.157L636.005 527.606C636.868 529.003 637.375 530.591 637.48 532.23C637.585 533.869 637.287 535.509 636.61 537.005L619.303 575.335C619.018 575.968 618.579 576.521 618.027 576.943C617.475 577.365 616.827 577.643 616.14 577.752C615.919 577.788 615.695 577.805 615.471 577.806V577.806Z" fill="#C78989"/>
<path d="M470.093 511.324C471.083 512.06 472.223 512.571 473.432 512.819C474.642 513.067 475.891 513.048 477.091 512.761C478.292 512.475 479.416 511.929 480.383 511.162C481.349 510.395 482.136 509.425 482.688 508.321L512.447 512.179L505.607 498.171L478.396 496.655C476.479 495.852 474.334 495.78 472.368 496.453C470.401 497.125 468.75 498.495 467.726 500.303C466.703 502.111 466.378 504.232 466.814 506.263C467.25 508.294 468.417 510.095 470.093 511.324V511.324Z" fill="#A0616A"/>
<path d="M535.686 518.974C535.168 518.974 534.651 518.938 534.137 518.867L487.321 512.377C486.556 512.272 485.829 511.978 485.206 511.522C484.582 511.066 484.083 510.462 483.751 509.765C483.644 509.54 483.555 509.308 483.484 509.069H483.484C483.303 508.449 483.252 507.799 483.335 507.159C483.418 506.518 483.633 505.902 483.967 505.349L487.841 498.929C488.258 498.243 488.844 497.675 489.543 497.281C490.243 496.886 491.032 496.677 491.835 496.675H491.841L532.649 496.721L563.127 469.428C564.545 468.161 566.356 467.42 568.256 467.33C569.924 467.252 571.576 467.682 572.994 468.563C574.413 469.443 575.531 470.733 576.202 472.261C576.872 473.79 577.063 475.485 576.75 477.125C576.437 478.764 575.634 480.27 574.447 481.444L544.035 515.252C542.983 516.423 541.695 517.36 540.257 518.001C538.819 518.642 537.261 518.974 535.686 518.974V518.974Z" fill="#C78989"/>
<path d="M576.181 456.828C578.066 452.468 579.661 446.662 576.046 443.579C573.949 441.791 570.928 441.787 568.181 441.565C560.441 440.938 552.473 437.378 548.69 430.6C544.907 423.821 547.019 413.741 554.157 410.683C558.968 408.622 564.484 410.026 569.519 411.453L584.64 415.739C589.132 417.013 593.85 418.417 597.084 421.784C602.242 427.153 601.857 436.231 597.76 442.447C593.663 448.664 587.493 455.148 580.429 457.508L576.181 456.828Z" fill="#2F2E41"/>
<path d="M784.785 738H164.805C164.674 738 164.543 737.975 164.422 737.925C164.3 737.875 164.189 737.801 164.096 737.708C164.003 737.615 163.929 737.505 163.879 737.384C163.828 737.262 163.802 737.132 163.802 737C163.802 736.869 163.828 736.739 163.879 736.617C163.929 736.496 164.003 736.386 164.096 736.293C164.189 736.2 164.3 736.126 164.422 736.076C164.543 736.026 164.674 736.001 164.805 736.001H784.785C784.917 736.001 785.047 736.026 785.169 736.076C785.29 736.126 785.401 736.2 785.494 736.293C785.587 736.386 785.661 736.496 785.712 736.617C785.762 736.739 785.788 736.869 785.788 737C785.788 737.132 785.762 737.262 785.712 737.384C785.661 737.505 785.587 737.615 785.494 737.708C785.401 737.801 785.29 737.875 785.169 737.925C785.047 737.975 784.917 738 784.785 738V738Z" fill="#3F3D56"/>
<defs>
<linearGradient id="paint0_linear_88_10" x1="383.403" y1="221.358" x2="798.068" y2="939.58" gradientUnits="userSpaceOnUse">
<stop stop-color="#EDDCDC"/>
<stop offset="0.636373" stop-color="#D5CFDC" stop-opacity="0.380622"/>
<stop offset="1" stop-color="#C6C7DC" stop-opacity="0"/>
</linearGradient>
</defs>
</svg>
