<svg fill="none" xmlns="http://www.w3.org/2000/svg" viewBox="0 0 1182 1161"><path fill-rule="evenodd" clip-rule="evenodd" d="M356 249.3c84-67.6 195-137.1 293-117.9 98.3 19.4 99.5 147.5 169.2 208.9 65.4 57.6 191.4 54.8 221.9 135.4 31.3 82.7-18.8 183.4-68.7 269.6-48.8 84.3-112.1 177.4-208.4 208.8-93.2 30.4-168.6-44-259.9-56-76-10.2-167.8 29.9-228-8.8-61.9-39.6-72.8-119.3-83.5-191.1-10.6-71.3-4-144 22.7-216.9 31-84.4 66.5-171.4 141.8-232Z" fill="url(#a)"/><path d="M316.7 300.7h-44a16 16 0 0 0-16 16v47.6l-1.6-.1a56.3 56.3 0 1 1 61.6-63.5Z" fill="#F2F2F2"/><path d="M836.2 299H272.7a17.7 17.7 0 0 0-17.6 17.6v297.2a17.6 17.6 0 0 0 17.6 17.6h563.5a17.7 17.7 0 0 0 17.6-17.6V316.6a17.6 17.6 0 0 0-17.6-17.6Zm16 314.8a16 16 0 0 1-16 16H272.7a16 16 0 0 1-16-16V316.6a16 16 0 0 1 16-16h563.5a16 16 0 0 1 16 16v297.2Z" fill="#3F3D56"/><path d="M808.5 347.2h-508a.8.8 0 0 1-1-.9.8.8 0 0 1 1-.8h508a.8.8 0 1 1 0 1.7Z" fill="#3F3D56"/><path d="M444 595.3a.8.8 0 0 1-.8-.8V318.3a.8.8 0 1 1 1.6 0v276.2a.8.8 0 0 1-.8.8ZM570.8 595.3a.8.8 0 0 1-.8-.8V318.3a.8.8 0 1 1 1.6 0v276.2a.8.8 0 0 1-.8.8ZM697.6 595.3a.8.8 0 0 1-.8-.8V318.3a.8.8 0 0 1 1.4-.6l.3.6v276.2a.8.8 0 0 1-.9.8Z" fill="#3F3D56"/><path d="M362.5 433.8h-30.7a3.8 3.8 0 0 1-3.8-3.8v-36.2a3.8 3.8 0 0 1 3.8-3.8h30.7a3.8 3.8 0 0 1 3.8 3.8V430a3.8 3.8 0 0 1-3.8 3.8ZM406.1 537h-30.6a3.8 3.8 0 0 1-3.8-3.7V497a3.8 3.8 0 0 1 3.8-3.8H406a3.8 3.8 0 0 1 3.8 3.8v36.2a3.8 3.8 0 0 1-3.8 3.7ZM505.2 455.6h-30.6a3.8 3.8 0 0 1-3.8-3.8v-36.2a3.8 3.8 0 0 1 3.8-3.7h30.6a3.8 3.8 0 0 1 3.8 3.7v36.2a3.8 3.8 0 0 1-3.8 3.8ZM633.7 416.2H603a3.8 3.8 0 0 1-3.7-3.8v-36.2a3.8 3.8 0 0 1 3.7-3.8h30.7a3.8 3.8 0 0 1 3.8 3.8v36.2a3.8 3.8 0 0 1-3.8 3.8ZM752.1 416.2h-30.7a3.8 3.8 0 0 1-3.7-3.8v-36.2a3.8 3.8 0 0 1 3.7-3.8h30.7a3.8 3.8 0 0 1 3.8 3.8v36.2a3.8 3.8 0 0 1-3.8 3.8Z" fill="#C78989"/><path d="M806.7 426.2H776a3.8 3.8 0 0 1-3.8-3.7v-36.2a3.8 3.8 0 0 1 3.8-3.8h30.7a3.8 3.8 0 0 1 3.8 3.8v36.2a3.8 3.8 0 0 1-3.8 3.7ZM782.4 490.9h-30.7a3.8 3.8 0 0 1-3.8-3.8v-36.2a3.8 3.8 0 0 1 3.8-3.8h30.7a3.8 3.8 0 0 1 3.7 3.8v36.2a3.8 3.8 0 0 1-3.7 3.8Z" fill="#E6E6E6"/><path d="M678.2 477.4h-30.7a3.8 3.8 0 0 1-3.7-3.7v-36.2a3.8 3.8 0 0 1 3.7-3.8h30.7a3.8 3.8 0 0 1 3.8 3.8v36.2a3.8 3.8 0 0 1-3.8 3.7Z" fill="#FF6584"/><path d="M618.6 490.9h-30.7a3.8 3.8 0 0 1-3.8-3.8v-36.2a3.8 3.8 0 0 1 3.8-3.8h30.7a3.8 3.8 0 0 1 3.8 3.8v36.2a3.8 3.8 0 0 1-3.8 3.8ZM490.1 548h-30.7a3.8 3.8 0 0 1-3.7-3.8V508a3.8 3.8 0 0 1 3.7-3.8h30.7a3.8 3.8 0 0 1 3.8 3.8v36.2a3.8 3.8 0 0 1-3.8 3.7Z" fill="#E6E6E6"/><path d="M334.8 500.1H304a3.8 3.8 0 0 1-3.8-3.8v-36.2a3.8 3.8 0 0 1 3.8-3.7h30.7a3.8 3.8 0 0 1 3.8 3.7v36.2a3.8 3.8 0 0 1-3.8 3.8Z" fill="#FF6584"/><path d="M421.3 433.8h-30.7a3.8 3.8 0 0 1-3.8-3.8v-36.2a3.8 3.8 0 0 1 3.8-3.8h30.7a3.8 3.8 0 0 1 3.7 3.8V430a3.8 3.8 0 0 1-3.7 3.8Z" fill="#E6E6E6"/><path d="M396.1 333.4h-47.8a3.4 3.4 0 1 1 0-6.7H396a3.4 3.4 0 0 1 0 6.7ZM531.3 333.4h-47.8a3.4 3.4 0 1 1 0-6.7h47.8a3.4 3.4 0 0 1 0 6.7ZM658.1 333.4h-47.8a3.4 3.4 0 1 1 0-6.7H658a3.4 3.4 0 0 1 0 6.7ZM776.5 333.4h-47.8a3.4 3.4 0 1 1 0-6.7h47.8a3.4 3.4 0 0 1 0 6.7Z" fill="#CCC"/><path d="M289 579.3a8.5 8.5 0 0 1-7.4-10.7l-21.5-20 11.4-3 21.2 17.2a8.5 8.5 0 0 1-3.8 16.5ZM318.7 727.3H329l4.9-39.7h-15.2v39.7Z" fill="#FFB8B8"/><path d="M348.8 736.8h-32.3v-12.4h19.8a12.5 12.5 0 0 1 12.5 12.4Z" fill="#2F2E41"/><path d="m248 719.9 10 2.6 15-37-14.7-4L248 720Z" fill="#FFB8B8"/><path d="m274.7 736.9-31.2-8.4 3.2-12 19.2 5a12.5 12.5 0 0 1 8.8 15.4ZM331.7 719.8H316a4 4 0 0 1-4-3.6l-9.5-99a3.1 3.1 0 0 0-6.1-.6L268.7 709a4 4 0 0 1-4.8 2.7l-14.6-3.6a4 4 0 0 1-3-4.9c.3-1 24-93.2 24.1-94.1 5.4-39.5 11.8-50 15.2-55.7l.8-1.3c.3-.5 2.1-5.6 3.3-8.9a4 4 0 0 1 2-2.5c14.5-7.4 31.4-2.3 36.2-.5a4 4 0 0 1 2 1.5c14.5 21.9 7.4 149 5.8 174.2a4 4 0 0 1-4 3.8Z" fill="#2F2E41"/><path d="M291.2 469a20.6 20.6 0 1 0 0-41.2 20.6 20.6 0 0 0 0 41.2Z" fill="#FFB8B8"/><path d="m289 547.3-.2-.1c-.2-.3-27.7-27.2-24.2-52 1.6-10.7 10.2-17.5 25-19.8a22.8 22.8 0 0 1 25.2 16.1l14.6 50-40.4 5.8Z" fill="#CCC"/><path d="M275 566.5 255.2 547a11 11 0 0 1-2.9-10.4l9.5-38.5a8.7 8.7 0 1 1 16.8 4.5l-10 33.9 16.2 17.3-10 12.7Z" fill="#CCC"/><path d="M380 500a8.4 8.4 0 0 1-12.5 3.5L341.3 517l1.2-11.5 23.1-14.3A8.5 8.5 0 0 1 380 500Z" fill="#FFB8B8"/><path d="m364.6 508.6-25.5 11a10.8 10.8 0 0 1-10.5-1l-32.4-23.3a8.7 8.7 0 0 1-1.6-12.6 8.7 8.7 0 0 1 12-1.3l27.9 21.9 22-8.6 8.1 14Z" fill="#CCC"/><path d="M294.6 455c2.5-3.1 7.3-3.3 10.8-5.4 4.6-2.8 6.5-9 5-14a17.6 17.6 0 0 0-10.8-11.1c-5-2-10.6-2-15.8-1a32 32 0 0 0-20.4 11.4c-4.7 6.3-6 15.6-1.6 22.3 2 3 5 5.6 5.8 9.2 1 4.7-2.2 9.2-5.7 12.4-4 3.7-8.6 6.9-12.2 11-3.5 4.2-5.8 10-4.2 15.2 1.3 4.4 5.2 7.6 9.5 9.2 4.3 1.6 9 1.9 13.6 2 4.4 0 9.1 0 12.9-2.5a15 15 0 0 0 6.3-12.2c.2-4.7-1.4-9.4-3.6-13.6-1.2-2.6-2.7-5-3.6-7.8-.8-2.7-1-5.7.4-8.2a10.3 10.3 0 0 1 7.7-4.9 6.2 6.2 0 0 0 5.3-7.2c-.3-1.9-.3-3.7.6-4.8Z" fill="#2F2E41"/><path d="M569.6 728.2h-10.3l-4.9-39.7h15.2v39.7Z" fill="#A0616A"/><path d="M552 725.2h19.8v12.5h-32.4a12.5 12.5 0 0 1 12.5-12.5Z" fill="#2F2E41"/><path d="m644.3 716.5-9.4 4.3-21-34 13.9-6.4 16.5 36.1Z" fill="#A0616A"/><path d="m627 721.2 18-8.3 5.3 11.4-29.5 13.4a12.5 12.5 0 0 1 6.2-16.5Z" fill="#2F2E41"/><path d="M614.3 594.3a8.4 8.4 0 0 0 .7-12.9l12-27.4-15.3 2.6-9.1 25.6a8.5 8.5 0 0 0 11.7 12.1Z" fill="#A0616A"/><path d="M569 717.7H559a3.8 3.8 0 0 1-3.8-3.5L550 571a3.8 3.8 0 0 1 4.1-4l56.9 6a3.8 3.8 0 0 1 3.4 3.7l1.2 63.2c0 .3 0 .7.2 1l23.3 60.5a3.8 3.8 0 0 1-2.2 4.9l-10 3.6a3.8 3.8 0 0 1-4.6-1.8l-28.7-55.7c-.2-.3-.3-.6-.3-1l-5-23.5a3 3 0 0 0-5.7.2l-10 86.3a3.8 3.8 0 0 1-3.7 3.3Z" fill="#2F2E41"/><path d="M573.8 459.1a20.6 20.6 0 1 0 0-41.2 20.6 20.6 0 0 0 0 41.2Z" fill="#A0616A"/><path d="M588 584.1c-14-.1-27.7-4.3-39.4-11.9l-.2-.1v-.3l8-91.8a13 13 0 0 1 12.2-11.8c10.2-.5 24 .1 31.3 5.6a35.8 35.8 0 0 1 14.7 34.2c-3.7 27.8.5 65.5 1 69.6v.4h-.3a65 65 0 0 1-27.3 6.1Z" fill="#C78989"/><path d="M615.5 577.8a4.2 4.2 0 0 1-3.1-1.4l-4.5-4.9a4.2 4.2 0 0 1-1-4l10.3-34.8-15.6-32.9a7.4 7.4 0 0 1 13.2-6.6l21.2 34.4a10 10 0 0 1 .6 9.4l-17.3 38.3a4.2 4.2 0 0 1-3.8 2.5Z" fill="#C78989"/><path d="M470 511.3a8.4 8.4 0 0 0 12.7-3l29.7 3.9-6.8-14-27.2-1.5a8.5 8.5 0 0 0-8.3 14.6Z" fill="#A0616A"/><path d="m535.7 519-1.6-.1-46.8-6.5a4.7 4.7 0 0 1-3.8-3.3 4.7 4.7 0 0 1 .5-3.8l3.8-6.4a4.7 4.7 0 0 1 4-2.2h40.8l30.5-27.3a8.3 8.3 0 0 1 13.1 2.9 8.3 8.3 0 0 1-1.8 9.1L544 515.3a11.2 11.2 0 0 1-8.3 3.7Z" fill="#C78989"/><path d="M576.2 456.8c1.9-4.3 3.5-10.1-.2-13.2-2-1.8-5-1.8-7.8-2-7.8-.7-15.7-4.2-19.5-11-3.8-6.8-1.7-16.9 5.5-20 4.8-2 10.3-.6 15.3.9l15.1 4.2c4.5 1.3 9.3 2.7 12.5 6 5.1 5.5 4.8 14.5.7 20.7a37 37 0 0 1-17.4 15.1l-4.2-.7Z" fill="#2F2E41"/><path d="M784.8 738h-620a1 1 0 0 1-1-1 1 1 0 0 1 .6-1h620.4a1 1 0 0 1 1 .6 1 1 0 0 1-.3 1.1 1 1 0 0 1-.7.3Z" fill="#3F3D56"/><defs><linearGradient id="a" x1="383.4" y1="221.4" x2="798.1" y2="939.6" gradientUnits="userSpaceOnUse"><stop stop-color="#EDDCDC"/><stop offset=".6" stop-color="#D5CFDC" stop-opacity=".4"/><stop offset="1" stop-color="#C6C7DC" stop-opacity="0"/></linearGradient></defs></svg>