<svg width="947" height="866" viewBox="0 0 947 866" fill="none" xmlns="http://www.w3.org/2000/svg">
<path fill-rule="evenodd" clip-rule="evenodd" d="M433.243 11.0197C547.193 -6.2658 687.196 -11.2108 767.635 57.3866C848.278 126.159 780.867 242.642 812.617 334.549C842.397 420.754 960.573 484.104 945.714 572.885C930.464 664.001 830.263 728.964 737.923 780.843C647.687 831.54 539.234 882.684 433.243 860.802C330.702 839.634 300.628 733.072 222.549 674.447C157.456 625.572 51.0908 613.927 15.9209 547.457C-20.1115 479.357 12.3746 401.549 40.866 331.074C69.1745 261.052 114.174 198.81 177.878 146.849C251.66 86.6657 331.053 26.5213 433.243 11.0197Z" fill="url(#paint0_linear_203_16)"/>
<g clip-path="url(#clip0_203_16)">
<path d="M763 393C763.101 461.219 738.97 527.257 694.91 579.34C693.31 581.24 691.68 583.11 690.02 584.97C670.485 606.94 647.729 625.818 622.53 640.96C616.75 644.43 610.843 647.7 604.81 650.77C604.2 651.08 603.58 651.39 602.97 651.69C602.24 652.06 601.5 652.42 600.76 652.78C585.493 660.253 569.59 666.35 553.24 671C551.54 671.48 549.837 671.947 548.13 672.4C526.623 678.091 504.529 681.275 482.29 681.89C481.13 681.92 479.99 681.94 478.89 681.96C478.5 681.97 478.12 681.98 477.74 681.98C476.49 681.99 475.25 682 474 682C450.564 682.017 427.213 679.187 404.46 673.57C402.18 673.01 399.91 672.42 397.65 671.8C385.746 668.55 374.064 664.532 362.68 659.77C356.68 657.27 350.787 654.573 345 651.68C343.69 651.02 342.38 650.36 341.09 649.68C340.54 649.41 340 649.12 339.46 648.84C308.618 632.562 280.96 610.862 257.81 584.78C256.21 582.99 254.64 581.17 253.09 579.34C227.583 549.097 208.556 513.94 197.188 476.045C185.82 438.15 182.353 398.325 187.002 359.036C191.651 319.747 204.317 281.831 224.215 247.636C244.113 213.441 270.819 183.695 302.68 160.24C304.32 159.03 305.97 157.83 307.64 156.66C307.97 156.43 308.3 156.2 308.63 155.97C337.973 135.416 370.908 120.543 405.73 112.12C407.71 111.63 409.69 111.17 411.69 110.74C449.407 102.49 488.387 101.806 526.37 108.73C528.36 109.1 530.35 109.48 532.33 109.89C566.841 116.969 599.755 130.334 629.43 149.32C630.09 149.74 630.75 150.16 631.41 150.6C632.74 151.46 634.07 152.34 635.38 153.23C674.691 179.658 706.894 215.354 729.151 257.168C751.407 298.983 763.032 345.631 763 393V393Z" fill="#F2F2F2"/>
<path d="M401 542.51L308.63 550.71L307.64 550.8V156.66C307.97 156.43 308.3 156.2 308.63 155.97C327.881 142.505 348.705 131.443 370.64 123.03L375.36 188.13L375.79 194.09L380.46 258.65L381.9 278.51L400.83 540.21L401 542.51Z" fill="#CCCCCC"/>
<path d="M629.43 149.32C630.09 149.74 630.75 150.16 631.41 150.6V550.8L629.43 550.62L538.06 542.51L538.23 540.21L557.16 278.51L558.6 258.65L563.27 194.09L563.7 188.13L568.65 119.86C589.997 127.259 610.397 137.148 629.43 149.32V149.32Z" fill="#CCCCCC"/>
<path d="M629.43 149.32V556.26C629.43 564.07 624.05 570.42 617.43 570.42H320.63C315.15 570.42 310.5 566.06 309.09 560.11C308.782 558.85 308.628 557.557 308.63 556.26V155.97C308.3 156.2 307.97 156.43 307.64 156.66C305.97 157.83 304.32 159.03 302.68 160.24V556.26C302.591 562.192 304.807 567.928 308.86 572.26C310.985 574.487 313.674 576.097 316.64 576.92C317.94 577.274 319.282 577.452 320.63 577.45H617.43C618.781 577.451 620.126 577.273 621.43 576.92C629.41 574.77 635.38 566.33 635.38 556.26V153.23C634.07 152.34 632.74 151.46 631.41 150.6C630.75 150.16 630.09 149.74 629.43 149.32Z" fill="#CCCCCC"/>
<path d="M632.408 188.134H305.655V194.093H632.408V188.134Z" fill="#CCCCCC"/>
<path d="M405.73 112.12C407.71 111.63 409.69 111.17 411.69 110.74V272.55H405.73V112.12Z" fill="#CCCCCC"/>
<path d="M526.37 108.73C528.36 109.1 530.35 109.48 532.33 109.89V272.55H526.37V108.73Z" fill="#CCCCCC"/>
<path d="M669.65 540.21H278.34C271.227 540.21 264.405 543.036 259.375 548.065C254.346 553.095 251.52 559.917 251.52 567.03C251.52 574.143 254.346 580.965 259.375 585.995C264.405 591.024 271.227 593.85 278.34 593.85H669.65C673.459 593.851 677.224 593.039 680.694 591.467C684.163 589.896 687.258 587.603 689.77 584.74C690.907 583.446 691.919 582.046 692.79 580.56C693.465 579.42 694.05 578.23 694.54 577C696.174 572.931 696.784 568.524 696.318 564.164C695.852 559.804 694.324 555.626 691.867 551.994C689.41 548.363 686.1 545.389 682.226 543.335C678.353 541.28 674.035 540.207 669.65 540.21V540.21Z" fill="#CCCCCC"/>
<path d="M632.408 258.649H307.642V278.512H632.408V258.649Z" fill="#CCCCCC"/>
<path d="M467.045 252.69H473.004C474.439 252.69 475.859 252.973 477.185 253.522C478.51 254.071 479.715 254.875 480.729 255.89C481.743 256.904 482.548 258.109 483.097 259.434C483.646 260.759 483.929 262.18 483.929 263.615V263.615H456.12C456.12 260.717 457.271 257.939 459.32 255.89C461.369 253.841 464.148 252.69 467.045 252.69H467.045Z" fill="#CCCCCC"/>
<path d="M694.91 579.34C686.223 589.634 676.826 599.307 666.79 608.29H281.21C271.173 599.307 261.777 589.634 253.09 579.34H694.91Z" fill="#3F3D56"/>
<path d="M506.28 479.07H441.36C441.01 479.066 440.662 479.12 440.33 479.23C439.625 479.448 439.009 479.886 438.571 480.48C438.134 481.074 437.899 481.792 437.9 482.53V585.09H509.75V482.53C509.749 482.075 509.659 481.624 509.485 481.204C509.31 480.784 509.054 480.402 508.732 480.081C508.41 479.759 508.027 479.505 507.607 479.331C507.186 479.158 506.735 479.069 506.28 479.07ZM481.71 529.67C481.712 531.334 481.164 532.951 480.15 534.27C479.182 535.55 477.838 536.494 476.305 536.969C474.773 537.445 473.13 537.427 471.608 536.919C470.086 536.411 468.762 535.438 467.822 534.138C466.882 532.837 466.374 531.274 466.37 529.67V517.77C466.389 515.748 467.205 513.815 468.641 512.392C470.078 510.969 472.018 510.171 474.04 510.171C476.062 510.171 478.002 510.969 479.438 512.392C480.875 513.815 481.691 515.748 481.71 517.77V529.67Z" fill="#2F2E41"/>
<path d="M437.68 581.81V591.7C437.68 592.213 437.883 592.705 438.245 593.068C438.606 593.432 439.097 593.638 439.61 593.64H508.04C508.552 593.636 509.042 593.43 509.404 593.067C509.765 592.703 509.969 592.212 509.97 591.7V581.81H437.68Z" fill="#3F3D56"/>
<path d="M613.78 319.02H336.28C333.895 319.023 331.61 319.971 329.923 321.656C328.236 323.341 327.285 325.626 327.28 328.01V515.27C327.282 517.656 328.23 519.945 329.918 521.632C331.605 523.319 333.893 524.268 336.28 524.27H613.78C616.166 524.268 618.454 523.319 620.142 521.632C621.829 519.945 622.778 517.656 622.78 515.27V328.01C622.774 325.626 621.824 323.341 620.137 321.656C618.45 319.971 616.164 319.023 613.78 319.02V319.02Z" fill="#3F3D56"/>
<path d="M611.46 325.52H338.59C337.313 325.523 336.09 326.032 335.188 326.935C334.286 327.839 333.78 329.063 333.78 330.34V512.96C333.782 514.235 334.289 515.457 335.191 516.359C336.093 517.26 337.315 517.768 338.59 517.77H611.46C612.735 517.768 613.957 517.26 614.859 516.359C615.76 515.457 616.268 514.235 616.27 512.96V330.34C616.27 329.063 615.763 327.839 614.861 326.935C613.96 326.032 612.736 325.523 611.46 325.52V325.52Z" fill="#C78989"/>
<path d="M561.24 593.48L558.72 581.51C558.615 581.022 558.391 580.568 558.066 580.189C557.741 579.81 557.326 579.518 556.86 579.34C556.522 579.208 556.163 579.14 555.8 579.14H398.49C398.127 579.14 397.768 579.208 397.43 579.34C396.963 579.518 396.549 579.81 396.224 580.189C395.899 580.568 395.674 581.022 395.57 581.51L393.05 593.48C392.959 593.915 392.966 594.364 393.07 594.796C393.175 595.227 393.374 595.63 393.654 595.975C393.933 596.319 394.286 596.598 394.687 596.789C395.088 596.98 395.526 597.08 395.97 597.08H558.31C558.755 597.082 559.195 596.984 559.597 596.791C559.999 596.599 560.352 596.318 560.63 595.97C560.91 595.626 561.11 595.225 561.216 594.794C561.321 594.363 561.33 593.914 561.24 593.48V593.48Z" fill="#2F2E41"/>
<path d="M404.155 581.296H400.131C399.862 581.296 399.643 581.514 399.643 581.784V583.808C399.643 584.077 399.862 584.296 400.131 584.296H404.155C404.424 584.296 404.643 584.077 404.643 583.808V581.784C404.643 581.514 404.424 581.296 404.155 581.296Z" fill="#3F3D56"/>
<path d="M414.155 581.296H410.131C409.862 581.296 409.643 581.514 409.643 581.784V583.808C409.643 584.077 409.862 584.296 410.131 584.296H414.155C414.424 584.296 414.643 584.077 414.643 583.808V581.784C414.643 581.514 414.424 581.296 414.155 581.296Z" fill="#3F3D56"/>
<path d="M424.155 581.296H420.131C419.862 581.296 419.643 581.514 419.643 581.784V583.808C419.643 584.077 419.862 584.296 420.131 584.296H424.155C424.424 584.296 424.643 584.077 424.643 583.808V581.784C424.643 581.514 424.424 581.296 424.155 581.296Z" fill="#3F3D56"/>
<path d="M434.155 581.296H430.131C429.862 581.296 429.643 581.514 429.643 581.784V583.808C429.643 584.077 429.862 584.296 430.131 584.296H434.155C434.424 584.296 434.643 584.077 434.643 583.808V581.784C434.643 581.514 434.424 581.296 434.155 581.296Z" fill="#3F3D56"/>
<path d="M444.155 581.296H440.131C439.862 581.296 439.643 581.514 439.643 581.784V583.808C439.643 584.077 439.862 584.296 440.131 584.296H444.155C444.424 584.296 444.643 584.077 444.643 583.808V581.784C444.643 581.514 444.424 581.296 444.155 581.296Z" fill="#3F3D56"/>
<path d="M454.155 581.296H450.131C449.862 581.296 449.643 581.514 449.643 581.784V583.808C449.643 584.077 449.862 584.296 450.131 584.296H454.155C454.424 584.296 454.643 584.077 454.643 583.808V581.784C454.643 581.514 454.424 581.296 454.155 581.296Z" fill="#3F3D56"/>
<path d="M464.155 581.296H460.131C459.862 581.296 459.643 581.514 459.643 581.784V583.808C459.643 584.077 459.862 584.296 460.131 584.296H464.155C464.424 584.296 464.643 584.077 464.643 583.808V581.784C464.643 581.514 464.424 581.296 464.155 581.296Z" fill="#3F3D56"/>
<path d="M474.155 581.296H470.131C469.862 581.296 469.643 581.514 469.643 581.784V583.808C469.643 584.077 469.862 584.296 470.131 584.296H474.155C474.424 584.296 474.643 584.077 474.643 583.808V581.784C474.643 581.514 474.424 581.296 474.155 581.296Z" fill="#3F3D56"/>
<path d="M484.155 581.296H480.131C479.862 581.296 479.643 581.514 479.643 581.784V583.808C479.643 584.077 479.862 584.296 480.131 584.296H484.155C484.424 584.296 484.643 584.077 484.643 583.808V581.784C484.643 581.514 484.424 581.296 484.155 581.296Z" fill="#3F3D56"/>
<path d="M494.155 581.296H490.131C489.862 581.296 489.643 581.514 489.643 581.784V583.808C489.643 584.077 489.862 584.296 490.131 584.296H494.155C494.424 584.296 494.643 584.077 494.643 583.808V581.784C494.643 581.514 494.424 581.296 494.155 581.296Z" fill="#3F3D56"/>
<path d="M504.155 581.296H500.131C499.862 581.296 499.643 581.514 499.643 581.784V583.808C499.643 584.077 499.862 584.296 500.131 584.296H504.155C504.424 584.296 504.643 584.077 504.643 583.808V581.784C504.643 581.514 504.424 581.296 504.155 581.296Z" fill="#3F3D56"/>
<path d="M514.155 581.296H510.131C509.862 581.296 509.643 581.514 509.643 581.784V583.808C509.643 584.077 509.862 584.296 510.131 584.296H514.155C514.424 584.296 514.643 584.077 514.643 583.808V581.784C514.643 581.514 514.424 581.296 514.155 581.296Z" fill="#3F3D56"/>
<path d="M524.155 581.296H520.131C519.862 581.296 519.643 581.514 519.643 581.784V583.808C519.643 584.077 519.862 584.296 520.131 584.296H524.155C524.424 584.296 524.643 584.077 524.643 583.808V581.784C524.643 581.514 524.424 581.296 524.155 581.296Z" fill="#3F3D56"/>
<path d="M534.155 581.296H530.131C529.862 581.296 529.643 581.514 529.643 581.784V583.808C529.643 584.077 529.862 584.296 530.131 584.296H534.155C534.424 584.296 534.643 584.077 534.643 583.808V581.784C534.643 581.514 534.424 581.296 534.155 581.296Z" fill="#3F3D56"/>
<path d="M544.155 581.296H540.131C539.862 581.296 539.643 581.514 539.643 581.784V583.808C539.643 584.077 539.862 584.296 540.131 584.296H544.155C544.424 584.296 544.643 584.077 544.643 583.808V581.784C544.643 581.514 544.424 581.296 544.155 581.296Z" fill="#3F3D56"/>
<path d="M554.155 581.296H550.131C549.862 581.296 549.643 581.514 549.643 581.784V583.808C549.643 584.077 549.862 584.296 550.131 584.296H554.155C554.424 584.296 554.643 584.077 554.643 583.808V581.784C554.643 581.514 554.424 581.296 554.155 581.296Z" fill="#3F3D56"/>
<path d="M404.037 586.296H400.013C399.743 586.296 399.525 586.514 399.525 586.784V588.808C399.525 589.077 399.743 589.296 400.013 589.296H404.037C404.306 589.296 404.525 589.077 404.525 588.808V586.784C404.525 586.514 404.306 586.296 404.037 586.296Z" fill="#3F3D56"/>
<path d="M414.037 586.296H410.013C409.743 586.296 409.525 586.514 409.525 586.784V588.808C409.525 589.077 409.743 589.296 410.013 589.296H414.037C414.306 589.296 414.525 589.077 414.525 588.808V586.784C414.525 586.514 414.306 586.296 414.037 586.296Z" fill="#3F3D56"/>
<path d="M424.037 586.296H420.013C419.743 586.296 419.525 586.514 419.525 586.784V588.808C419.525 589.077 419.743 589.296 420.013 589.296H424.037C424.306 589.296 424.525 589.077 424.525 588.808V586.784C424.525 586.514 424.306 586.296 424.037 586.296Z" fill="#3F3D56"/>
<path d="M434.037 586.296H430.013C429.743 586.296 429.525 586.514 429.525 586.784V588.808C429.525 589.077 429.743 589.296 430.013 589.296H434.037C434.306 589.296 434.525 589.077 434.525 588.808V586.784C434.525 586.514 434.306 586.296 434.037 586.296Z" fill="#3F3D56"/>
<path d="M444.037 586.296H440.013C439.743 586.296 439.525 586.514 439.525 586.784V588.808C439.525 589.077 439.743 589.296 440.013 589.296H444.037C444.306 589.296 444.525 589.077 444.525 588.808V586.784C444.525 586.514 444.306 586.296 444.037 586.296Z" fill="#3F3D56"/>
<path d="M454.037 586.296H450.013C449.743 586.296 449.525 586.514 449.525 586.784V588.808C449.525 589.077 449.743 589.296 450.013 589.296H454.037C454.306 589.296 454.525 589.077 454.525 588.808V586.784C454.525 586.514 454.306 586.296 454.037 586.296Z" fill="#3F3D56"/>
<path d="M464.037 586.296H460.013C459.743 586.296 459.525 586.514 459.525 586.784V588.808C459.525 589.077 459.743 589.296 460.013 589.296H464.037C464.306 589.296 464.525 589.077 464.525 588.808V586.784C464.525 586.514 464.306 586.296 464.037 586.296Z" fill="#3F3D56"/>
<path d="M474.037 586.296H470.013C469.743 586.296 469.525 586.514 469.525 586.784V588.808C469.525 589.077 469.743 589.296 470.013 589.296H474.037C474.306 589.296 474.525 589.077 474.525 588.808V586.784C474.525 586.514 474.306 586.296 474.037 586.296Z" fill="#3F3D56"/>
<path d="M484.037 586.296H480.013C479.743 586.296 479.525 586.514 479.525 586.784V588.808C479.525 589.077 479.743 589.296 480.013 589.296H484.037C484.306 589.296 484.525 589.077 484.525 588.808V586.784C484.525 586.514 484.306 586.296 484.037 586.296Z" fill="#3F3D56"/>
<path d="M494.037 586.296H490.013C489.743 586.296 489.525 586.514 489.525 586.784V588.808C489.525 589.077 489.743 589.296 490.013 589.296H494.037C494.306 589.296 494.525 589.077 494.525 588.808V586.784C494.525 586.514 494.306 586.296 494.037 586.296Z" fill="#3F3D56"/>
<path d="M504.037 586.296H500.013C499.743 586.296 499.525 586.514 499.525 586.784V588.808C499.525 589.077 499.743 589.296 500.013 589.296H504.037C504.306 589.296 504.525 589.077 504.525 588.808V586.784C504.525 586.514 504.306 586.296 504.037 586.296Z" fill="#3F3D56"/>
<path d="M514.037 586.296H510.013C509.743 586.296 509.525 586.514 509.525 586.784V588.808C509.525 589.077 509.743 589.296 510.013 589.296H514.037C514.306 589.296 514.525 589.077 514.525 588.808V586.784C514.525 586.514 514.306 586.296 514.037 586.296Z" fill="#3F3D56"/>
<path d="M524.037 586.296H520.013C519.743 586.296 519.525 586.514 519.525 586.784V588.808C519.525 589.077 519.743 589.296 520.013 589.296H524.037C524.306 589.296 524.525 589.077 524.525 588.808V586.784C524.525 586.514 524.306 586.296 524.037 586.296Z" fill="#3F3D56"/>
<path d="M534.037 586.296H530.013C529.743 586.296 529.525 586.514 529.525 586.784V588.808C529.525 589.077 529.743 589.296 530.013 589.296H534.037C534.306 589.296 534.525 589.077 534.525 588.808V586.784C534.525 586.514 534.306 586.296 534.037 586.296Z" fill="#3F3D56"/>
<path d="M544.037 586.296H540.013C539.743 586.296 539.525 586.514 539.525 586.784V588.808C539.525 589.077 539.743 589.296 540.013 589.296H544.037C544.306 589.296 544.525 589.077 544.525 588.808V586.784C544.525 586.514 544.306 586.296 544.037 586.296Z" fill="#3F3D56"/>
<path d="M554.037 586.296H550.013C549.743 586.296 549.525 586.514 549.525 586.784V588.808C549.525 589.077 549.743 589.296 550.013 589.296H554.037C554.306 589.296 554.525 589.077 554.525 588.808V586.784C554.525 586.514 554.306 586.296 554.037 586.296Z" fill="#3F3D56"/>
<path d="M487.037 592.296H448.013C447.743 592.296 447.525 592.514 447.525 592.784V594.808C447.525 595.077 447.743 595.296 448.013 595.296H487.037C487.306 595.296 487.525 595.077 487.525 594.808V592.784C487.525 592.514 487.306 592.296 487.037 592.296Z" fill="#3F3D56"/>
<path d="M597.748 350.677H342.425C342.16 350.671 341.907 350.561 341.721 350.372C341.536 350.182 341.432 349.927 341.432 349.661C341.432 349.396 341.536 349.141 341.721 348.951C341.907 348.761 342.16 348.652 342.425 348.646H597.748C598.014 348.652 598.266 348.761 598.452 348.951C598.638 349.141 598.742 349.396 598.742 349.661C598.742 349.927 598.638 350.182 598.452 350.372C598.266 350.561 598.014 350.671 597.748 350.677V350.677Z" fill="#3F3D56"/>
<path d="M359.805 343.462C363.091 343.462 365.755 340.738 365.755 337.379C365.755 334.019 363.091 331.296 359.805 331.296C356.519 331.296 353.854 334.019 353.854 337.379C353.854 340.738 356.519 343.462 359.805 343.462Z" fill="#3F3D56"/>
<path d="M380.361 343.462C383.647 343.462 386.312 340.738 386.312 337.379C386.312 334.019 383.647 331.296 380.361 331.296C377.075 331.296 374.411 334.019 374.411 337.379C374.411 340.738 377.075 343.462 380.361 343.462Z" fill="#3F3D56"/>
<path d="M400.917 343.462C404.204 343.462 406.868 340.738 406.868 337.379C406.868 334.019 404.204 331.296 400.917 331.296C397.631 331.296 394.967 334.019 394.967 337.379C394.967 340.738 397.631 343.462 400.917 343.462Z" fill="#3F3D56"/>
<path d="M585.37 332.8H570.77C570.481 332.807 570.207 332.926 570.005 333.133C569.803 333.339 569.69 333.616 569.69 333.905C569.69 334.194 569.803 334.471 570.005 334.677C570.207 334.884 570.481 335.003 570.77 335.01H585.37C585.66 335.006 585.937 334.888 586.141 334.681C586.345 334.474 586.46 334.195 586.46 333.905C586.46 333.615 586.345 333.336 586.141 333.129C585.937 332.922 585.66 332.804 585.37 332.8Z" fill="#3F3D56"/>
<path d="M585.37 336.95H570.77C570.481 336.956 570.206 337.076 570.004 337.282C569.802 337.489 569.689 337.766 569.689 338.055C569.689 338.344 569.802 338.621 570.004 338.828C570.206 339.034 570.481 339.154 570.77 339.16H585.37C585.661 339.156 585.938 339.038 586.143 338.832C586.347 338.625 586.462 338.346 586.462 338.055C586.462 337.764 586.347 337.485 586.143 337.278C585.938 337.071 585.661 336.953 585.37 336.95V336.95Z" fill="#3F3D56"/>
<path d="M585.37 341.1H570.77C570.481 341.107 570.207 341.226 570.005 341.433C569.803 341.639 569.69 341.916 569.69 342.205C569.69 342.494 569.803 342.771 570.005 342.978C570.207 343.184 570.481 343.303 570.77 343.31H585.37C585.66 343.306 585.937 343.188 586.141 342.981C586.345 342.774 586.46 342.495 586.46 342.205C586.46 341.915 586.345 341.636 586.141 341.429C585.937 341.222 585.66 341.104 585.37 341.1V341.1Z" fill="#3F3D56"/>
<path d="M364.44 374.273H359.194C357.603 374.273 356.314 375.563 356.314 377.153C356.314 378.744 357.603 380.033 359.194 380.033H364.44C366.031 380.033 367.32 378.744 367.32 377.153C367.32 375.563 366.031 374.273 364.44 374.273Z" fill="#E6E6E6"/>
<path d="M424.44 374.273H419.194C417.603 374.273 416.314 375.563 416.314 377.153C416.314 378.744 417.603 380.033 419.194 380.033H424.44C426.031 380.033 427.32 378.744 427.32 377.153C427.32 375.563 426.031 374.273 424.44 374.273Z" fill="#E6E6E6"/>
<path d="M441.44 374.273H436.194C434.603 374.273 433.314 375.563 433.314 377.153C433.314 378.744 434.603 380.033 436.194 380.033H441.44C443.031 380.033 444.32 378.744 444.32 377.153C444.32 375.563 443.031 374.273 441.44 374.273Z" fill="#E6E6E6"/>
<path d="M408.12 373.793H375.514C373.924 373.793 372.634 375.083 372.634 376.673C372.634 378.264 373.924 379.553 375.514 379.553H408.12C409.711 379.553 411 378.264 411 376.673C411 375.083 409.711 373.793 408.12 373.793Z" fill="#E6E6E6"/>
<path d="M488.12 373.793H455.514C453.924 373.793 452.634 375.083 452.634 376.673C452.634 378.264 453.924 379.553 455.514 379.553H488.12C489.711 379.553 491 378.264 491 376.673C491 375.083 489.711 373.793 488.12 373.793Z" fill="#E6E6E6"/>
<path d="M380.44 387.273H375.194C373.603 387.273 372.314 388.563 372.314 390.153C372.314 391.744 373.603 393.033 375.194 393.033H380.44C382.031 393.033 383.32 391.744 383.32 390.153C383.32 388.563 382.031 387.273 380.44 387.273Z" fill="#E6E6E6"/>
<path d="M440.44 387.273H435.194C433.603 387.273 432.314 388.563 432.314 390.153C432.314 391.744 433.603 393.033 435.194 393.033H440.44C442.031 393.033 443.32 391.744 443.32 390.153C443.32 388.563 442.031 387.273 440.44 387.273Z" fill="#E6E6E6"/>
<path d="M457.44 387.273H452.194C450.603 387.273 449.314 388.563 449.314 390.153C449.314 391.744 450.603 393.033 452.194 393.033H457.44C459.031 393.033 460.32 391.744 460.32 390.153C460.32 388.563 459.031 387.273 457.44 387.273Z" fill="#E6E6E6"/>
<path d="M424.12 386.793H391.514C389.924 386.793 388.634 388.083 388.634 389.673C388.634 391.264 389.924 392.553 391.514 392.553H424.12C425.711 392.553 427 391.264 427 389.673C427 388.083 425.711 386.793 424.12 386.793Z" fill="#E6E6E6"/>
<path d="M504.12 386.793H471.514C469.924 386.793 468.634 388.083 468.634 389.673C468.634 391.264 469.924 392.553 471.514 392.553H504.12C505.711 392.553 507 391.264 507 389.673C507 388.083 505.711 386.793 504.12 386.793Z" fill="#E6E6E6"/>
<path d="M396.44 400.273H391.194C389.603 400.273 388.314 401.563 388.314 403.153C388.314 404.744 389.603 406.033 391.194 406.033H396.44C398.031 406.033 399.32 404.744 399.32 403.153C399.32 401.563 398.031 400.273 396.44 400.273Z" fill="#E6E6E6"/>
<path d="M456.44 400.273H451.194C449.603 400.273 448.314 401.563 448.314 403.153C448.314 404.744 449.603 406.033 451.194 406.033H456.44C458.031 406.033 459.32 404.744 459.32 403.153C459.32 401.563 458.031 400.273 456.44 400.273Z" fill="#E6E6E6"/>
<path d="M473.44 400.273H468.194C466.603 400.273 465.314 401.563 465.314 403.153C465.314 404.744 466.603 406.033 468.194 406.033H473.44C475.031 406.033 476.32 404.744 476.32 403.153C476.32 401.563 475.031 400.273 473.44 400.273Z" fill="#E6E6E6"/>
<path d="M440.12 399.793H407.514C405.924 399.793 404.634 401.083 404.634 402.673C404.634 404.264 405.924 405.553 407.514 405.553H440.12C441.711 405.553 443 404.264 443 402.673C443 401.083 441.711 399.793 440.12 399.793Z" fill="#E6E6E6"/>
<path d="M520.12 399.793H487.514C485.924 399.793 484.634 401.083 484.634 402.673C484.634 404.264 485.924 405.553 487.514 405.553H520.12C521.711 405.553 523 404.264 523 402.673C523 401.083 521.711 399.793 520.12 399.793Z" fill="#E6E6E6"/>
<path d="M412.44 413.273H407.194C405.603 413.273 404.314 414.563 404.314 416.153C404.314 417.744 405.603 419.033 407.194 419.033H412.44C414.031 419.033 415.32 417.744 415.32 416.153C415.32 414.563 414.031 413.273 412.44 413.273Z" fill="#E6E6E6"/>
<path d="M472.44 413.273H467.194C465.603 413.273 464.314 414.563 464.314 416.153C464.314 417.744 465.603 419.033 467.194 419.033H472.44C474.031 419.033 475.32 417.744 475.32 416.153C475.32 414.563 474.031 413.273 472.44 413.273Z" fill="#E6E6E6"/>
<path d="M489.44 413.273H484.194C482.603 413.273 481.314 414.563 481.314 416.153C481.314 417.744 482.603 419.033 484.194 419.033H489.44C491.031 419.033 492.32 417.744 492.32 416.153C492.32 414.563 491.031 413.273 489.44 413.273Z" fill="#E6E6E6"/>
<path d="M456.12 412.793H423.514C421.924 412.793 420.634 414.083 420.634 415.673C420.634 417.264 421.924 418.553 423.514 418.553H456.12C457.711 418.553 459 417.264 459 415.673C459 414.083 457.711 412.793 456.12 412.793Z" fill="#E6E6E6"/>
<path d="M424.44 464.967H419.194C417.603 464.967 416.314 466.256 416.314 467.847C416.314 469.437 417.603 470.727 419.194 470.727H424.44C426.031 470.727 427.32 469.437 427.32 467.847C427.32 466.256 426.031 464.967 424.44 464.967Z" fill="#E6E6E6"/>
<path d="M441.44 464.967H436.194C434.603 464.967 433.314 466.256 433.314 467.847C433.314 469.437 434.603 470.727 436.194 470.727H441.44C443.031 470.727 444.32 469.437 444.32 467.847C444.32 466.256 443.031 464.967 441.44 464.967Z" fill="#E6E6E6"/>
<path d="M488.12 465.447H455.514C453.924 465.447 452.634 466.736 452.634 468.327C452.634 469.918 453.924 471.207 455.514 471.207H488.12C489.711 471.207 491 469.918 491 468.327C491 466.736 489.711 465.447 488.12 465.447Z" fill="#E6E6E6"/>
<path d="M364.44 464.967H359.194C357.603 464.967 356.314 466.256 356.314 467.847C356.314 469.437 357.603 470.727 359.194 470.727H364.44C366.031 470.727 367.32 469.437 367.32 467.847C367.32 466.256 366.031 464.967 364.44 464.967Z" fill="#E6E6E6"/>
<path d="M408.12 465.447H375.514C373.924 465.447 372.634 466.736 372.634 468.327C372.634 469.918 373.924 471.207 375.514 471.207H408.12C409.711 471.207 411 469.918 411 468.327C411 466.736 409.711 465.447 408.12 465.447Z" fill="#E6E6E6"/>
<path d="M380.44 451.967H375.194C373.603 451.967 372.314 453.256 372.314 454.847C372.314 456.437 373.603 457.727 375.194 457.727H380.44C382.031 457.727 383.32 456.437 383.32 454.847C383.32 453.256 382.031 451.967 380.44 451.967Z" fill="#E6E6E6"/>
<path d="M440.44 451.967H435.194C433.603 451.967 432.314 453.256 432.314 454.847C432.314 456.437 433.603 457.727 435.194 457.727H440.44C442.031 457.727 443.32 456.437 443.32 454.847C443.32 453.256 442.031 451.967 440.44 451.967Z" fill="#E6E6E6"/>
<path d="M457.44 451.967H452.194C450.603 451.967 449.314 453.256 449.314 454.847C449.314 456.437 450.603 457.727 452.194 457.727H457.44C459.031 457.727 460.32 456.437 460.32 454.847C460.32 453.256 459.031 451.967 457.44 451.967Z" fill="#E6E6E6"/>
<path d="M424.12 452.447H391.514C389.924 452.447 388.634 453.736 388.634 455.327C388.634 456.918 389.924 458.207 391.514 458.207H424.12C425.711 458.207 427 456.918 427 455.327C427 453.736 425.711 452.447 424.12 452.447Z" fill="#E6E6E6"/>
<path d="M396.44 438.967H391.194C389.603 438.967 388.314 440.256 388.314 441.847C388.314 443.437 389.603 444.727 391.194 444.727H396.44C398.031 444.727 399.32 443.437 399.32 441.847C399.32 440.256 398.031 438.967 396.44 438.967Z" fill="#E6E6E6"/>
<path d="M456.44 438.967H451.194C449.603 438.967 448.314 440.256 448.314 441.847C448.314 443.437 449.603 444.727 451.194 444.727H456.44C458.031 444.727 459.32 443.437 459.32 441.847C459.32 440.256 458.031 438.967 456.44 438.967Z" fill="#E6E6E6"/>
<path d="M473.44 438.967H468.194C466.603 438.967 465.314 440.256 465.314 441.847C465.314 443.437 466.603 444.727 468.194 444.727H473.44C475.031 444.727 476.32 443.437 476.32 441.847C476.32 440.256 475.031 438.967 473.44 438.967Z" fill="#E6E6E6"/>
<path d="M440.12 439.447H407.514C405.924 439.447 404.634 440.736 404.634 442.327C404.634 443.918 405.924 445.207 407.514 445.207H440.12C441.711 445.207 443 443.918 443 442.327C443 440.736 441.711 439.447 440.12 439.447Z" fill="#E6E6E6"/>
<path d="M412.44 425.967H407.194C405.603 425.967 404.314 427.256 404.314 428.847C404.314 430.437 405.603 431.727 407.194 431.727H412.44C414.031 431.727 415.32 430.437 415.32 428.847C415.32 427.256 414.031 425.967 412.44 425.967Z" fill="#E6E6E6"/>
<path d="M472.44 425.967H467.194C465.603 425.967 464.314 427.256 464.314 428.847C464.314 430.437 465.603 431.727 467.194 431.727H472.44C474.031 431.727 475.32 430.437 475.32 428.847C475.32 427.256 474.031 425.967 472.44 425.967Z" fill="#E6E6E6"/>
<path d="M489.44 425.967H484.194C482.603 425.967 481.314 427.256 481.314 428.847C481.314 430.437 482.603 431.727 484.194 431.727H489.44C491.031 431.727 492.32 430.437 492.32 428.847C492.32 427.256 491.031 425.967 489.44 425.967Z" fill="#E6E6E6"/>
<path d="M456.12 426.447H423.514C421.924 426.447 420.634 427.736 420.634 429.327C420.634 430.918 421.924 432.207 423.514 432.207H456.12C457.711 432.207 459 430.918 459 429.327C459 427.736 457.711 426.447 456.12 426.447Z" fill="#E6E6E6"/>
<path d="M600.81 652.77C600.2 653.08 599.58 653.39 598.97 653.69C583.17 661.59 570.53 666.08 553.24 671C551.78 654.7 550.37 626.05 549 608.29C548.64 603.68 548.28 599.81 547.93 597.08C547.842 595.629 547.545 594.197 547.05 592.83L547.11 597.08L547.26 608.29L548.13 672.4C526.623 678.091 504.529 681.275 482.29 681.89C481.13 681.92 479.99 681.94 478.89 681.96C478.5 681.97 478.12 681.98 477.74 681.98C476.49 681.99 475.25 682 474 682C450.564 682.017 427.213 679.187 404.46 673.57C404.95 657.44 405.44 629.11 405.91 608.29C406.01 604.22 406.1 600.43 406.2 597.08C406.39 589.92 406.59 584.76 406.78 583.03C406.612 583.337 406.481 583.662 406.39 584C405.464 588.312 404.832 592.682 404.5 597.08C404.15 600.43 403.8 604.22 403.45 608.29C401.59 629.92 399.65 659.33 397.65 671.8C385.746 668.55 374.064 664.532 362.68 659.77C356.68 657.27 350.787 654.573 345 651.68C346.1 644.48 347.25 636.41 348.43 628.04C349.35 621.55 350.3 614.88 351.27 608.29C352.77 598.11 354.31 588.13 355.87 579.34C358.15 566.5 360.49 556.18 362.81 551.44C365.01 546.94 367.21 542.5 369.34 538.25C370.08 536.76 370.82 535.29 371.54 533.86C371.71 533.52 371.88 533.19 372.05 532.86C373.58 529.85 375.06 526.97 376.47 524.27C377.68 521.96 378.83 519.78 379.92 517.77C382.56 512.89 384.8 509 386.46 506.54C393.4 496.013 403.732 488.176 415.74 484.33L416.04 484.25L416.25 484.34L436.7 478.06L439.69 477.14L441.7 476.52L448.78 471.13L452.63 468.2L456.24 465.45L463.3 460.08L507.01 462.77L515.52 483.26L534.58 490.23L534.91 490.08L535.2 489.96L535.5 490.04C547.506 493.889 557.837 501.726 564.78 512.25C565.72 513.66 566.86 515.52 568.15 517.77C569.25 519.68 570.45 521.86 571.75 524.27C573.6 527.7 575.62 531.57 577.76 535.76C578.23 536.68 578.71 537.62 579.19 538.57C580.08 540.33 580.983 542.127 581.9 543.96C584.03 548.21 586.23 552.65 588.43 557.16C590.34 561.07 592.27 569.11 594.17 579.34C595.74 587.84 597.3 597.86 598.81 608.29C600.79 621.81 598.68 638 600.47 650.44C600.58 651.23 600.7 652 600.81 652.77Z" fill="#3F3D56"/>
<path d="M474.615 443.725C502.691 443.725 525.452 420.964 525.452 392.888C525.452 364.812 502.691 342.052 474.615 342.052C446.539 342.052 423.779 364.812 423.779 392.888C423.779 420.964 446.539 443.725 474.615 443.725Z" fill="#FFB6B6"/>
<path d="M558.45 325.52C557.445 323.174 556.108 320.985 554.48 319.02C546.76 309.59 532.72 305.44 518.31 316.6C515.536 315.98 512.645 316.146 509.96 317.08C508.693 317.539 507.505 318.193 506.44 319.02C504.258 320.722 502.556 322.962 501.5 325.52C500.936 326.871 500.565 328.295 500.4 329.75C496.838 327.899 493.068 326.479 489.17 325.52C479.606 323.141 469.604 323.141 460.04 325.52C456.975 326.295 454.024 327.465 451.26 329C446.58 331.7 443.89 335.11 443.41 338.9C436.66 339.28 429.64 342.83 424.41 348.65C423.82 349.3 423.25 349.98 422.72 350.68C418.322 356.435 415.958 363.487 416 370.73V372H417.27C420.75 371.997 424.197 372.669 427.42 373.98C429.509 374.819 431.487 375.91 433.31 377.23C434.503 378.076 435.63 379.012 436.68 380.03C439.116 382.388 441.179 385.102 442.8 388.08C446.955 395.605 448.395 404.329 446.88 412.79C446.533 414.748 446.024 416.675 445.36 418.55C444.415 421.225 443.171 423.785 441.65 426.18C441.59 426.27 441.54 426.36 441.48 426.45C440.81 427.52 440.17 428.61 439.57 429.71C439.12 430.53 438.7 431.37 438.31 432.21C437.17 434.548 436.207 436.968 435.43 439.45C434.038 443.84 433.218 448.391 432.99 452.99C432.92 454.21 432.9 455.43 432.94 456.65C432.999 459.795 433.344 462.928 433.97 466.01C434.06 466.43 434.15 466.84 434.24 467.26L434.97 470.45L436.7 478.06L437.9 483.3L439.01 488.16L440.65 485.81C441.21 485.01 442.62 482.55 444.51 479.07C445.76 476.8 447.21 474.09 448.78 471.13C450.97 466.98 453.37 462.35 455.72 457.73C456.67 455.86 457.61 454 458.52 452.18C460.24 448.73 461.86 445.4 463.25 442.44C464.53 439.71 465.62 437.29 466.43 435.35C466.68 436.62 466.89 437.91 467.05 439.21C467.23 440.53 467.36 441.87 467.43 443.21C467.45 443.41 467.46 443.62 467.47 443.82L467.51 444.64L467.52 444.88L468.58 445.02C474.694 445.675 480.857 445.722 486.98 445.16H486.99C495.101 444.549 503.059 442.621 510.55 439.45C514.805 437.604 518.777 435.167 522.35 432.21C524.02 430.828 525.578 429.317 527.01 427.69C527.37 427.28 527.72 426.87 528.06 426.45C530.039 424.018 531.733 421.367 533.11 418.55C534.032 416.691 534.814 414.765 535.45 412.79C539.29 401.16 539.07 386.65 534.79 369.41C535.946 369.187 537.053 368.761 538.06 368.15C541.2 366.26 543.38 362.51 544.06 357.93L545.14 358.22C548.969 356.437 552.379 353.868 555.15 350.68C555.699 350.031 556.213 349.353 556.69 348.65C561.58 341.45 561.62 332.81 558.45 325.52Z" fill="#2F2E41"/>
<path opacity="0.2" d="M391.32 579.296L399.817 546.504L407.32 574.8L391.32 579.296Z" fill="black"/>
<path d="M617.43 557.93C614.39 599.81 617.54 618.25 600.76 652.78C585.492 660.253 569.59 666.35 553.24 671C551.54 671.48 549.837 671.947 548.13 672.4C526.622 678.091 504.529 681.275 482.29 681.89C481.13 681.92 479.99 681.94 478.89 681.96C478.5 681.97 478.12 681.98 477.74 681.98C476.49 681.99 475.25 682 474 682C450.564 682.017 427.213 679.187 404.46 673.57C402.18 673.01 399.91 672.42 397.65 671.8C385.745 668.55 374.064 664.532 362.68 659.77C356.68 657.27 350.787 654.573 345 651.68C343.69 651.02 342.38 650.36 341.09 649.68C334.46 638.02 330.69 623.84 330.61 606.8C335.2 577.44 607.29 532.61 617.43 557.93Z" fill="#2F2E41"/>
<path opacity="0.2" d="M617.422 565.102C617.577 562.509 617.751 559.831 617.953 557.042C607.813 531.722 335.723 576.552 331.133 605.912C331.146 608.604 331.261 611.216 331.455 613.767C342.57 584.789 601.059 542.181 617.422 565.102Z" fill="black"/>
<path d="M348.095 446.152C348.162 445.245 348.033 444.335 347.718 443.482C347.403 442.629 346.909 441.854 346.269 441.208C345.629 440.562 344.858 440.061 344.009 439.738C343.159 439.415 342.25 439.278 341.343 439.336C341.005 439.349 340.668 439.391 340.338 439.462L300.576 448.444C299.687 448.66 298.853 449.059 298.129 449.616C297.404 450.173 296.804 450.876 296.367 451.679C295.784 451.701 295.205 451.785 294.639 451.93C293.402 452.211 292.232 452.732 291.196 453.465C290.16 454.198 289.279 455.127 288.602 456.2C287.926 457.274 287.467 458.47 287.253 459.72C287.038 460.971 287.072 462.251 287.353 463.488C287.633 464.726 288.155 465.896 288.887 466.932C289.62 467.968 290.549 468.849 291.623 469.526C293.79 470.892 296.412 471.341 298.911 470.775C300.333 470.445 301.664 469.801 302.805 468.891L316.279 506.831C316.952 508.02 317.992 508.96 319.243 509.509C320.494 510.058 321.89 510.187 323.22 509.878L349.069 504.036C350.39 503.727 351.578 503.007 352.464 501.98C353.35 500.953 353.888 499.671 354 498.32L348.095 446.152ZM298.314 468.074C296.529 468.477 294.658 468.155 293.11 467.18C291.562 466.205 290.464 464.656 290.056 462.872C289.649 461.088 289.965 459.216 290.936 457.665C291.907 456.115 293.454 455.012 295.236 454.6C295.362 454.569 295.487 454.6 295.613 454.569C295.604 455.713 295.896 456.84 296.461 457.835L301.392 466.441C300.534 467.255 299.469 467.82 298.314 468.074Z" fill="#2F2E41"/>
<path d="M341.343 439.336C341.72 444.361 333.114 450.14 321.588 452.433C311.003 454.6 301.518 453.093 298.848 449.135C299.385 448.817 299.968 448.584 300.576 448.444L340.338 439.462C340.669 439.391 341.005 439.349 341.343 439.336V439.336Z" fill="#3F3D56"/>
<path d="M313.843 566.905L336.177 555.738L317.566 505.488L312.661 480.146C312.023 476.853 310.533 473.786 308.339 471.25C306.145 468.714 303.323 466.798 300.157 465.694C296.99 464.59 293.59 464.336 290.294 464.958C286.999 465.58 283.925 467.056 281.378 469.238V469.238C277.605 472.472 275.236 477.046 274.771 481.994C274.306 486.941 275.781 491.876 278.886 495.757L297.093 518.516L313.843 566.905Z" fill="#FFB6B6"/>
<path d="M336.177 546.433L306.399 561.322L328.997 632.131C330.62 637.216 333.529 641.795 337.443 645.424C341.356 649.054 346.141 651.611 351.333 652.847V652.847C357.735 654.372 364.457 653.817 370.523 651.265C376.589 648.712 381.685 644.294 385.071 638.65L444.995 535.936C449.242 528.858 450.553 520.401 448.648 512.37C446.743 504.338 441.773 497.371 434.8 492.954V492.954C431.049 490.579 426.841 489.02 422.448 488.379C418.056 487.738 413.577 488.029 409.304 489.233C405.031 490.437 401.06 492.527 397.649 495.368C394.237 498.208 391.462 501.735 389.504 505.719L352.928 583.656L336.177 546.433Z" fill="#3F3D56"/>
<path d="M326.967 482.441C326.912 482.441 326.857 482.432 326.804 482.414L320.303 480.176C320.224 480.149 320.154 480.103 320.097 480.042C320.041 479.981 320.001 479.907 319.981 479.826C319.96 479.746 319.96 479.661 319.981 479.581C320.001 479.5 320.041 479.426 320.097 479.365L324.933 474.1C324.977 474.052 325.031 474.012 325.09 473.984C325.15 473.956 325.214 473.94 325.28 473.938C325.346 473.935 325.411 473.945 325.473 473.967C325.535 473.99 325.592 474.024 325.64 474.069C325.689 474.113 325.728 474.167 325.756 474.226C325.783 474.286 325.799 474.351 325.802 474.416C325.804 474.482 325.794 474.548 325.771 474.61C325.749 474.671 325.714 474.728 325.669 474.776L321.35 479.478L327.13 481.469C327.241 481.507 327.336 481.584 327.397 481.686C327.457 481.787 327.48 481.907 327.46 482.024C327.441 482.141 327.38 482.247 327.29 482.323C327.2 482.399 327.085 482.441 326.967 482.441V482.441Z" fill="#C78989"/>
<path d="M335.879 480.617C335.779 480.617 335.682 480.587 335.599 480.532C335.516 480.476 335.452 480.397 335.415 480.305C335.378 480.212 335.369 480.111 335.389 480.014C335.41 479.916 335.459 479.827 335.531 479.758L339.925 475.509L334.022 473.076C333.961 473.051 333.906 473.015 333.859 472.968C333.813 472.922 333.776 472.867 333.75 472.806C333.725 472.746 333.712 472.681 333.712 472.615C333.712 472.549 333.725 472.484 333.75 472.423C333.775 472.363 333.811 472.307 333.858 472.261C333.904 472.214 333.959 472.178 334.02 472.152C334.081 472.127 334.146 472.114 334.211 472.114C334.277 472.114 334.342 472.127 334.403 472.152L341.012 474.876C341.089 474.908 341.157 474.958 341.209 475.022C341.262 475.086 341.297 475.163 341.313 475.244C341.329 475.326 341.324 475.41 341.299 475.489C341.274 475.568 341.229 475.64 341.17 475.697L336.226 480.477C336.133 480.567 336.008 480.617 335.879 480.617V480.617Z" fill="#C78989"/>
<path d="M328.332 485.5C328.282 485.5 328.232 485.493 328.185 485.478C328.122 485.458 328.064 485.427 328.013 485.385C327.962 485.343 327.92 485.292 327.89 485.234C327.859 485.176 327.84 485.112 327.834 485.047C327.828 484.981 327.834 484.915 327.854 484.853L332.468 469.853C332.508 469.726 332.596 469.621 332.713 469.559C332.83 469.497 332.967 469.485 333.093 469.524C333.22 469.563 333.326 469.65 333.388 469.767C333.45 469.884 333.463 470.021 333.425 470.148L328.81 485.148C328.778 485.25 328.715 485.339 328.629 485.402C328.543 485.466 328.439 485.5 328.332 485.5V485.5Z" fill="#C78989"/>
</g>
<defs>
<linearGradient id="paint0_linear_203_16" x1="473.5" y1="0" x2="473.5" y2="866" gradientUnits="userSpaceOnUse">
<stop stop-color="#EDDCDC"/>
<stop offset="0.636373" stop-color="#D5CFDC" stop-opacity="0.380622"/>
<stop offset="1" stop-color="#C6C7DC" stop-opacity="0"/>
</linearGradient>
<clipPath id="clip0_203_16">
<rect width="578" height="578" fill="white" transform="translate(185 104)"/>
</clipPath>
</defs>
</svg>
