<svg fill="none" xmlns="http://www.w3.org/2000/svg" viewBox="0 0 947 866"><path fill-rule="evenodd" clip-rule="evenodd" d="M433.2 11c114-17.3 254-22.2 334.4 46.4 80.7 68.8 13.3 185.2 45 277.1 29.8 86.3 148 149.6 133.1 238.4-15.2 91.1-115.4 156-207.8 208-90.2 50.6-198.7 101.8-304.7 79.9-102.5-21.2-132.6-127.7-210.7-186.4-65-48.8-171.4-60.5-206.6-127-36-68-3.5-145.9 25-216.3a455.6 455.6 0 0 1 137-184.3C251.7 86.7 331 26.5 433.2 11Z" fill="url(#a)"/><g clip-path="url(#b)"><path d="M763 393a287.9 287.9 0 0 1-140.5 248 289.5 289.5 0 0 1-19.5 10.7l-2.2 1A286.1 286.1 0 0 1 482.3 682h-4.6l-3.7.1a289.3 289.3 0 0 1-129-30.3l-4-2-1.5-.9A290.4 290.4 0 0 1 197.2 476a289 289 0 0 1 110.4-319.3l1-.7a286.8 286.8 0 0 1 103-45.3 291.8 291.8 0 0 1 120.7-.8 287.3 287.3 0 0 1 103 43.3A288.7 288.7 0 0 1 763 393Z" fill="#F2F2F2"/><path d="m401 542.5-92.4 8.2-1 .1V156.7l1-.7c19.3-13.5 40.1-24.6 62-33l4.8 65.1.4 6 4.7 64.5 1.4 20 19 261.6.1 2.3ZM629.4 149.3l2 1.3v400.2l-2-.2-91.3-8 .1-2.4 19-261.7 1.4-19.9 4.7-64.5.4-6 5-68.2a287.7 287.7 0 0 1 60.7 29.4Z" fill="#CCC"/><path d="M629.4 149.3v407c0 7.8-5.4 14.1-12 14.1H320.6c-5.5 0-10.1-4.3-11.5-10.3-.3-1.3-.5-2.5-.5-3.8V156l-1 .7-5 3.5v396a23 23 0 0 0 6.3 16 17 17 0 0 0 11.7 5.3h296.8c1.4 0 2.7-.2 4-.6 8-2.1 14-10.6 14-20.6v-403a209.7 209.7 0 0 0-6-4Z" fill="#CCC"/><path d="M632.4 188.1H305.7v6h326.7v-6Z" fill="#CCC"/><path d="m405.7 112.1 6-1.4v161.8h-6V112.2ZM526.4 108.7l6 1.2v162.7h-6V108.7ZM669.6 540.2H278.3a26.8 26.8 0 0 0 0 53.6h391.3A26.7 26.7 0 0 0 692 552a26.8 26.8 0 0 0-22.3-11.8Z" fill="#CCC"/><path d="M632.4 258.6H307.6v20h324.8v-20Z" fill="#CCC"/><path d="M467 252.7h6a11 11 0 0 1 11 11H456a11 11 0 0 1 11-11Z" fill="#CCC"/><path d="M695 579.3a289 289 0 0 1-28.2 29H281.2c-10-9-19.4-18.7-28.1-29h441.8Z" fill="#3F3D56"/><path d="M506.3 479h-65l-1 .2a3.5 3.5 0 0 0-2.4 3.3v102.6h71.9V482.5a3.5 3.5 0 0 0-2.2-3.2l-1.3-.2Zm-24.6 50.7c0 1.6-.5 3.3-1.6 4.6a7.7 7.7 0 0 1-13.7-4.6v-12a7.7 7.7 0 0 1 15.3 0v12Z" fill="#2F2E41"/><path d="M437.7 581.8v9.9a2 2 0 0 0 2 2H508a2 2 0 0 0 2-2v-9.9h-72.3ZM613.8 319H336.3a9 9 0 0 0-9 9v187.3a9 9 0 0 0 9 9h277.5a9 9 0 0 0 9-9V328a9 9 0 0 0-9-9Z" fill="#3F3D56"/><path d="M611.5 325.5h-273a4.8 4.8 0 0 0-4.7 4.8V513a4.8 4.8 0 0 0 4.8 4.8h272.9a4.8 4.8 0 0 0 4.8-4.8V330.3a4.8 4.8 0 0 0-4.8-4.8Z" fill="#C78989"/><path d="m561.2 593.5-2.5-12a3 3 0 0 0-2.9-2.4H398.5a3 3 0 0 0-3 2.4l-2.4 12a3 3 0 0 0 2.9 3.6h162.3a3 3 0 0 0 2.3-1.1 3 3 0 0 0 .6-2.5Z" fill="#2F2E41"/><path d="M404.2 581.3h-4c-.3 0-.6.2-.6.5v2c0 .3.3.5.5.5h4c.3 0 .5-.2.5-.5v-2c0-.3-.2-.5-.4-.5ZM414.2 581.3h-4c-.3 0-.6.2-.6.5v2c0 .3.3.5.5.5h4c.3 0 .5-.2.5-.5v-2c0-.3-.2-.5-.4-.5ZM424.2 581.3h-4c-.3 0-.6.2-.6.5v2c0 .3.3.5.5.5h4c.3 0 .5-.2.5-.5v-2c0-.3-.2-.5-.4-.5ZM434.2 581.3h-4c-.3 0-.6.2-.6.5v2c0 .3.3.5.5.5h4c.3 0 .5-.2.5-.5v-2c0-.3-.2-.5-.4-.5ZM444.2 581.3h-4c-.3 0-.6.2-.6.5v2c0 .3.3.5.5.5h4c.3 0 .5-.2.5-.5v-2c0-.3-.2-.5-.4-.5ZM454.2 581.3h-4c-.3 0-.6.2-.6.5v2c0 .3.3.5.5.5h4c.3 0 .5-.2.5-.5v-2c0-.3-.2-.5-.4-.5ZM464.2 581.3h-4c-.3 0-.6.2-.6.5v2c0 .3.3.5.5.5h4c.3 0 .5-.2.5-.5v-2c0-.3-.2-.5-.4-.5ZM474.2 581.3h-4c-.3 0-.6.2-.6.5v2c0 .3.3.5.5.5h4c.3 0 .5-.2.5-.5v-2c0-.3-.2-.5-.4-.5ZM484.2 581.3h-4c-.3 0-.6.2-.6.5v2c0 .3.3.5.5.5h4c.3 0 .5-.2.5-.5v-2c0-.3-.2-.5-.4-.5ZM494.2 581.3h-4c-.3 0-.6.2-.6.5v2c0 .3.3.5.5.5h4c.3 0 .5-.2.5-.5v-2c0-.3-.2-.5-.4-.5ZM504.2 581.3h-4c-.3 0-.6.2-.6.5v2c0 .3.3.5.5.5h4c.3 0 .5-.2.5-.5v-2c0-.3-.2-.5-.4-.5ZM514.2 581.3h-4c-.3 0-.6.2-.6.5v2c0 .3.3.5.5.5h4c.3 0 .5-.2.5-.5v-2c0-.3-.2-.5-.4-.5ZM524.2 581.3h-4c-.3 0-.6.2-.6.5v2c0 .3.3.5.5.5h4c.3 0 .5-.2.5-.5v-2c0-.3-.2-.5-.4-.5ZM534.2 581.3h-4c-.3 0-.6.2-.6.5v2c0 .3.3.5.5.5h4c.3 0 .5-.2.5-.5v-2c0-.3-.2-.5-.4-.5ZM544.2 581.3h-4c-.3 0-.6.2-.6.5v2c0 .3.3.5.5.5h4c.3 0 .5-.2.5-.5v-2c0-.3-.2-.5-.4-.5ZM554.2 581.3h-4c-.3 0-.6.2-.6.5v2c0 .3.3.5.5.5h4c.3 0 .5-.2.5-.5v-2c0-.3-.2-.5-.4-.5ZM404 586.3h-4c-.3 0-.5.2-.5.5v2c0 .3.2.5.5.5h4c.3 0 .5-.2.5-.5v-2c0-.3-.2-.5-.5-.5ZM414 586.3h-4c-.3 0-.5.2-.5.5v2c0 .3.2.5.5.5h4c.3 0 .5-.2.5-.5v-2c0-.3-.2-.5-.5-.5ZM424 586.3h-4c-.3 0-.5.2-.5.5v2c0 .3.2.5.5.5h4c.3 0 .5-.2.5-.5v-2c0-.3-.2-.5-.5-.5ZM434 586.3h-4c-.3 0-.5.2-.5.5v2c0 .3.2.5.5.5h4c.3 0 .5-.2.5-.5v-2c0-.3-.2-.5-.5-.5ZM444 586.3h-4c-.3 0-.5.2-.5.5v2c0 .3.2.5.5.5h4c.3 0 .5-.2.5-.5v-2c0-.3-.2-.5-.5-.5ZM454 586.3h-4c-.3 0-.5.2-.5.5v2c0 .3.2.5.5.5h4c.3 0 .5-.2.5-.5v-2c0-.3-.2-.5-.5-.5ZM464 586.3h-4c-.3 0-.5.2-.5.5v2c0 .3.2.5.5.5h4c.3 0 .5-.2.5-.5v-2c0-.3-.2-.5-.5-.5ZM474 586.3h-4c-.3 0-.5.2-.5.5v2c0 .3.2.5.5.5h4c.3 0 .5-.2.5-.5v-2c0-.3-.2-.5-.5-.5ZM484 586.3h-4c-.3 0-.5.2-.5.5v2c0 .3.2.5.5.5h4c.3 0 .5-.2.5-.5v-2c0-.3-.2-.5-.5-.5ZM494 586.3h-4c-.3 0-.5.2-.5.5v2c0 .3.2.5.5.5h4c.3 0 .5-.2.5-.5v-2c0-.3-.2-.5-.5-.5ZM504 586.3h-4c-.3 0-.5.2-.5.5v2c0 .3.2.5.5.5h4c.3 0 .5-.2.5-.5v-2c0-.3-.2-.5-.5-.5ZM514 586.3h-4c-.3 0-.5.2-.5.5v2c0 .3.2.5.5.5h4c.3 0 .5-.2.5-.5v-2c0-.3-.2-.5-.5-.5ZM524 586.3h-4c-.3 0-.5.2-.5.5v2c0 .3.2.5.5.5h4c.3 0 .5-.2.5-.5v-2c0-.3-.2-.5-.5-.5ZM534 586.3h-4c-.3 0-.5.2-.5.5v2c0 .3.2.5.5.5h4c.3 0 .5-.2.5-.5v-2c0-.3-.2-.5-.5-.5ZM544 586.3h-4c-.3 0-.5.2-.5.5v2c0 .3.2.5.5.5h4c.3 0 .5-.2.5-.5v-2c0-.3-.2-.5-.5-.5ZM554 586.3h-4c-.3 0-.5.2-.5.5v2c0 .3.2.5.5.5h4c.3 0 .5-.2.5-.5v-2c0-.3-.2-.5-.5-.5ZM487 592.3h-39c-.3 0-.5.2-.5.5v2c0 .3.2.5.5.5h39c.3 0 .5-.2.5-.5v-2c0-.3-.2-.5-.5-.5ZM597.7 350.7H342.4a1 1 0 0 1-1-1 1 1 0 0 1 1-1h255.3a1 1 0 0 1 0 2ZM359.8 343.5a6 6 0 0 0 6-6.1 6 6 0 0 0-6-6.1 6 6 0 0 0-6 6 6 6 0 0 0 6 6.2ZM380.4 343.5a6 6 0 0 0 6-6.1 6 6 0 0 0-6-6.1 6 6 0 0 0-6 6 6 6 0 0 0 6 6.2ZM401 343.5a6 6 0 0 0 5.9-6.1 6 6 0 0 0-6-6.1 6 6 0 0 0-6 6 6 6 0 0 0 6 6.2ZM585.4 332.8h-14.6a1.1 1.1 0 0 0 0 2.2h14.6a1.1 1.1 0 0 0 0-2.2ZM585.4 337h-14.6a1.1 1.1 0 0 0 0 2.2h14.6a1.1 1.1 0 0 0 1-1.1 1.1 1.1 0 0 0-1-1.2ZM585.4 341.1h-14.6a1.1 1.1 0 0 0 0 2.2h14.6a1.1 1.1 0 0 0 0-2.2Z" fill="#3F3D56"/><path d="M364.4 374.3h-5.2a2.9 2.9 0 0 0 0 5.7h5.2a2.9 2.9 0 1 0 0-5.7ZM424.4 374.3h-5.2a2.9 2.9 0 0 0 0 5.7h5.2a2.9 2.9 0 1 0 0-5.7ZM441.4 374.3h-5.2a2.9 2.9 0 0 0 0 5.7h5.2a2.9 2.9 0 1 0 0-5.7ZM408.1 373.8h-32.6a2.9 2.9 0 0 0 0 5.8h32.6a2.9 2.9 0 1 0 0-5.8ZM488.1 373.8h-32.6a2.9 2.9 0 0 0 0 5.8h32.6a2.9 2.9 0 1 0 0-5.8ZM380.4 387.3h-5.2a2.9 2.9 0 0 0 0 5.7h5.2a2.9 2.9 0 1 0 0-5.7ZM440.4 387.3h-5.2a2.9 2.9 0 0 0 0 5.7h5.2a2.9 2.9 0 1 0 0-5.7ZM457.4 387.3h-5.2a2.9 2.9 0 0 0 0 5.7h5.2a2.9 2.9 0 1 0 0-5.7ZM424.1 386.8h-32.6a2.9 2.9 0 0 0 0 5.8h32.6a2.9 2.9 0 1 0 0-5.8ZM504.1 386.8h-32.6a2.9 2.9 0 0 0 0 5.8h32.6a2.9 2.9 0 1 0 0-5.8ZM396.4 400.3h-5.2a2.9 2.9 0 0 0 0 5.7h5.2a2.9 2.9 0 1 0 0-5.7ZM456.4 400.3h-5.2a2.9 2.9 0 0 0 0 5.7h5.2a2.9 2.9 0 1 0 0-5.7ZM473.4 400.3h-5.2a2.9 2.9 0 0 0 0 5.7h5.2a2.9 2.9 0 1 0 0-5.7ZM440.1 399.8h-32.6a2.9 2.9 0 0 0 0 5.8h32.6a2.9 2.9 0 1 0 0-5.8ZM520.1 399.8h-32.6a2.9 2.9 0 0 0 0 5.8h32.6a2.9 2.9 0 1 0 0-5.8ZM412.4 413.3h-5.2a2.9 2.9 0 0 0 0 5.7h5.2a2.9 2.9 0 1 0 0-5.7ZM472.4 413.3h-5.2a2.9 2.9 0 0 0 0 5.7h5.2a2.9 2.9 0 1 0 0-5.7ZM489.4 413.3h-5.2a2.9 2.9 0 0 0 0 5.7h5.2a2.9 2.9 0 1 0 0-5.7ZM456.1 412.8h-32.6a2.9 2.9 0 0 0 0 5.8h32.6a2.9 2.9 0 1 0 0-5.8ZM424.4 465h-5.2a2.9 2.9 0 1 0 0 5.7h5.2a2.9 2.9 0 0 0 0-5.7ZM441.4 465h-5.2a2.9 2.9 0 1 0 0 5.7h5.2a2.9 2.9 0 0 0 0-5.7ZM488.1 465.4h-32.6a2.9 2.9 0 0 0 0 5.8h32.6a2.9 2.9 0 1 0 0-5.8ZM364.4 465h-5.2a2.9 2.9 0 1 0 0 5.7h5.2a2.9 2.9 0 0 0 0-5.7ZM408.1 465.4h-32.6a2.9 2.9 0 0 0 0 5.8h32.6a2.9 2.9 0 1 0 0-5.8ZM380.4 452h-5.2a2.9 2.9 0 1 0 0 5.7h5.2a2.9 2.9 0 0 0 0-5.7ZM440.4 452h-5.2a2.9 2.9 0 1 0 0 5.7h5.2a2.9 2.9 0 0 0 0-5.7ZM457.4 452h-5.2a2.9 2.9 0 1 0 0 5.7h5.2a2.9 2.9 0 0 0 0-5.7ZM424.1 452.4h-32.6a2.9 2.9 0 0 0 0 5.8h32.6a2.9 2.9 0 1 0 0-5.8ZM396.4 439h-5.2a2.9 2.9 0 1 0 0 5.7h5.2a2.9 2.9 0 0 0 0-5.7ZM456.4 439h-5.2a2.9 2.9 0 1 0 0 5.7h5.2a2.9 2.9 0 0 0 0-5.7ZM473.4 439h-5.2a2.9 2.9 0 1 0 0 5.7h5.2a2.9 2.9 0 0 0 0-5.7ZM440.1 439.4h-32.6a2.9 2.9 0 0 0 0 5.8h32.6a2.9 2.9 0 1 0 0-5.8ZM412.4 426h-5.2a2.9 2.9 0 1 0 0 5.7h5.2a2.9 2.9 0 0 0 0-5.7ZM472.4 426h-5.2a2.9 2.9 0 1 0 0 5.7h5.2a2.9 2.9 0 0 0 0-5.7ZM489.4 426h-5.2a2.9 2.9 0 1 0 0 5.7h5.2a2.9 2.9 0 0 0 0-5.7ZM456.1 426.4h-32.6a2.9 2.9 0 0 0 0 5.8h32.6a2.9 2.9 0 1 0 0-5.8Z" fill="#E6E6E6"/><path d="m600.8 652.8-1.8.9a241 241 0 0 1-45.8 17.3c-1.4-16.3-2.8-45-4.2-62.7l-1-11.2c-.2-1.5-.5-2.9-1-4.3l.1 4.3.2 11.2.8 64.1a288.6 288.6 0 0 1-65.8 9.5h-4.6l-3.7.1c-23.4 0-46.8-2.8-69.5-8.4l1.4-65.3.3-11.2c.2-7.2.4-12.3.6-14-.2.2-.3.6-.4.9-1 4.3-1.6 8.7-1.9 13l-1 11.3c-2 21.6-3.9 51-5.9 63.5a285.4 285.4 0 0 1-52.6-20.1 2138.4 2138.4 0 0 0 6.3-43.4c1.5-10.2 3-20.2 4.6-29 2.3-12.8 4.6-23.1 7-27.9a1498.2 1498.2 0 0 1 8.6-17.5l.6-1a884.9 884.9 0 0 1 7.8-15.1c2.7-5 4.9-8.8 6.6-11.3a55.3 55.3 0 0 1 29.2-22.2h.6l20.4-6.2 3-1 2-.6 7-5.4 4-2.9 3.5-2.8 7.1-5.3 43.7 2.7 8.5 20.5 19 7 .4-.2.3-.1h.3a55.3 55.3 0 0 1 32.6 27.8 272.7 272.7 0 0 1 9.7 18 705.9 705.9 0 0 1 10.6 21.4c2 3.9 3.9 12 5.8 22.1a784 784 0 0 1 4.6 29c2 13.5-.1 29.7 1.7 42.1l.3 2.4Z" fill="#3F3D56"/><path d="M474.6 443.7a50.8 50.8 0 1 0 0-101.7 50.8 50.8 0 0 0 0 101.7Z" fill="#FFB6B6"/><path d="M558.5 325.5c-1-2.3-2.4-4.5-4-6.5-7.7-9.4-21.8-13.6-36.2-2.4-2.8-.6-5.7-.5-8.3.5a13 13 0 0 0-3.6 2 16 16 0 0 0-6 10.6 60.3 60.3 0 0 0-40.4-4.2c-3 .8-6 2-8.7 3.5-4.7 2.7-7.4 6.1-7.9 9.9a28.5 28.5 0 0 0-20.7 11.8 32.7 32.7 0 0 0-6.7 20v1.3h1.3a26.9 26.9 0 0 1 16 5.2l3.4 2.8a37.5 37.5 0 0 1 5 46.2l-.2.3a63 63 0 0 0-6 13A53.6 53.6 0 0 0 434 466l.2 1.3.8 3.1 1.7 7.7 1.2 5.2 1.1 4.9 1.6-2.4c.6-.8 2-3.3 4-6.7a600 600 0 0 0 14-27 471.2 471.2 0 0 0 7.8-16.8 54.4 54.4 0 0 1 1 8v.5l.1.8v.3l1 .1a93 93 0 0 0 18.5.2c8.1-.7 16-2.6 23.6-5.8a49.3 49.3 0 0 0 17.5-13 41.1 41.1 0 0 0 7.4-13.6 78.9 78.9 0 0 0-.7-43.4 10 10 0 0 0 3.3-1.3 14 14 0 0 0 6-10.2l1 .3a30 30 0 0 0 11.6-9.6c4.9-7.2 5-15.8 1.8-23Z" fill="#2F2E41"/><path opacity=".2" d="m391.3 579.3 8.5-32.8 7.5 28.3-16 4.5Z" fill="#000"/><path d="M617.4 558c-3 41.8.1 60.3-16.6 94.8a286.1 286.1 0 0 1-118.5 29l-3.4.2H474a289.3 289.3 0 0 1-129-30.3l-4-2a86.1 86.1 0 0 1-10.4-42.9c4.6-29.4 276.7-74.2 286.8-48.9Z" fill="#2F2E41"/><path opacity=".2" d="m617.4 565.1.6-8c-10.2-25.4-282.3 19.5-286.9 48.8 0 2.7.2 5.3.4 7.9 11-29 269.6-71.6 286-48.7Z" fill="#000"/><path d="M348.1 446.2a6.4 6.4 0 0 0-7.8-6.7l-39.7 9a6.5 6.5 0 0 0-4.2 3.2c-.6 0-1.2 0-1.8.2a9.7 9.7 0 1 0 8.2 17l13.5 38a6.3 6.3 0 0 0 7 3L349 504a6.4 6.4 0 0 0 4.9-5.7l-5.9-52.1ZM298.3 468a7 7 0 0 1-3-13.5h.3c0 1.1.3 2.2.9 3.2l4.9 8.6c-.9.9-2 1.4-3 1.7Z" fill="#2F2E41"/><path d="M341.3 439.3c.4 5-8.2 10.8-19.7 13.1-10.6 2.2-20 .7-22.8-3.3a6 6 0 0 1 1.8-.7l39.7-9h1Z" fill="#3F3D56"/><path d="m313.8 566.9 22.4-11.2-18.6-50.2-5-25.4a19.2 19.2 0 0 0-31.2-10.9 19.2 19.2 0 0 0-2.5 26.6l18.2 22.7 16.7 48.4Z" fill="#FFB6B6"/><path d="m336.2 546.4-29.8 15L329 632a31 31 0 0 0 22.3 20.7 31 31 0 0 0 33.8-14.1L445 535.9a31.6 31.6 0 0 0-10.2-43 31.6 31.6 0 0 0-45.3 12.8l-36.6 78-16.7-37.3Z" fill="#3F3D56"/><path d="M327 482.4h-.2l-6.5-2.2a.5.5 0 0 1-.3-.4v-.2l.1-.2 4.8-5.3.2-.1h.2a.5.5 0 0 1 .3 0 .5.5 0 0 1 0 .8l-4.3 4.7 5.8 2a.5.5 0 0 1 .2.8l-.3.1ZM335.9 480.6h-.3a.5.5 0 0 1 0-.8l4.3-4.3-5.9-2.4a.5.5 0 0 1-.3-.5.5.5 0 0 1 .3-.4.5.5 0 0 1 .4 0l6.6 2.7a.5.5 0 0 1 .2.8l-5 4.8-.3.1ZM328.3 485.5a.5.5 0 0 1-.3-.1l-.1-.2a.5.5 0 0 1 0-.3l4.6-15a.5.5 0 0 1 .6-.4.5.5 0 0 1 .3.6l-4.6 15a.5.5 0 0 1-.5.4Z" fill="#C78989"/></g><defs><linearGradient id="a" x1="473.5" y1="0" x2="473.5" y2="866" gradientUnits="userSpaceOnUse"><stop stop-color="#EDDCDC"/><stop offset=".6" stop-color="#D5CFDC" stop-opacity=".4"/><stop offset="1" stop-color="#C6C7DC" stop-opacity="0"/></linearGradient><clipPath id="b"><path fill="#fff" transform="translate(185 104)" d="M0 0H578V578H0z"/></clipPath></defs></svg>