<svg width="2015" height="1140" viewBox="0 0 2015 1140" fill="none" xmlns="http://www.w3.org/2000/svg">
<path fill-rule="evenodd" clip-rule="evenodd" d="M9.53674e-06 180.409L83.9583 157.889C167.917 135.369 335.834 90.3294 503.75 52.7966C671.667 15.2637 839.583 -14.7627 1007.5 7.75711C1091.46 19.017 1175.42 43.4134 1259.38 67.8098C1343.33 92.2062 1427.29 116.603 1511.25 127.862C1679.17 150.382 1847.08 120.356 1931.04 105.343L2015 90.3295V270.237V270.488V869.512V959.591L1931.04 982.111C1847.08 1004.63 1679.17 1049.67 1511.25 1087.2C1343.33 1124.74 1175.42 1154.76 1007.5 1132.24C923.542 1120.98 839.583 1096.59 755.625 1072.19C671.667 1047.79 587.708 1023.4 503.75 1012.14C335.833 989.618 167.917 1019.64 83.9583 1034.66L0 1049.67V869.512L9.53674e-06 270.488V270.237V180.409Z" fill="#E7E4EC"/>
</svg>
