<svg fill="none" xmlns="http://www.w3.org/2000/svg" viewBox="0 0 802 866" xmlns:xlink="http://www.w3.org/1999/xlink"><defs><path d="m776.2 527.5.9-17.6a65.6 65.6 0 0 1 28.7-6.8c-13.8 10.5-12 30.6-21.4 44.6-3 4.4-7 8-11.7 10.8a39 39 0 0 1-15.5 5l-11.6 6.6a53.2 53.2 0 0 1 13.1-46.5c3.3-3.6 7-6.8 11-9.5 2.8 6.7 6.5 13.4 6.5 13.4ZM192.3 508.2l-27.9-7.8a80.6 80.6 0 0 1 .1-41.8c11.5 22.8 44.3 28 63.2 46a51.6 51.6 0 0 1 12.9 20 48.5 48.5 0 0 1 2.2 23.2l6 18.2c-13.6-1-26.9-4.5-38.8-10.7a92.9 92.9 0 0 1-30.6-24.7c-4.5-5.8-8.2-12-11-18.6 11.9-1.3 24-3.8 24-3.8Z" fill="#F2F2F2" id="reuse-0"/><path d="M679.6 567.2c0 .6-.2 1-.6 1.4a2.2 2.2 0 0 1-1.5.6h-8.8a2.3 2.3 0 0 1-1.5-.6 2 2 0 0 1-.5-.6l-.1-.8v-244c0-5.4-2-9.8-4.4-9.8H119c-2.4 0-4.4 4.4-4.4 9.8v242.5c0 .5-.2 1-.6 1.4-.3.3-.8.6-1.3.6l-5.3.4h-.1l-3 .3-1.4-2.6a2 2 0 0 1-.2-.9V310.5a60.7 60.7 0 0 1 1-10.5c1.8-9.3 6-15.6 10.7-15.7h552.4c.7 0 1.4.2 2 .4 1 .4 1.8 1 2.5 1.6 1 1 1.8 2 2.4 3a38 38 0 0 1 4.6 16v.3l.2 4.9.2 21.5v12.8l.4 40.3v14.3l.5 167.8Z" fill="#E6E6E6" id="reuse-1"/><path d="M419.5 291v7.8c0 .4.2.7.5 1 .3.3.7.5 1.2.5h58.3c.5 0 .9-.2 1.2-.5.3-.3.5-.6.5-1V291h-61.7Z" fill="#3F3D56" id="reuse-2"/><path d="M567.7 88.8H335c-1 0-2.1.4-2.9 1.1-.7.8-1.2 1.7-1.2 2.7v144c0 1 .5 2 1.2 2.7.8.7 1.8 1.1 3 1.1h232.6c1.1 0 2.2-.4 3-1 .7-.8 1.1-1.7 1.1-2.7v-144c0-1-.4-2-1.2-2.8a4.3 4.3 0 0 0-2.9-1Z" fill="#fff" id="reuse-3"/><path d="M344.8 312h-65.1a9 9 0 0 0-6.2 2.4 7.7 7.7 0 0 0-2.5 5.6c0 2.2 1 4.2 2.5 5.7a9 9 0 0 0 6.2 2.4h23.9v62.2h17.3v-62.2h23.9a9 9 0 0 0 6.1-2.4 7.7 7.7 0 0 0 2.6-5.7c0-2-1-4.1-2.6-5.6a9 9 0 0 0-6.1-2.4Z" fill="#3F3D56" id="reuse-4"/><path d="M387.8 424.8H213.6a73.8 73.8 0 0 1-46-16 63.8 63.8 0 0 1-23.4-39.9l-6.1-21a453.2 453.2 0 0 0-57.8-123.3c-11.6-17.5-17.6-34.5-4-50.8l.3-.4c11-13.2 65.4-16 83.2-16.6h112.5c9.6.2 19 2.9 27 7.7a50.6 50.6 0 0 1 25 45.6 48 48 0 0 1-9.2 25.4c-38 53-49.7 86-37.8 107.5 11.5 20.8 47 31.4 111.3 33.4 17.3.6 25.3 13 25.3 24.4 0 11-7.6 23.3-24.5 24h-1.6Z" fill="#3F3D56" id="reuse-5"/><path d="M243.2 567.8h65.1a9 9 0 0 0 6.1-2.3 7.7 7.7 0 0 0 2.6-5.7c0-2.2-1-4.2-2.6-5.7a9 9 0 0 0-6-2.4h-24V416.2h-17.3v135.5h-24a9 9 0 0 0-6 2.4 7.7 7.7 0 0 0-2.6 5.7c0 2.1 1 4.1 2.5 5.7a9 9 0 0 0 6.2 2.3Z" fill="#3F3D56" id="reuse-6"/><path d="m302.1 513.2 11.2 5.6 29.7-38-16.5-8.3-24.4 40.7Z" fill="#FFB6B6" id="reuse-7"/><path d="m307.5 499.6 20.4 6-3.2 7.8 14 18.8a5 5 0 0 1-.3 6.2c-.7 1-1.8 1.5-3 1.8-1.1.3-2.4.3-3.5-.1l-23.7-8.3-.9-9.3-4.8 7.3-9-3.2 14-27Z" fill="#2F2E41" id="reuse-8"/><path d="M330.5 130.2c.2 1.7.1 3.4-.4 5-.6 1.7-1.5 3.2-2.7 4.5a13.5 13.5 0 0 1-9.8 3.9l-43.3 85-13.5-17.4 44.5-80.5c.3-2.9 1.7-5.5 4-7.5s5.3-3 8.4-3c3-.1 6 .9 8.4 2.7 2.4 1.9 4 4.5 4.4 7.3Z" fill="#FFB6B6" id="reuse-9"/><path d="M187 245.9s-1.2 14.8 17 17.8c18.1 2.9 66.7-25.5 74.7-30 8-4.3 22.9-59.2 22.9-59.2l-13-20.2c-16 18.7-28.5 35.9-29.2 48.1L186.9 246Z" fill="#C78989" id="reuse-10"/><path d="m335 496.7-21.7-11c-.4-26.2 16.6-61.5 36.8-98.5-45.1 7.1-87.6 9.4-124.4.7-6-1.4-11.2-5-14.4-10a20.6 20.6 0 0 1-2.1-18.1c4.4-12.5-5.5-20.2 3.6-34 23.9-7.4 46.5-9.6 67.3-3l13 26.7 64.4-7.8a25.6 25.6 0 0 1 17.6 4.6c2.4 1.8 4.5 4 6 6.6a20.8 20.8 0 0 1 3 10.2c-13 56.4-27.6 107.2-49 133.6Z" fill="#2F2E41" id="reuse-11"/><path d="m199.2 198.3 24.8-1.4c1 0 2 .2 3 .8.9.5 1.5 1.2 2 2.1l7 15.7 29.1 22.3s11.5 13.6 11.6 31.1c0 17.6 4 58.2 4 58.2S264 305 253.6 311c-1.7 1-2.4 3-4.2 4-1 .5-3 0-4 .5-14.3 8-29.3 15.6-30.7 14.2-2.7-2.6-6-16.1-6-16.1l-22.7-77.2a26.5 26.5 0 0 1 4.4-24c1.5-2.1 3.2-3.7 4.7-3.9 3.5-.7 1.7-7.9 4.2-10.2Z" fill="#C78989" id="reuse-12"/><path d="m410.3 545.9 10.4-6.8-23.7-41.4-15.5 10 28.8 38.2Z" fill="#FFB6B6" id="reuse-13"/><path d="M235.8 392.8c-1.7-.7-3.2-1.7-4.4-3a11.5 11.5 0 0 1-2.7-4.3 10.8 10.8 0 0 1 1.5-9.8L174 297.3l23.2-1.6 51.3 77c2.4 1.7 4.2 4.2 4.8 7a11 11 0 0 1-1.5 8.2c-1.6 2.5-4 4.4-7 5.3-3 .9-6.1.7-9-.4Z" fill="#FFB6B6" id="reuse-14"/><path d="M203.5 219.3s-13.1-8.7-25.3 4.2c-12.1 12.9-11 66-11.2 74.6 0 2.7 4.2 8.5 10 15.2 2.5 3 5.4 6.2 8.4 9.3 1.8 1.9.3 5.7 2 7.5 1.7 1.7 6.7 1.5 8.3 3.1L210 347l25.4.3c.3-17.5-12.6-33.1-29.3-48.2l-2.5-79.8Z" fill="#C78989" id="reuse-15"/><path d="M177.9 143.2c-2.4 1.6-5 3.3-7.9 3.7-3 .4-6.4-1-7.2-3.6-1-3.2 2.2-6.2 5-8.3l9-6.6a22 22 0 0 1 5.5-3.3 7.9 7.9 0 0 1 6.4.2c1 .6 1.7 1.4 2.2 2.4.6 1 .8 2 .8 3-.2 2.2-1 4.3-2.3 6.1a22 22 0 0 1-6.4 6 24 24 0 0 1-8.4 3.3" fill="#2F2E41" id="reuse-16"/><path d="M246 316H181a9 9 0 0 0-6.1 2.4 7.7 7.7 0 0 0-2.6 5.7c0 2 1 4.1 2.6 5.6a9 9 0 0 0 6.1 2.4h23.9v62.2H222v-62.2h24a9 9 0 0 0 6-2.4 7.7 7.7 0 0 0 2.6-5.6c0-2.2-1-4.2-2.5-5.7a9 9 0 0 0-6.2-2.4Z" fill="#3F3D56" id="reuse-17"/><path d="M181.9 126.3c.2-6-6.7-10.7-13.2-10.4a22 22 0 0 0-15.8 9.6c-3.7 5-5.9 10.7-8.8 16.1a29.9 29.9 0 0 1-12.5 13.5c-5.8 2.8-13.8 2.3-17.8-2.5a12.6 12.6 0 0 0-1.5 12c1.7 3.8 4.7 7 8.6 9.2 1.6.8 3.3 1.5 5 2 .8-1.8 1.8-3.5 3-5-.5 1.8-.8 3.7-.6 5.5 2.7.5 5.5.5 8.1-.1a18 18 0 0 0 7.2-3.2c2-1.6 3.7-3.6 4.8-5.9 2.5-5.3 1.2-11.4 1.7-17.1.6-5.8 4.3-12.4 10.6-12.5 4.8 0 4.1.3 7.2 3.7" fill="#2F2E41" id="reuse-18"/><path d="M225.2 158c0 7-3 13.5-8.2 18.4a29.4 29.4 0 0 1-20 7.7c-15.6 0-30.4-16.7-30.4-31.1 0-14.4 14.8-21.1 30.4-21.1 7.5 0 14.7 2.7 20 7.6a25.1 25.1 0 0 1 8.2 18.5Z" fill="#2F2E41" id="reuse-19"/><path d="M231.4 165.6c3 13.2-6.3 26-20.6 28.8-14.3 2.7-28.3-5.8-31.2-19-2.9-13.2 6.3-26.1 20.6-28.8 14.3-2.7 28.3 5.8 31.2 19Z" fill="#FFB6B6" stroke="#000" id="reuse-20"/><path d="M239.3 161c-8 2-16 4.1-19.1 0-.6-2.7-1.7-5.3-3.4-7.7-.3 2.6-1 5.2-2 7.7-10 2-19.4 2.5-27.6 0-1 1.9-1.7 4-1.9 6a9.5 9.5 0 0 0-2-.8l-1 .1-.4.5-.3.5.1 1.3a9 9 0 0 0 1.4 4c.3.5.7.9 1.2 1.1.4.3 1 .5 1.5.6 1.1 5.9 10.1 13.8 10.1 13.8-27.1 1-27.1-16-27.1-32.1l3.2-6H183v-13h30.4c6.9 0 13.5 2.4 18.4 7a23.2 23.2 0 0 1 7.6 17Z" fill="#2F2E41" id="reuse-21"/><path d="M431.9 144.2h-25v2h25v-2ZM462.3 152.2h-55.4v2h55.4v-2ZM462.3 159.3h-55.4v2h55.4v-2ZM477.5 166.3h-70.6v2h70.6v-2ZM443.8 173.3H407v2h37v-2ZM474.2 180.3h-67.3v2h67.3v-2ZM418.8 187.4H407v2h12v-2Z" fill="#E6E6E6" id="reuse-22"/></defs><path fill-rule="evenodd" clip-rule="evenodd" d="M470.8 11.1C594.6-6.3 746.7-11.3 834 57.8c87.6 69.2 14.4 186.5 48.9 279 32.3 86.9 160.8 150.7 144.6 240C1011 668.7 902.2 734 801.8 786.4c-98 51-215.9 102.5-331 80.5-111.5-21.3-144.1-128.6-229-187.7-70.7-49.2-186.3-61-224.5-127.9-39.2-68.5-3.9-146.9 27.1-217.8 30.8-70.5 79.7-133.2 148.9-185.5C273.5 87.3 359.7 26.7 470.8 11Z" fill="url(#a)"/><g clip-path="url(#b)"><use xlink:href="#reuse-0"/><use xlink:href="#reuse-1"/><path d="M478 210h-55.3a3 3 0 0 0-2.1.7c-.6.5-.9 1.2-.9 2v80.8H481v-80.8a2.6 2.6 0 0 0-.9-2 3.2 3.2 0 0 0-2-.8Zm-27.5 45.9c-1.7 0-3.4-.7-4.6-1.8a5.9 5.9 0 0 1-2-4.3v-9.3c0-1.6.8-3.1 2-4.3a6.8 6.8 0 0 1 4.6-1.7c1.8 0 3.4.6 4.7 1.7 1.2 1.2 1.9 2.7 1.9 4.3v9.3c0 1.6-.7 3.2-2 4.3a6.8 6.8 0 0 1-4.6 1.8Z" fill="#CCC"/><use xlink:href="#reuse-2"/><path d="M569.7 83.7H333c-2 0-4 .8-5.4 2a6.9 6.9 0 0 0-2.2 5.1v147.7c0 1.9.8 3.7 2.2 5a8 8 0 0 0 5.4 2h236.7c2 0 4-.7 5.4-2a6.8 6.8 0 0 0 2.3-5V90.8c0-1.9-.8-3.7-2.3-5a8 8 0 0 0-5.4-2Z" fill="#E6E6E6"/><use xlink:href="#reuse-3"/><path d="M522.4 303H384c-.4 0-.8 0-1.1-.2l-1-.7c-.2-.2-.3-.6-.4-.9v-1l2.1-9.5c.1-.5.4-1 .9-1.3.5-.4 1-.5 1.6-.5h134.1c.6 0 1.2.1 1.7.5.4.3.7.8.8 1.3l2.2 9.5a2.2 2.2 0 0 1-.5 2l-1 .6-1 .2Z" fill="#CCC"/><path d="M390.8 290.6h-3.2c-.3 0-.5.2-.5.4v1.4c0 .3.2.5.5.5h3.2c.3 0 .5-.2.5-.5V291c0-.2-.2-.4-.5-.4ZM399.3 290.6h-3.2c-.3 0-.5.2-.5.4v1.4c0 .3.3.5.5.5h3.2c.3 0 .6-.2.6-.5V291c0-.2-.3-.4-.6-.4ZM407.9 290.6h-3.2c-.3 0-.6.2-.6.4v1.4c0 .3.3.5.6.5h3.2c.3 0 .5-.2.5-.5V291c0-.2-.2-.4-.5-.4ZM416.4 290.6h-3.2c-.3 0-.5.2-.5.4v1.4c0 .3.2.5.5.5h3.2c.3 0 .5-.2.5-.5V291c0-.2-.2-.4-.5-.4ZM425 290.6h-3.3c-.3 0-.5.2-.5.4v1.4c0 .3.2.5.5.5h3.2c.3 0 .6-.2.6-.5V291c0-.2-.3-.4-.6-.4ZM433.5 290.6h-3.2c-.3 0-.6.2-.6.4v1.4c0 .3.3.5.6.5h3.2c.3 0 .5-.2.5-.5V291c0-.2-.2-.4-.5-.4ZM442 290.6h-3.2c-.3 0-.5.2-.5.4v1.4c0 .3.2.5.5.5h3.2c.3 0 .5-.2.5-.5V291c0-.2-.2-.4-.5-.4ZM450.5 290.6h-3.2c-.3 0-.5.2-.5.4v1.4c0 .3.2.5.5.5h3.2c.3 0 .5-.2.5-.5V291c0-.2-.2-.4-.5-.4ZM459 290.6h-3.2c-.3 0-.5.2-.5.4v1.4c0 .3.2.5.5.5h3.2c.3 0 .6-.2.6-.5V291c0-.2-.3-.4-.6-.4ZM467.6 290.6h-3.2c-.3 0-.6.2-.6.4v1.4c0 .3.3.5.6.5h3.2c.3 0 .5-.2.5-.5V291c0-.2-.2-.4-.5-.4ZM476.1 290.6h-3.2c-.3 0-.5.2-.5.4v1.4c0 .3.2.5.5.5h3.2c.3 0 .5-.2.5-.5V291c0-.2-.2-.4-.5-.4ZM484.6 290.6h-3.2c-.3 0-.5.2-.5.4v1.4c0 .3.2.5.5.5h3.2c.3 0 .6-.2.6-.5V291c0-.2-.3-.4-.6-.4ZM493.2 290.6h-3.3c-.2 0-.5.2-.5.4v1.4c0 .3.3.5.5.5h3.3c.2 0 .5-.2.5-.5V291c0-.2-.3-.4-.5-.4ZM501.7 290.6h-3.2c-.3 0-.6.2-.6.4v1.4c0 .3.3.5.6.5h3.2c.3 0 .5-.2.5-.5V291c0-.2-.2-.4-.5-.4ZM510.2 290.6H507c-.3 0-.5.2-.5.4v1.4c0 .3.2.5.5.5h3.2c.3 0 .5-.2.5-.5V291c0-.2-.2-.4-.5-.4ZM518.7 290.6h-3.2c-.3 0-.5.2-.5.4v1.4c0 .3.2.5.5.5h3.2c.3 0 .6-.2.6-.5V291c0-.2-.3-.4-.6-.4ZM390.7 294.5h-3.2c-.3 0-.5.2-.5.5v1.4c0 .2.2.5.5.5h3.2c.3 0 .5-.3.5-.5V295c0-.3-.2-.5-.5-.5ZM399.2 294.5H396c-.3 0-.5.2-.5.5v1.4c0 .2.3.5.5.5h3.2c.3 0 .6-.3.6-.5V295c0-.3-.3-.5-.6-.5ZM407.8 294.5h-3.2c-.3 0-.6.2-.6.5v1.4c0 .2.3.5.6.5h3.2c.3 0 .5-.3.5-.5V295c0-.3-.2-.5-.5-.5ZM416.3 294.5h-3.2c-.3 0-.5.2-.5.5v1.4c0 .2.2.5.5.5h3.2c.3 0 .5-.3.5-.5V295c0-.3-.2-.5-.5-.5ZM424.8 294.5h-3.2c-.3 0-.5.2-.5.5v1.4c0 .2.2.5.5.5h3.2c.3 0 .6-.3.6-.5V295c0-.3-.3-.5-.6-.5ZM433.4 294.5h-3.2c-.3 0-.6.2-.6.5v1.4c0 .2.3.5.6.5h3.2c.3 0 .5-.3.5-.5V295c0-.3-.2-.5-.5-.5ZM441.9 294.5h-3.2c-.3 0-.5.2-.5.5v1.4c0 .2.2.5.5.5h3.2c.3 0 .5-.3.5-.5V295c0-.3-.2-.5-.5-.5ZM450.4 294.5h-3.2c-.3 0-.5.2-.5.5v1.4c0 .2.2.5.5.5h3.2c.3 0 .5-.3.5-.5V295c0-.3-.2-.5-.5-.5ZM459 294.5h-3.3c-.3 0-.5.2-.5.5v1.4c0 .2.2.5.5.5h3.2c.3 0 .6-.3.6-.5V295c0-.3-.3-.5-.6-.5ZM467.5 294.5h-3.2c-.3 0-.6.2-.6.5v1.4c0 .2.3.5.6.5h3.2c.3 0 .5-.3.5-.5V295c0-.3-.2-.5-.5-.5ZM476 294.5h-3.2c-.3 0-.5.2-.5.5v1.4c0 .2.2.5.5.5h3.2c.3 0 .5-.3.5-.5V295c0-.3-.2-.5-.5-.5ZM484.5 294.5h-3.2c-.3 0-.5.2-.5.5v1.4c0 .2.2.5.5.5h3.2c.3 0 .6-.3.6-.5V295c0-.3-.3-.5-.6-.5ZM493 294.5h-3.2c-.2 0-.5.2-.5.5v1.4c0 .2.3.5.5.5h3.3c.2 0 .5-.3.5-.5V295c0-.3-.3-.5-.5-.5ZM501.6 294.5h-3.2c-.3 0-.6.2-.6.5v1.4c0 .2.3.5.6.5h3.2c.3 0 .5-.3.5-.5V295c0-.3-.2-.5-.5-.5ZM510.1 294.5H507c-.3 0-.5.2-.5.5v1.4c0 .2.2.5.5.5h3.2c.3 0 .5-.3.5-.5V295c0-.3-.2-.5-.5-.5ZM518.6 294.5h-3.2c-.3 0-.5.2-.5.5v1.4c0 .2.2.5.5.5h3.2c.3 0 .6-.3.6-.5V295c0-.3-.3-.5-.6-.5ZM461.5 299.2h-33c-.3 0-.6.2-.6.5v1.4c0 .3.3.5.5.5h33.1c.3 0 .5-.2.5-.5v-1.4c0-.3-.2-.5-.5-.5Z" fill="#E6E6E6"/><path d="M556 108.7H338.3c-.2 0-.5-.1-.6-.3a.8.8 0 0 1-.3-.5l.3-.6.6-.2H556c.3 0 .5 0 .6.2l.3.6c0 .2-.1.4-.3.5-.1.2-.3.3-.6.3Z" fill="#CACACA"/><path d="M353.1 103a5 5 0 0 0 5-4.8 5 5 0 0 0-5-4.8 5 5 0 0 0-5 4.8 5 5 0 0 0 5 4.8ZM370.6 103a5 5 0 0 0 5.1-4.8 5 5 0 0 0-5-4.8 5 5 0 0 0-5.1 4.8 5 5 0 0 0 5 4.8ZM388.2 103a5 5 0 0 0 5-4.8 5 5 0 0 0-5-4.8 5 5 0 0 0-5.1 4.8 5 5 0 0 0 5 4.8ZM545.5 94.6H533a1 1 0 0 0-.6.2c-.2.2-.3.4-.3.7 0 .2 0 .4.3.6l.6.2h12.5c.2 0 .5 0 .6-.2l.3-.6c0-.3-.1-.5-.3-.7a1 1 0 0 0-.6-.2ZM545.5 97.9H533a1 1 0 0 0-.6.2l-.3.6c0 .3 0 .5.3.6.1.2.4.3.6.3h12.5c.2 0 .5-.1.6-.3.2-.1.3-.3.3-.6l-.3-.6a1 1 0 0 0-.6-.2ZM545.5 101.1H533a1 1 0 0 0-.6.3c-.2.1-.3.4-.3.6 0 .2 0 .4.3.6.1.2.4.3.6.3h12.5c.2 0 .5-.1.6-.3l.3-.6c0-.2-.1-.5-.3-.6a1 1 0 0 0-.6-.3Z" fill="#CCC"/><use xlink:href="#reuse-4"/><use xlink:href="#reuse-5"/><use xlink:href="#reuse-6"/><use xlink:href="#reuse-7"/><use xlink:href="#reuse-8"/><use xlink:href="#reuse-9"/><use xlink:href="#reuse-10"/><path d="M277 326.6h-.2l-1.9.2a1717.2 1717.2 0 0 1-27.8 2.1 526.4 526.4 0 0 1-29 1 19.8 19.8 0 0 1-3-.5h-.1a4 4 0 0 1-.8-1.3l-.7-2.2a44.9 44.9 0 0 1-1.1-11 94.5 94.5 0 0 1 0-2v-.2h-.6.5v-.1l-3.8-15.1 62.3-10.6c0 8.7 1.5 18.7 3 26.5a237.5 237.5 0 0 0 3 12.8l.1.4Z" fill="#FFB6B6" stroke="#000"/><use xlink:href="#reuse-11"/><use xlink:href="#reuse-12"/><use xlink:href="#reuse-13"/><path d="m411.8 518-16.4 13.7c-26-27-45.8-64.7-62.5-107.5a287 287 0 0 1-105.7-53.7c-9.8-7.7-17.2-17.5-8.8-26.9l1.2-1.2c9.9-9.4 34.9-7.6 49.5-16.2l32.7 32.3-2 8.7 61.3 19.2c3 1 5.7 2.5 8 4.4 2.4 2 4.3 4.3 5.6 7a20.6 20.6 0 0 1 .1 18.6l37 101.7ZM404.1 543.1 421 531l5.2 7 24.6-.1a6 6 0 0 1 3.4 1c1 .7 1.7 1.6 2.1 2.7.4 1 .3 2.2 0 3.3-.4 1-1.2 2-2.2 2.6l-20.8 13.4-8.8-4.6 3.8 7.8-7.9 5-16.2-25.9Z" fill="#2F2E41"/><use xlink:href="#reuse-14"/><use xlink:href="#reuse-15"/><use xlink:href="#reuse-16"/><use xlink:href="#reuse-17"/><use xlink:href="#reuse-18"/><use xlink:href="#reuse-19"/><use xlink:href="#reuse-20"/><use xlink:href="#reuse-21"/><path d="m486.6 570.7-476.2.3a1.4 1.4 0 0 1-1-.3 1.2 1.2 0 0 1-.3-.9l.1-.4c0-.2.2-.3.3-.4a1.3 1.3 0 0 1 .9-.4l476.2-.3c.4 0 .7.1 1 .4.2.2.3.5.3.8 0 .3-.1.6-.4.9-.2.2-.5.3-.9.3ZM804.7 570.7l-246.2.3a1.4 1.4 0 0 1-.9-.3l-.3-.4a1.1 1.1 0 0 1 .3-1.3 1.3 1.3 0 0 1 1-.4l246-.3c.4 0 .7.1 1 .4.2.2.3.5.3.8 0 .3 0 .6-.3.9-.3.2-.6.3-1 .3Z" fill="#CACACA"/><path d="M497.5 210.4h-93.3c-3.9 0-7.6-1.4-10.4-4a13 13 0 0 1-4.3-9.5v-57.2c0-3.6 1.6-7 4.3-9.6 2.8-2.5 6.5-4 10.4-4h93.3c3.9 0 7.6 1.5 10.4 4 2.7 2.6 4.3 6 4.3 9.6v57.2c0 3.6-1.6 7-4.3 9.6-2.8 2.5-6.5 4-10.4 4Zm-93.3-82.3a13 13 0 0 0-8.8 3.4 11.2 11.2 0 0 0-3.7 8.2v57.2c0 3 1.3 6 3.7 8.1a13 13 0 0 0 8.8 3.4h93.3a13 13 0 0 0 8.8-3.4c2.4-2.1 3.7-5 3.7-8.1v-57.2c0-3-1.3-6-3.7-8.2a13 13 0 0 0-8.8-3.4h-93.3Z" fill="#E6E6E6"/><use xlink:href="#reuse-22"/></g><path fill-rule="evenodd" clip-rule="evenodd" d="M470.8 11.1C594.6-6.3 746.7-11.3 834 57.8c87.6 69.2 14.4 186.5 48.9 279 32.3 86.9 160.8 150.7 144.6 240C1011 668.7 902.2 734 801.8 786.4c-98 51-215.9 102.5-331 80.5-111.5-21.3-144.1-128.6-229-187.7-70.7-49.2-186.3-61-224.5-127.9-39.2-68.5-3.9-146.9 27.1-217.8 30.8-70.5 79.7-133.2 148.9-185.5C273.5 87.3 359.7 26.7 470.8 11Z" fill="url(#c)"/><use xlink:href="#reuse-0"/><use xlink:href="#reuse-1"/><path d="M478 210h-55.3a3 3 0 0 0-2.1.7c-.6.5-.9 1.2-.9 2v80.8H481v-80.8l-.2-1-.7-1a3 3 0 0 0-2-.8Zm-27.5 45.9c-1.7 0-3.4-.7-4.6-1.8a5.9 5.9 0 0 1-2-4.3v-9.3c0-1.6.8-3.1 2-4.3a6.8 6.8 0 0 1 4.6-1.7c1.8 0 3.4.6 4.7 1.7 1.2 1.2 1.9 2.7 1.9 4.3v9.3c0 1.6-.7 3.2-2 4.3a6.8 6.8 0 0 1-4.6 1.8Z" fill="#CCC"/><use xlink:href="#reuse-2"/><path d="M569.7 83.7H333c-2 0-4 .8-5.4 2a6.8 6.8 0 0 0-2.2 5.1v147.7c0 1.9.8 3.7 2.2 5a8 8 0 0 0 5.4 2h236.7c2 0 4-.7 5.4-2a6.8 6.8 0 0 0 2.3-5V90.8c0-1.9-.8-3.7-2.3-5a8 8 0 0 0-5.4-2Z" fill="#E6E6E6"/><use xlink:href="#reuse-3"/><path d="M522.4 303H384c-.4 0-.8 0-1.1-.2l-1-.7c-.2-.2-.3-.6-.4-1v-1l2.1-9.4c.1-.5.4-1 .9-1.3.5-.4 1-.5 1.6-.5h134.1c.6 0 1.2.1 1.7.5.4.3.7.8.8 1.3l2.2 9.5a2.2 2.2 0 0 1-.5 2l-1 .6-1 .2Z" fill="#CCC"/><path d="M390.8 290.6h-3.2c-.3 0-.5.2-.5.4v1.4c0 .3.2.5.5.5h3.2c.3 0 .5-.2.5-.5V291c0-.2-.2-.4-.5-.4ZM399.3 290.6h-3.2c-.2 0-.5.2-.5.4v1.4c0 .3.3.5.5.5h3.2c.3 0 .6-.2.6-.5V291c0-.2-.3-.4-.6-.4ZM407.9 290.6h-3.2c-.3 0-.6.2-.6.4v1.4c0 .3.3.5.6.5h3.2c.3 0 .5-.2.5-.5V291c0-.2-.2-.4-.5-.4ZM416.4 290.6h-3.2c-.3 0-.5.2-.5.4v1.4c0 .3.2.5.5.5h3.2c.3 0 .5-.2.5-.5V291c0-.2-.2-.4-.5-.4ZM425 290.6h-3.3c-.3 0-.5.2-.5.4v1.4c0 .3.2.5.5.5h3.2c.3 0 .6-.2.6-.5V291c0-.2-.3-.4-.6-.4ZM433.5 290.6h-3.2c-.3 0-.6.2-.6.4v1.4c0 .3.3.5.6.5h3.2c.3 0 .5-.2.5-.5V291c0-.2-.2-.4-.5-.4ZM442 290.6h-3.2c-.3 0-.5.2-.5.4v1.4c0 .3.2.5.5.5h3.2c.3 0 .5-.2.5-.5V291c0-.2-.2-.4-.5-.4ZM450.5 290.6h-3.2c-.3 0-.5.2-.5.4v1.4c0 .3.2.5.5.5h3.2c.3 0 .5-.2.5-.5V291c0-.2-.2-.4-.5-.4ZM459 290.6h-3.2c-.3 0-.5.2-.5.4v1.4c0 .3.2.5.5.5h3.2c.3 0 .6-.2.6-.5V291c0-.2-.3-.4-.6-.4ZM467.6 290.6h-3.2c-.3 0-.6.2-.6.4v1.4c0 .3.3.5.6.5h3.2c.3 0 .5-.2.5-.5V291c0-.2-.2-.4-.5-.4ZM476.1 290.6h-3.2c-.3 0-.5.2-.5.4v1.4c0 .3.2.5.5.5h3.2c.3 0 .5-.2.5-.5V291c0-.2-.2-.4-.5-.4ZM484.6 290.6h-3.2c-.3 0-.5.2-.5.4v1.4c0 .3.2.5.5.5h3.2c.3 0 .6-.2.6-.5V291c0-.2-.3-.4-.6-.4ZM493.2 290.6h-3.3c-.2 0-.5.2-.5.4v1.4c0 .3.3.5.5.5h3.3c.2 0 .5-.2.5-.5V291c0-.2-.3-.4-.5-.4ZM501.7 290.6h-3.2c-.3 0-.6.2-.6.4v1.4c0 .3.3.5.6.5h3.2c.3 0 .5-.2.5-.5V291c0-.2-.2-.4-.5-.4ZM510.2 290.6H507c-.3 0-.5.2-.5.4v1.4c0 .3.2.5.5.5h3.2c.3 0 .5-.2.5-.5V291c0-.2-.2-.4-.5-.4ZM518.7 290.6h-3.2c-.3 0-.5.2-.5.4v1.4c0 .3.2.5.5.5h3.2c.3 0 .6-.2.6-.5V291c0-.2-.3-.4-.6-.4ZM390.7 294.5h-3.2c-.3 0-.5.2-.5.5v1.4c0 .2.2.5.5.5h3.2c.3 0 .5-.3.5-.5V295c0-.3-.2-.5-.5-.5ZM399.2 294.5H396c-.3 0-.5.2-.5.5v1.4c0 .2.3.5.5.5h3.2c.3 0 .6-.3.6-.5V295c0-.3-.3-.5-.6-.5ZM407.8 294.5h-3.2c-.3 0-.6.2-.6.5v1.4c0 .2.3.5.6.5h3.2c.3 0 .5-.3.5-.5V295c0-.3-.2-.5-.5-.5ZM416.3 294.5h-3.2c-.3 0-.5.2-.5.5v1.4c0 .2.2.5.5.5h3.2c.3 0 .5-.3.5-.5V295c0-.3-.2-.5-.5-.5ZM424.8 294.5h-3.2c-.3 0-.5.2-.5.5v1.4c0 .2.2.5.5.5h3.2c.3 0 .6-.3.6-.5V295c0-.3-.3-.5-.6-.5ZM433.4 294.5h-3.2c-.3 0-.6.2-.6.5v1.4c0 .2.3.5.6.5h3.2c.3 0 .5-.3.5-.5V295c0-.3-.2-.5-.5-.5ZM441.9 294.5h-3.2c-.3 0-.5.2-.5.5v1.4c0 .2.2.5.5.5h3.2c.3 0 .5-.3.5-.5V295c0-.3-.2-.5-.5-.5ZM450.4 294.5h-3.2c-.3 0-.5.2-.5.5v1.4c0 .2.2.5.5.5h3.2c.3 0 .5-.3.5-.5V295c0-.3-.2-.5-.5-.5ZM459 294.5h-3.3c-.3 0-.5.2-.5.5v1.4c0 .2.2.5.5.5h3.2c.3 0 .6-.3.6-.5V295c0-.3-.3-.5-.6-.5ZM467.5 294.5h-3.2c-.3 0-.6.2-.6.5v1.4c0 .2.3.5.6.5h3.2c.3 0 .5-.3.5-.5V295c0-.3-.2-.5-.5-.5ZM476 294.5h-3.2c-.3 0-.5.2-.5.5v1.4c0 .2.2.5.5.5h3.2c.3 0 .5-.3.5-.5V295c0-.3-.2-.5-.5-.5ZM484.5 294.5h-3.2c-.3 0-.5.2-.5.5v1.4c0 .2.2.5.5.5h3.2c.3 0 .6-.3.6-.5V295c0-.3-.3-.5-.6-.5ZM493 294.5h-3.2c-.2 0-.5.2-.5.5v1.4c0 .2.3.5.5.5h3.3c.2 0 .5-.3.5-.5V295c0-.3-.3-.5-.5-.5ZM501.6 294.5h-3.2c-.3 0-.6.2-.6.5v1.4c0 .2.3.5.6.5h3.2c.3 0 .5-.3.5-.5V295c0-.3-.2-.5-.5-.5ZM510.1 294.5H507c-.3 0-.5.2-.5.5v1.4c0 .2.2.5.5.5h3.2c.3 0 .5-.3.5-.5V295c0-.3-.2-.5-.5-.5ZM518.6 294.5h-3.2c-.3 0-.5.2-.5.5v1.4c0 .2.2.5.5.5h3.2c.3 0 .6-.3.6-.5V295c0-.3-.3-.5-.6-.5ZM461.5 299.2h-33c-.3 0-.6.2-.6.5v1.4c0 .3.3.5.5.5h33.1c.3 0 .5-.2.5-.5v-1.4c0-.3-.2-.5-.5-.5Z" fill="#E6E6E6"/><use xlink:href="#reuse-4"/><use xlink:href="#reuse-5"/><use xlink:href="#reuse-6"/><use xlink:href="#reuse-7"/><use xlink:href="#reuse-8"/><use xlink:href="#reuse-9"/><use xlink:href="#reuse-10"/><path d="M277 326.6h-.2l-1.9.2a1717.2 1717.2 0 0 1-27.8 2.1 528.2 528.2 0 0 1-29 1 19.8 19.8 0 0 1-3-.5h-.1a4 4 0 0 1-.8-1.3l-.7-2.2a44.9 44.9 0 0 1-1.1-11 105.6 105.6 0 0 1 0-2v-.2h-.6.5v-.1l-3.8-15.1 62.3-10.6c0 8.7 1.5 18.7 3 26.5a237.5 237.5 0 0 0 3 12.8l.1.4Z" fill="#FFB6B6" stroke="#000"/><use xlink:href="#reuse-11"/><use xlink:href="#reuse-12"/><use xlink:href="#reuse-13"/><path d="m411.8 518-16.4 13.7c-26-27-45.8-64.7-62.5-107.5a287 287 0 0 1-105.7-53.7c-9.8-7.7-17.2-17.5-8.8-26.9l1.2-1.2c9.9-9.4 34.9-7.6 49.5-16.2l32.7 32.3-2 8.7 61.3 19.2c3 1 5.7 2.5 8 4.4 2.4 2 4.3 4.3 5.6 7a20.6 20.6 0 0 1 .1 18.6l37 101.7ZM404.1 543.1 421 531l5.2 7 24.6-.1a6 6 0 0 1 3.4 1c1 .7 1.7 1.6 2.1 2.7a5 5 0 0 1 0 3.3c-.4 1-1.2 2-2.2 2.6l-20.8 13.4-8.8-4.6 3.8 7.8-7.9 5-16.2-25.9Z" fill="#2F2E41"/><use xlink:href="#reuse-14"/><use xlink:href="#reuse-15"/><use xlink:href="#reuse-16"/><use xlink:href="#reuse-17"/><use xlink:href="#reuse-18"/><use xlink:href="#reuse-19"/><use xlink:href="#reuse-20"/><use xlink:href="#reuse-21"/><path d="m486.6 570.7-476.2.3a1.4 1.4 0 0 1-1-.3 1.2 1.2 0 0 1-.3-.9l.1-.4c0-.2.2-.3.3-.4a1.3 1.3 0 0 1 .9-.4l476.2-.3c.4 0 .7.1 1 .4.2.2.3.5.3.8 0 .3-.1.6-.4.9-.2.2-.5.3-.9.3ZM804.7 570.7l-246.2.3a1.4 1.4 0 0 1-.9-.3 1.2 1.2 0 0 1-.4-.9l.1-.4.3-.4a1.3 1.3 0 0 1 1-.4l246-.3c.4 0 .7.1 1 .4.2.2.3.5.3.8 0 .3 0 .6-.3.9-.3.2-.6.3-1 .3Z" fill="#CACACA"/><path d="M497.5 210.4h-93.3c-3.9 0-7.6-1.4-10.4-4a13 13 0 0 1-4.3-9.5v-57.2c0-3.6 1.6-7 4.3-9.6 2.8-2.5 6.5-4 10.4-4h93.3c3.9 0 7.6 1.5 10.4 4a13 13 0 0 1 4.3 9.6v57.2c0 3.6-1.6 7-4.3 9.6-2.8 2.5-6.5 4-10.4 4Zm-93.3-82.3a13 13 0 0 0-8.8 3.4 11.2 11.2 0 0 0-3.7 8.2v57.2c0 3 1.3 6 3.7 8.1a13 13 0 0 0 8.8 3.4h93.3a13 13 0 0 0 8.8-3.4c2.4-2.1 3.7-5 3.7-8.1v-57.2c0-3-1.3-6-3.7-8.2a13 13 0 0 0-8.8-3.4h-93.3Z" fill="#E6E6E6"/><use xlink:href="#reuse-22"/><defs><linearGradient id="a" x1="514.5" y1="0" x2="514.5" y2="872" gradientUnits="userSpaceOnUse"><stop stop-color="#EDDCDC"/><stop offset=".6" stop-color="#D5CFDC" stop-opacity=".4"/><stop offset="1" stop-color="#C6C7DC" stop-opacity="0"/></linearGradient><linearGradient id="c" x1="514.5" y1="0" x2="514.5" y2="872" gradientUnits="userSpaceOnUse"><stop stop-color="#EDDCDC"/><stop offset=".6" stop-color="#D5CFDC" stop-opacity=".4"/><stop offset="1" stop-color="#C6C7DC" stop-opacity="0"/></linearGradient><clipPath id="b"><path fill="#fff" transform="translate(9.1 61.9)" d="M0 0H871.2V509.1H0z"/></clipPath></defs></svg>