<svg width="802" height="866" viewBox="0 0 802 866" fill="none" xmlns="http://www.w3.org/2000/svg">
<path fill-rule="evenodd" clip-rule="evenodd" d="M470.757 11.0961C594.574 -6.30922 746.7 -11.2885 834.104 57.7842C921.729 127.033 848.482 244.323 882.981 336.867C915.339 423.67 1043.75 487.458 1027.6 576.854C1011.03 668.601 902.155 734.015 801.819 786.253C703.77 837.301 585.926 888.799 470.757 866.766C359.338 845.451 326.659 738.151 241.819 679.12C171.09 629.907 55.5147 618.18 17.2994 551.25C-21.8529 482.679 13.4461 404.331 44.4046 333.368C75.1643 262.86 124.061 200.188 193.28 147.866C273.451 87.2662 359.718 26.705 470.757 11.0961Z" fill="url(#paint0_linear_59_328)"/>
<g clip-path="url(#clip0_59_328)">
<path d="M776.223 527.506L777.071 509.864C785.916 505.492 795.781 503.182 805.81 503.136C792.007 513.572 793.732 533.689 784.374 547.723C781.419 552.079 777.442 555.765 772.738 558.507C768.033 561.248 762.722 562.976 757.197 563.561L745.646 570.101C744.062 561.93 744.411 553.538 746.671 545.504C748.93 537.47 753.047 529.984 758.736 523.563C761.966 519.989 765.67 516.807 769.761 514.089C772.527 520.835 776.223 527.506 776.223 527.506Z" fill="#F2F2F2"/>
<path d="M192.323 508.173L164.449 500.369C160.794 486.634 160.819 472.281 164.522 458.558C176.001 481.352 208.798 486.572 227.701 504.647C233.549 510.326 237.941 517.15 240.551 524.612C243.16 532.075 243.92 539.984 242.775 547.755L248.876 566.005C235.221 565.093 221.942 561.455 209.954 555.341C197.966 549.226 187.554 540.781 179.435 530.587C174.941 524.826 171.25 518.565 168.449 511.952C180.271 510.712 192.323 508.173 192.323 508.173Z" fill="#F2F2F2"/>
<path d="M679.639 567.217C679.635 567.751 679.405 568.262 678.999 568.642C678.798 568.827 678.559 568.974 678.296 569.074C678.034 569.174 677.752 569.225 677.468 569.224H668.741C668.456 569.225 668.173 569.174 667.91 569.073C667.646 568.973 667.406 568.825 667.204 568.638C667.002 568.452 666.843 568.23 666.734 567.986C666.625 567.742 666.57 567.48 666.571 567.217V323.158C666.571 317.777 664.617 313.411 662.218 313.401H118.979C116.569 313.411 114.626 317.777 114.616 323.158V565.721C114.614 566.22 114.412 566.7 114.049 567.069C113.686 567.438 113.188 567.67 112.651 567.718C110.893 567.879 109.134 568.02 107.387 568.15C107.343 568.15 107.3 568.16 107.256 568.16C106.301 568.24 105.346 568.301 104.391 568.371H104.38C103.881 567.538 103.403 566.685 102.915 565.831C102.758 565.541 102.677 565.222 102.676 564.898V310.5C102.676 309.014 102.741 307.519 102.85 306.043C103.005 304.017 103.276 302 103.664 300.001C105.498 290.675 109.644 284.362 114.355 284.342H666.831C667.519 284.346 668.198 284.479 668.828 284.733C669.754 285.112 670.591 285.654 671.292 286.329C672.244 287.244 673.058 288.274 673.713 289.391C676.035 293.175 677.696 298.816 678.282 305.381C678.282 305.441 678.293 305.501 678.293 305.561C678.445 307.188 678.521 308.844 678.51 310.5L678.662 332.011L678.76 344.839L679.053 385.091L679.161 399.385L679.639 567.217Z" fill="#E6E6E6"/>
<path d="M478.024 209.928H422.662C421.879 209.929 421.128 210.218 420.575 210.73C420.022 211.243 419.712 211.938 419.713 212.662V293.541H480.981V212.662C480.981 212.303 480.905 211.948 480.757 211.616C480.608 211.284 480.39 210.982 480.116 210.728C479.841 210.474 479.515 210.273 479.156 210.136C478.797 209.998 478.413 209.928 478.024 209.928V209.928ZM450.529 255.882C448.798 255.874 447.14 255.235 445.916 254.103C444.691 252.971 444 251.437 443.992 249.836V240.508C443.992 238.904 444.681 237.366 445.907 236.233C447.133 235.099 448.796 234.462 450.529 234.462C452.263 234.462 453.926 235.099 455.152 236.233C456.378 237.366 457.067 238.904 457.067 240.508V249.836C457.059 251.437 456.367 252.971 455.143 254.103C453.919 255.235 452.261 255.874 450.529 255.882V255.882Z" fill="#CCCCCC"/>
<path d="M419.523 290.954V298.757C419.524 299.161 419.698 299.549 420.007 299.835C420.316 300.12 420.735 300.281 421.172 300.282H479.522C479.959 300.28 480.377 300.119 480.686 299.833C480.995 299.548 481.169 299.161 481.171 298.757V290.954H419.523Z" fill="#3F3D56"/>
<path d="M569.699 83.708H333.047C331.014 83.711 329.065 84.4593 327.627 85.7888C326.19 87.1184 325.381 88.9208 325.377 90.8011V238.484C325.379 240.365 326.188 242.168 327.626 243.498C329.064 244.827 331.014 245.575 333.047 245.577H569.699C571.733 245.575 573.682 244.827 575.12 243.498C576.558 242.168 577.367 240.365 577.369 238.484V90.8011C577.366 88.9208 576.557 87.1184 575.119 85.7888C573.681 84.4593 571.732 83.711 569.699 83.708V83.708Z" fill="#E6E6E6"/>
<path d="M567.724 88.8312H335.024C333.936 88.8334 332.892 89.2349 332.124 89.9475C331.355 90.6602 330.923 91.6258 330.922 92.6326V236.655C330.924 237.66 331.357 238.624 332.126 239.335C332.895 240.046 333.937 240.447 335.024 240.448H567.724C568.811 240.447 569.853 240.046 570.622 239.335C571.391 238.624 571.824 237.66 571.826 236.655V92.6325C571.825 91.6258 571.394 90.6601 570.625 89.9475C569.856 89.2349 568.812 88.8334 567.724 88.8312V88.8312Z" fill="white"/>
<path d="M522.398 302.998H383.954C383.576 302.998 383.201 302.919 382.859 302.769C382.517 302.618 382.216 302.398 381.977 302.126C381.738 301.854 381.568 301.536 381.479 301.196C381.39 300.855 381.384 300.5 381.462 300.157L383.611 290.722C383.733 290.194 384.047 289.721 384.5 289.381C384.953 289.041 385.519 288.854 386.102 288.852H520.25C520.834 288.854 521.399 289.04 521.853 289.381C522.306 289.721 522.62 290.194 522.742 290.722L524.89 300.157C524.968 300.5 524.962 300.855 524.873 301.196C524.784 301.536 524.614 301.854 524.376 302.126C524.137 302.398 523.835 302.618 523.493 302.769C523.151 302.919 522.777 302.998 522.398 302.998V302.998Z" fill="#CCCCCC"/>
<path d="M390.819 290.551H387.615C387.323 290.551 387.085 290.77 387.085 291.041V292.427C387.085 292.697 387.323 292.917 387.615 292.917H390.819C391.112 292.917 391.349 292.697 391.349 292.427V291.041C391.349 290.77 391.112 290.551 390.819 290.551Z" fill="#E6E6E6"/>
<path d="M399.347 290.551H396.143C395.85 290.551 395.613 290.77 395.613 291.041V292.427C395.613 292.697 395.85 292.917 396.143 292.917H399.347C399.64 292.917 399.877 292.697 399.877 292.427V291.041C399.877 290.77 399.64 290.551 399.347 290.551Z" fill="#E6E6E6"/>
<path d="M407.875 290.551H404.671C404.378 290.551 404.141 290.77 404.141 291.041V292.427C404.141 292.697 404.378 292.917 404.671 292.917H407.875C408.168 292.917 408.405 292.697 408.405 292.427V291.041C408.405 290.77 408.168 290.551 407.875 290.551Z" fill="#E6E6E6"/>
<path d="M416.403 290.551H413.199C412.906 290.551 412.669 290.77 412.669 291.041V292.427C412.669 292.697 412.906 292.917 413.199 292.917H416.403C416.696 292.917 416.933 292.697 416.933 292.427V291.041C416.933 290.77 416.696 290.551 416.403 290.551Z" fill="#E6E6E6"/>
<path d="M424.931 290.551H421.727C421.434 290.551 421.197 290.77 421.197 291.041V292.427C421.197 292.697 421.434 292.917 421.727 292.917H424.931C425.223 292.917 425.461 292.697 425.461 292.427V291.041C425.461 290.77 425.223 290.551 424.931 290.551Z" fill="#E6E6E6"/>
<path d="M433.459 290.551H430.254C429.962 290.551 429.724 290.77 429.724 291.041V292.427C429.724 292.697 429.962 292.917 430.254 292.917H433.459C433.751 292.917 433.988 292.697 433.988 292.427V291.041C433.988 290.77 433.751 290.551 433.459 290.551Z" fill="#E6E6E6"/>
<path d="M441.986 290.551H438.782C438.49 290.551 438.252 290.77 438.252 291.041V292.427C438.252 292.697 438.49 292.917 438.782 292.917H441.986C442.279 292.917 442.516 292.697 442.516 292.427V291.041C442.516 290.77 442.279 290.551 441.986 290.551Z" fill="#E6E6E6"/>
<path d="M450.514 290.551H447.31C447.017 290.551 446.78 290.77 446.78 291.041V292.427C446.78 292.697 447.017 292.917 447.31 292.917H450.514C450.807 292.917 451.044 292.697 451.044 292.427V291.041C451.044 290.77 450.807 290.551 450.514 290.551Z" fill="#E6E6E6"/>
<path d="M459.042 290.551H455.838C455.545 290.551 455.308 290.77 455.308 291.041V292.427C455.308 292.697 455.545 292.917 455.838 292.917H459.042C459.335 292.917 459.572 292.697 459.572 292.427V291.041C459.572 290.77 459.335 290.551 459.042 290.551Z" fill="#E6E6E6"/>
<path d="M467.57 290.551H464.366C464.073 290.551 463.836 290.77 463.836 291.041V292.427C463.836 292.697 464.073 292.917 464.366 292.917H467.57C467.863 292.917 468.1 292.697 468.1 292.427V291.041C468.1 290.77 467.863 290.551 467.57 290.551Z" fill="#E6E6E6"/>
<path d="M476.098 290.551H472.894C472.601 290.551 472.364 290.77 472.364 291.041V292.427C472.364 292.697 472.601 292.917 472.894 292.917H476.098C476.391 292.917 476.628 292.697 476.628 292.427V291.041C476.628 290.77 476.391 290.551 476.098 290.551Z" fill="#E6E6E6"/>
<path d="M484.626 290.551H481.421C481.129 290.551 480.892 290.77 480.892 291.041V292.427C480.892 292.697 481.129 292.917 481.421 292.917H484.626C484.918 292.917 485.155 292.697 485.155 292.427V291.041C485.155 290.77 484.918 290.551 484.626 290.551Z" fill="#E6E6E6"/>
<path d="M493.153 290.551H489.949C489.657 290.551 489.419 290.77 489.419 291.041V292.427C489.419 292.697 489.657 292.917 489.949 292.917H493.153C493.446 292.917 493.683 292.697 493.683 292.427V291.041C493.683 290.77 493.446 290.551 493.153 290.551Z" fill="#E6E6E6"/>
<path d="M501.681 290.551H498.477C498.185 290.551 497.947 290.77 497.947 291.041V292.427C497.947 292.697 498.185 292.917 498.477 292.917H501.681C501.974 292.917 502.211 292.697 502.211 292.427V291.041C502.211 290.77 501.974 290.551 501.681 290.551Z" fill="#E6E6E6"/>
<path d="M510.209 290.551H507.005C506.712 290.551 506.475 290.77 506.475 291.041V292.427C506.475 292.697 506.712 292.917 507.005 292.917H510.209C510.502 292.917 510.739 292.697 510.739 292.427V291.041C510.739 290.77 510.502 290.551 510.209 290.551Z" fill="#E6E6E6"/>
<path d="M518.737 290.551H515.533C515.24 290.551 515.003 290.77 515.003 291.041V292.427C515.003 292.697 515.24 292.917 515.533 292.917H518.737C519.03 292.917 519.267 292.697 519.267 292.427V291.041C519.267 290.77 519.03 290.551 518.737 290.551Z" fill="#E6E6E6"/>
<path d="M390.719 294.494H387.514C387.222 294.494 386.985 294.714 386.985 294.984V296.37C386.985 296.641 387.222 296.86 387.514 296.86H390.719C391.011 296.86 391.248 296.641 391.248 296.37V294.984C391.248 294.714 391.011 294.494 390.719 294.494Z" fill="#E6E6E6"/>
<path d="M399.247 294.494H396.042C395.75 294.494 395.512 294.714 395.512 294.984V296.37C395.512 296.641 395.75 296.86 396.042 296.86H399.247C399.539 296.86 399.776 296.641 399.776 296.37V294.984C399.776 294.714 399.539 294.494 399.247 294.494Z" fill="#E6E6E6"/>
<path d="M407.774 294.494H404.57C404.277 294.494 404.04 294.714 404.04 294.984V296.37C404.04 296.641 404.277 296.86 404.57 296.86H407.774C408.067 296.86 408.304 296.641 408.304 296.37V294.984C408.304 294.714 408.067 294.494 407.774 294.494Z" fill="#E6E6E6"/>
<path d="M416.302 294.494H413.098C412.805 294.494 412.568 294.714 412.568 294.984V296.37C412.568 296.641 412.805 296.86 413.098 296.86H416.302C416.595 296.86 416.832 296.641 416.832 296.37V294.984C416.832 294.714 416.595 294.494 416.302 294.494Z" fill="#E6E6E6"/>
<path d="M424.83 294.494H421.626C421.333 294.494 421.096 294.714 421.096 294.984V296.37C421.096 296.641 421.333 296.86 421.626 296.86H424.83C425.123 296.86 425.36 296.641 425.36 296.37V294.984C425.36 294.714 425.123 294.494 424.83 294.494Z" fill="#E6E6E6"/>
<path d="M433.358 294.494H430.154C429.861 294.494 429.624 294.714 429.624 294.984V296.37C429.624 296.641 429.861 296.86 430.154 296.86H433.358C433.651 296.86 433.888 296.641 433.888 296.37V294.984C433.888 294.714 433.651 294.494 433.358 294.494Z" fill="#E6E6E6"/>
<path d="M441.886 294.494H438.682C438.389 294.494 438.152 294.714 438.152 294.984V296.37C438.152 296.641 438.389 296.86 438.682 296.86H441.886C442.178 296.86 442.416 296.641 442.416 296.37V294.984C442.416 294.714 442.178 294.494 441.886 294.494Z" fill="#E6E6E6"/>
<path d="M450.413 294.494H447.209C446.917 294.494 446.679 294.714 446.679 294.984V296.37C446.679 296.641 446.917 296.86 447.209 296.86H450.413C450.706 296.86 450.943 296.641 450.943 296.37V294.984C450.943 294.714 450.706 294.494 450.413 294.494Z" fill="#E6E6E6"/>
<path d="M458.941 294.494H455.737C455.445 294.494 455.207 294.714 455.207 294.984V296.37C455.207 296.641 455.445 296.86 455.737 296.86H458.941C459.234 296.86 459.471 296.641 459.471 296.37V294.984C459.471 294.714 459.234 294.494 458.941 294.494Z" fill="#E6E6E6"/>
<path d="M467.469 294.494H464.265C463.972 294.494 463.735 294.714 463.735 294.984V296.37C463.735 296.641 463.972 296.86 464.265 296.86H467.469C467.762 296.86 467.999 296.641 467.999 296.37V294.984C467.999 294.714 467.762 294.494 467.469 294.494Z" fill="#E6E6E6"/>
<path d="M475.997 294.494H472.793C472.5 294.494 472.263 294.714 472.263 294.984V296.37C472.263 296.641 472.5 296.86 472.793 296.86H475.997C476.29 296.86 476.527 296.641 476.527 296.37V294.984C476.527 294.714 476.29 294.494 475.997 294.494Z" fill="#E6E6E6"/>
<path d="M484.525 294.494H481.321C481.028 294.494 480.791 294.714 480.791 294.984V296.37C480.791 296.641 481.028 296.86 481.321 296.86H484.525C484.818 296.86 485.055 296.641 485.055 296.37V294.984C485.055 294.714 484.818 294.494 484.525 294.494Z" fill="#E6E6E6"/>
<path d="M493.053 294.494H489.849C489.556 294.494 489.319 294.714 489.319 294.984V296.37C489.319 296.641 489.556 296.86 489.849 296.86H493.053C493.345 296.86 493.583 296.641 493.583 296.37V294.984C493.583 294.714 493.345 294.494 493.053 294.494Z" fill="#E6E6E6"/>
<path d="M501.581 294.494H498.376C498.084 294.494 497.847 294.714 497.847 294.984V296.37C497.847 296.641 498.084 296.86 498.376 296.86H501.581C501.873 296.86 502.11 296.641 502.11 296.37V294.984C502.11 294.714 501.873 294.494 501.581 294.494Z" fill="#E6E6E6"/>
<path d="M510.108 294.494H506.904C506.612 294.494 506.375 294.714 506.375 294.984V296.37C506.375 296.641 506.612 296.86 506.904 296.86H510.108C510.401 296.86 510.638 296.641 510.638 296.37V294.984C510.638 294.714 510.401 294.494 510.108 294.494Z" fill="#E6E6E6"/>
<path d="M518.636 294.494H515.432C515.14 294.494 514.902 294.714 514.902 294.984V296.37C514.902 296.641 515.14 296.86 515.432 296.86H518.636C518.929 296.86 519.166 296.641 519.166 296.37V294.984C519.166 294.714 518.929 294.494 518.636 294.494Z" fill="#E6E6E6"/>
<path d="M461.5 299.226H428.448C428.156 299.226 427.918 299.445 427.918 299.716V301.102C427.918 301.373 428.156 301.592 428.448 301.592H461.5C461.792 301.592 462.03 301.373 462.03 301.102V299.716C462.03 299.445 461.792 299.226 461.5 299.226Z" fill="#E6E6E6"/>
<path d="M556.026 108.674H338.29C338.064 108.67 337.849 108.583 337.69 108.434C337.532 108.284 337.443 108.083 337.443 107.874C337.443 107.664 337.532 107.463 337.69 107.313C337.849 107.164 338.064 107.077 338.29 107.073H556.026C556.253 107.077 556.468 107.164 556.626 107.313C556.785 107.463 556.873 107.664 556.873 107.874C556.873 108.083 556.785 108.284 556.626 108.434C556.468 108.583 556.253 108.67 556.026 108.674Z" fill="#CACACA"/>
<path d="M353.112 102.984C355.915 102.984 358.186 100.836 358.186 98.1869C358.186 95.5374 355.915 93.3896 353.112 93.3896C350.31 93.3896 348.038 95.5374 348.038 98.1869C348.038 100.836 350.31 102.984 353.112 102.984Z" fill="#CCCCCC"/>
<path d="M370.642 102.984C373.444 102.984 375.716 100.836 375.716 98.1869C375.716 95.5374 373.444 93.3896 370.642 93.3896C367.839 93.3896 365.567 95.5374 365.567 98.1869C365.567 100.836 367.839 102.984 370.642 102.984Z" fill="#CCCCCC"/>
<path d="M388.172 102.984C390.974 102.984 393.246 100.836 393.246 98.1869C393.246 95.5374 390.974 93.3896 388.172 93.3896C385.369 93.3896 383.097 95.5374 383.097 98.1869C383.097 100.836 385.369 102.984 388.172 102.984Z" fill="#CCCCCC"/>
<path d="M545.472 94.5787H533.02C532.773 94.5833 532.538 94.6771 532.365 94.8402C532.192 95.0032 532.095 95.2224 532.095 95.4506C532.095 95.6789 532.192 95.8981 532.365 96.0611C532.538 96.2241 532.773 96.318 533.02 96.3226H545.472C545.719 96.318 545.954 96.2241 546.127 96.0611C546.299 95.8981 546.396 95.6789 546.396 95.4506C546.396 95.2224 546.299 95.0032 546.127 94.8402C545.954 94.6771 545.719 94.5833 545.472 94.5787V94.5787Z" fill="#CCCCCC"/>
<path d="M545.472 97.8517H533.02C532.773 97.8563 532.538 97.9501 532.365 98.1132C532.192 98.2762 532.095 98.4954 532.095 98.7236C532.095 98.9519 532.192 99.1711 532.365 99.3341C532.538 99.4971 532.773 99.591 533.02 99.5956H545.472C545.719 99.591 545.954 99.4971 546.127 99.3341C546.299 99.1711 546.396 98.9519 546.396 98.7236C546.396 98.4954 546.299 98.2762 546.127 98.1132C545.954 97.9501 545.719 97.8563 545.472 97.8517V97.8517Z" fill="#CCCCCC"/>
<path d="M545.472 101.12H533.02C532.773 101.125 532.538 101.219 532.365 101.382C532.192 101.545 532.095 101.764 532.095 101.992C532.095 102.221 532.192 102.44 532.365 102.603C532.538 102.766 532.773 102.86 533.02 102.864H545.472C545.719 102.86 545.954 102.766 546.127 102.603C546.299 102.44 546.396 102.221 546.396 101.992C546.396 101.764 546.299 101.545 546.127 101.382C545.954 101.219 545.719 101.125 545.472 101.12V101.12Z" fill="#CCCCCC"/>
<path d="M344.799 312.006H279.675C277.372 312.006 275.163 312.852 273.535 314.358C271.906 315.864 270.991 317.906 270.991 320.036C270.991 322.166 271.906 324.208 273.535 325.714C275.163 327.22 277.372 328.066 279.675 328.066H303.554V390.301H320.92V328.066H344.799C347.102 328.066 349.311 327.22 350.939 325.714C352.568 324.208 353.483 322.166 353.483 320.036C353.483 317.906 352.568 315.864 350.939 314.358C349.311 312.852 347.102 312.006 344.799 312.006V312.006Z" fill="#3F3D56"/>
<path d="M387.783 424.767H213.593C196.706 424.71 180.405 419.037 167.667 408.783C154.93 398.53 146.606 384.381 144.217 368.921L138.051 347.947C125.289 304.483 105.849 262.937 80.3269 224.579C68.6616 207.059 62.6575 190.1 76.2948 173.773C76.4109 173.634 76.5251 173.496 76.6373 173.361C87.5752 160.196 142.017 157.345 159.764 156.791C160.466 156.769 161.169 156.758 161.876 156.758H270.221C270.928 156.758 271.631 156.769 272.332 156.791C281.899 157.049 291.213 159.697 299.284 164.455C307.355 169.213 313.883 175.902 318.176 183.814C322.756 191.891 324.886 200.965 324.34 210.071C323.794 219.178 320.593 227.978 315.076 235.538C277.017 288.408 265.365 321.559 277.294 343.028C288.834 363.794 324.206 374.411 388.613 376.439C405.921 376.984 413.865 389.448 413.92 400.797C413.975 411.854 406.337 424.061 389.441 424.735C388.892 424.757 388.34 424.767 387.783 424.767Z" fill="#3F3D56"/>
<path d="M243.184 567.806H308.309C310.612 567.806 312.82 566.96 314.449 565.454C316.077 563.948 316.992 561.905 316.992 559.775C316.992 557.646 316.077 555.603 314.449 554.097C312.82 552.591 310.612 551.745 308.309 551.745H284.43V416.235H267.063V551.745H243.184C240.881 551.745 238.672 552.591 237.044 554.097C235.415 555.603 234.5 557.646 234.5 559.775C234.5 561.905 235.415 563.948 237.044 565.454C238.672 566.96 240.881 567.806 243.184 567.806Z" fill="#3F3D56"/>
<path d="M302.128 513.175L313.347 518.81L343.046 480.836L326.487 472.518L302.128 513.175Z" fill="#FFB6B6"/>
<path d="M307.528 499.643L327.895 505.541L324.653 513.432L338.619 532.177C339.309 533.103 339.661 534.208 339.623 535.332C339.586 536.456 339.161 537.539 338.41 538.423C337.66 539.308 336.623 539.948 335.452 540.249C334.281 540.55 333.036 540.497 331.899 540.098L308.19 531.767L307.31 522.526L302.507 529.771L293.568 526.63L307.528 499.643Z" fill="#2F2E41"/>
<path d="M330.474 130.217C330.74 131.903 330.603 133.623 330.072 135.255C329.542 136.888 328.631 138.392 327.403 139.664C326.176 140.935 324.662 141.942 322.968 142.614C321.274 143.286 319.442 143.606 317.6 143.552L274.345 228.668L260.778 211.172L305.306 130.688C305.61 127.832 307.035 125.178 309.313 123.23C311.59 121.281 314.562 120.172 317.664 120.114C320.766 120.056 323.784 121.053 326.145 122.915C328.506 124.776 330.046 127.375 330.474 130.217Z" fill="#FFB6B6"/>
<path d="M186.928 245.877C186.928 245.877 185.769 260.747 203.953 263.663C222.137 266.58 270.748 238.152 278.732 233.787C286.715 229.422 301.593 174.503 301.593 174.503L288.654 154.265C272.68 172.953 260.135 190.185 259.373 202.417L186.928 245.877Z" fill="#C78989"/>
<path d="M276.91 326.636L276.828 326.643C276.387 326.681 275.74 326.737 274.915 326.807C273.265 326.946 270.905 327.143 268.064 327.371C262.381 327.827 254.778 328.407 247.089 328.904C239.399 329.402 231.63 329.817 225.615 329.942C222.606 330.005 220.047 329.995 218.159 329.888C217.214 329.835 216.45 329.758 215.888 329.657C215.607 329.606 215.388 329.552 215.227 329.496C215.148 329.468 215.089 329.443 215.047 329.42C215.005 329.398 214.99 329.385 214.989 329.384L214.989 329.384L214.989 329.383C214.717 329.122 214.448 328.681 214.194 328.06C213.943 327.447 213.723 326.696 213.531 325.851C213.147 324.16 212.886 322.138 212.71 320.183C212.534 318.231 212.443 316.359 212.397 314.974C212.374 314.283 212.361 313.713 212.355 313.317C212.352 313.119 212.35 312.964 212.349 312.859L212.348 312.74L212.348 312.71L212.348 312.702L212.348 312.701L212.348 312.7L211.848 312.702L212.348 312.7L212.348 312.639L212.333 312.579L208.538 297.499L270.753 286.943C270.781 295.628 272.327 305.572 273.878 313.393C274.672 317.396 275.469 320.85 276.067 323.304C276.366 324.53 276.615 325.507 276.79 326.178C276.835 326.351 276.876 326.504 276.91 326.636Z" fill="#FFB6B6" stroke="black"/>
<path d="M335.031 496.701L313.322 485.66C312.91 459.536 329.9 424.185 350.052 387.156C304.983 394.325 262.464 396.621 225.686 387.949C219.649 386.475 214.481 382.863 211.3 377.893C208.119 372.924 207.18 366.996 208.686 361.392C208.829 360.841 208.995 360.297 209.182 359.758C213.584 347.339 203.715 339.554 212.792 325.895C236.667 318.354 259.348 316.225 280.088 322.883L293.083 349.455L357.494 341.747C360.606 341.403 363.761 341.632 366.777 342.42C369.792 343.209 372.61 344.542 375.066 346.342C377.522 348.143 379.569 350.375 381.088 352.91C382.607 355.445 383.568 358.233 383.917 361.113C384.003 361.76 384.06 362.409 384.087 363.061C371.063 419.526 356.459 470.334 335.031 496.701Z" fill="#2F2E41"/>
<path d="M199.177 198.302L223.991 196.947C225.037 196.89 226.077 197.136 226.965 197.651C227.853 198.166 228.545 198.925 228.945 199.821L235.957 215.542L265.101 237.818C265.101 237.818 276.639 251.397 276.666 268.934C276.693 286.471 280.76 327.062 280.76 327.062C280.76 327.062 263.92 305.141 253.526 310.972C251.757 311.964 251.135 313.992 249.283 315.017C248.359 315.528 246.225 315.031 245.291 315.544C230.968 323.407 216.031 331.089 214.635 329.742C211.895 327.097 208.571 313.583 208.571 313.583L185.857 236.405C184.626 232.345 184.381 228.082 185.141 223.924C185.901 219.766 187.646 215.814 190.252 212.353C191.839 210.287 193.502 208.75 195.047 208.496C198.516 207.813 196.671 200.622 199.177 198.302Z" fill="#C78989"/>
<path d="M410.257 545.866L420.731 539.132L397.003 497.732L381.545 507.671L410.257 545.866Z" fill="#FFB6B6"/>
<path d="M411.84 518.088L395.425 531.657C369.323 504.76 349.591 467.038 332.869 424.2C289.055 412.333 256.014 393.195 227.169 370.471C217.384 362.814 210.048 352.977 218.394 343.649C218.784 343.213 219.191 342.791 219.616 342.384C229.47 333.018 254.458 334.803 269.094 326.223L301.788 358.541L299.732 367.206L361.142 386.443C364.096 387.401 366.817 388.89 369.146 390.825C371.476 392.759 373.368 395.102 374.713 397.716C376.059 400.331 376.831 403.166 376.986 406.058C377.141 408.949 376.676 411.841 375.616 414.566C375.386 415.182 375.128 415.788 374.842 416.384L411.84 518.088Z" fill="#2F2E41"/>
<path d="M404.15 543.136L420.917 530.925L426.127 537.856L450.742 537.787C451.958 537.783 453.143 538.139 454.124 538.803C455.106 539.466 455.832 540.402 456.198 541.475C456.563 542.547 456.548 543.699 456.155 544.763C455.763 545.827 455.012 546.747 454.014 547.389L433.188 560.777L424.445 556.229L428.197 563.985L420.345 569.033L404.15 543.136Z" fill="#2F2E41"/>
<path d="M235.819 392.803C234.123 392.137 232.605 391.135 231.372 389.868C230.14 388.601 229.222 387.099 228.685 385.469C228.148 383.838 228.004 382.119 228.263 380.431C228.523 378.744 229.179 377.13 230.186 375.702L174.011 297.305L197.224 295.673L248.458 372.67C250.939 374.393 252.65 376.898 253.268 379.71C253.885 382.522 253.366 385.446 251.808 387.928C250.25 390.409 247.762 392.276 244.815 393.175C241.868 394.073 238.667 393.941 235.819 392.803Z" fill="#FFB6B6"/>
<path d="M203.52 219.287C203.52 219.287 190.383 210.647 178.242 223.501C166.102 236.356 167.115 289.536 167.001 298.113C166.965 300.798 171.159 306.593 176.936 313.286C179.53 316.291 182.443 319.477 185.436 322.645C187.168 324.477 185.675 328.292 187.414 330.074C189.144 331.845 194.105 331.584 195.75 333.228C203.559 341.033 209.902 346.974 209.902 346.974L235.323 347.263C235.61 329.787 222.669 314.188 206.043 299.112L203.52 219.287Z" fill="#C78989"/>
<path d="M177.897 143.198C175.49 144.804 172.958 146.459 170.022 146.857C167.085 147.255 163.647 145.942 162.834 143.303C161.84 140.075 164.992 137.136 167.825 135.038L176.808 128.386C178.453 127.037 180.31 125.926 182.315 125.093C183.323 124.683 184.417 124.488 185.517 124.522C186.617 124.556 187.694 124.818 188.67 125.289C189.635 125.892 190.418 126.713 190.943 127.675C191.467 128.637 191.717 129.707 191.669 130.783C191.541 132.941 190.771 135.023 189.444 136.802C187.776 139.205 185.6 141.272 183.046 142.878C180.493 144.483 177.614 145.594 174.583 146.144" fill="#2F2E41"/>
<path d="M246.027 316.021H180.902C178.599 316.021 176.39 316.867 174.762 318.373C173.133 319.879 172.219 321.921 172.219 324.051C172.219 326.181 173.133 328.223 174.762 329.729C176.39 331.235 178.599 332.081 180.902 332.081H204.781V394.316H222.148V332.081H246.027C248.33 332.081 250.538 331.235 252.167 329.729C253.795 328.223 254.71 326.181 254.71 324.051C254.71 321.921 253.795 319.879 252.167 318.373C250.538 316.867 248.33 316.021 246.027 316.021V316.021Z" fill="#3F3D56"/>
<path d="M181.887 126.35C182.149 120.329 175.211 115.562 168.71 115.939C162.209 116.316 156.621 120.545 152.934 125.513C149.248 130.476 147.034 136.226 144.131 141.615C141.227 147.005 137.36 152.282 131.591 155.075C125.822 157.864 117.792 157.366 113.805 152.605C112.565 154.343 111.786 156.328 111.53 158.397C111.274 160.466 111.549 162.562 112.332 164.515C113.965 168.424 117.009 171.69 120.948 173.76C122.517 174.62 124.192 175.302 125.937 175.789C126.657 173.993 127.669 172.309 128.939 170.795C128.366 172.587 128.147 174.459 128.293 176.323C130.983 176.8 133.751 176.759 136.423 176.204C139.048 175.662 141.499 174.56 143.583 172.989C145.667 171.417 147.327 169.417 148.43 167.149C150.868 161.811 149.626 155.725 150.147 149.951C150.664 144.176 154.428 137.583 160.693 137.489C165.465 137.417 164.834 137.78 167.857 141.195" fill="#2F2E41"/>
<path d="M225.218 157.988C225.218 164.909 222.244 171.548 216.952 176.442C211.66 181.336 204.482 184.086 196.997 184.086C181.411 184.086 166.605 167.382 166.605 152.969C166.605 138.555 181.411 131.889 196.997 131.889C204.482 131.889 211.66 134.639 216.952 139.533C222.244 144.428 225.218 151.066 225.218 157.988V157.988Z" fill="#2F2E41"/>
<path d="M231.392 165.597C234.306 178.767 225.126 191.689 210.796 194.401C196.465 197.113 182.534 188.564 179.62 175.394C176.706 162.224 185.887 149.302 200.217 146.591C214.547 143.879 228.478 152.427 231.392 165.597Z" fill="#FFB6B6" stroke="black"/>
<path d="M239.328 160.999C231.358 163.012 223.311 165.121 220.203 160.999C219.599 158.266 218.455 155.659 216.827 153.31C216.521 155.941 215.854 158.524 214.841 160.999C204.772 163.023 195.361 163.507 187.228 160.999C186.11 162.869 185.461 164.948 185.329 167.082C184.927 166.848 184.506 166.644 184.07 166.47C183.811 166.334 183.524 166.252 183.229 166.228C182.933 166.203 182.635 166.238 182.355 166.329C182.161 166.437 181.997 166.585 181.875 166.76C181.753 166.936 181.675 167.135 181.649 167.343C181.595 167.761 181.617 168.186 181.714 168.598C181.828 170.033 182.292 171.427 183.071 172.673C183.379 173.102 183.781 173.468 184.25 173.746C184.719 174.024 185.245 174.209 185.795 174.289C186.924 180.161 195.911 188.101 195.911 188.101C168.776 189.105 168.776 172.081 168.776 155.98L172.032 149.957H182.887V136.908H213.278C220.186 136.91 226.811 139.449 231.696 143.966C236.581 148.484 239.326 154.61 239.328 160.999V160.999Z" fill="#2F2E41"/>
<path d="M486.624 570.711L10.3986 571.019C10.2285 571.02 10.0601 570.989 9.90283 570.929C9.7456 570.869 9.60269 570.781 9.48229 570.67C9.36188 570.559 9.26634 570.428 9.20116 570.282C9.13598 570.137 9.10242 569.981 9.10242 569.824C9.10242 569.667 9.13598 569.511 9.20116 569.366C9.26634 569.221 9.36188 569.089 9.48229 568.978C9.60269 568.867 9.7456 568.779 9.90283 568.719C10.0601 568.659 10.2285 568.629 10.3986 568.629L486.624 568.321C486.967 568.321 487.296 568.446 487.538 568.671C487.781 568.895 487.917 569.199 487.917 569.516C487.917 569.833 487.781 570.137 487.538 570.361C487.296 570.585 486.967 570.711 486.624 570.711Z" fill="#CACACA"/>
<path d="M804.651 570.711L558.533 571.019C558.363 571.02 558.194 570.989 558.037 570.929C557.88 570.869 557.737 570.781 557.617 570.67C557.496 570.559 557.401 570.428 557.335 570.282C557.27 570.137 557.237 569.981 557.237 569.824C557.237 569.667 557.27 569.511 557.335 569.366C557.401 569.221 557.496 569.089 557.617 568.978C557.737 568.867 557.88 568.779 558.037 568.719C558.194 568.659 558.363 568.629 558.533 568.629L804.651 568.321C804.994 568.321 805.322 568.446 805.565 568.671C805.807 568.895 805.943 569.199 805.943 569.516C805.943 569.833 805.807 570.137 805.565 570.361C805.322 570.585 804.994 570.711 804.651 570.711Z" fill="#CACACA"/>
<path d="M497.508 210.443H404.213C400.322 210.439 396.591 209.008 393.839 206.463C391.087 203.918 389.539 200.468 389.535 196.869V139.7C389.539 136.101 391.087 132.651 393.839 130.106C396.591 127.561 400.322 126.13 404.213 126.126H497.508C501.4 126.13 505.131 127.561 507.883 130.106C510.635 132.651 512.182 136.101 512.187 139.7V196.869C512.182 200.468 510.635 203.918 507.883 206.463C505.131 209.008 501.4 210.439 497.508 210.443ZM404.213 128.133C400.897 128.137 397.718 129.357 395.373 131.525C393.028 133.694 391.709 136.634 391.706 139.7V196.869C391.709 199.935 393.028 202.875 395.373 205.044C397.718 207.212 400.897 208.432 404.213 208.436H497.508C500.824 208.432 504.004 207.212 506.348 205.044C508.693 202.875 510.012 199.935 510.016 196.869V139.7C510.012 136.634 508.693 133.694 506.348 131.525C504.004 129.357 500.824 128.137 497.508 128.133H404.213Z" fill="#E6E6E6"/>
<path d="M431.856 144.194H406.901V146.201H431.856V144.194Z" fill="#E6E6E6"/>
<path d="M462.258 152.224H406.901V154.232H462.258V152.224Z" fill="#E6E6E6"/>
<path d="M462.258 159.25H406.901V161.258H462.258V159.25Z" fill="#E6E6E6"/>
<path d="M477.453 166.277H406.901V168.284H477.453V166.277Z" fill="#E6E6E6"/>
<path d="M443.806 173.303H406.901V175.311H443.806V173.303Z" fill="#E6E6E6"/>
<path d="M474.197 180.33H406.901V182.337H474.197V180.33Z" fill="#E6E6E6"/>
<path d="M418.841 187.356H406.901V189.364H418.841V187.356Z" fill="#E6E6E6"/>
</g>
<path fill-rule="evenodd" clip-rule="evenodd" d="M470.757 11.0961C594.574 -6.30922 746.7 -11.2885 834.104 57.7842C921.729 127.033 848.482 244.323 882.981 336.867C915.339 423.67 1043.75 487.458 1027.6 576.854C1011.03 668.601 902.155 734.015 801.819 786.253C703.77 837.301 585.926 888.799 470.757 866.766C359.338 845.451 326.659 738.151 241.819 679.12C171.09 629.907 55.5147 618.18 17.2994 551.25C-21.8529 482.679 13.4461 404.331 44.4046 333.368C75.1643 262.86 124.061 200.188 193.28 147.866C273.451 87.2662 359.718 26.705 470.757 11.0961Z" fill="url(#paint1_linear_59_328)"/>
<path d="M776.223 527.506L777.071 509.864C785.916 505.492 795.781 503.182 805.81 503.136C792.007 513.572 793.732 533.689 784.374 547.723C781.419 552.079 777.442 555.765 772.738 558.507C768.033 561.248 762.722 562.976 757.197 563.561L745.647 570.101C744.062 561.93 744.411 553.538 746.671 545.504C748.931 537.47 753.047 529.984 758.736 523.562C761.967 519.989 765.67 516.807 769.761 514.089C772.527 520.835 776.223 527.506 776.223 527.506Z" fill="#F2F2F2"/>
<path d="M192.323 508.173L164.449 500.369C160.794 486.634 160.819 472.281 164.522 458.557C176.001 481.352 208.798 486.572 227.701 504.647C233.55 510.326 237.941 517.15 240.551 524.612C243.16 532.074 243.92 539.984 242.775 547.755L248.876 566.005C235.221 565.093 221.942 561.455 209.954 555.34C197.966 549.226 187.554 540.781 179.435 530.587C174.941 524.826 171.25 518.565 168.449 511.951C180.271 510.711 192.323 508.173 192.323 508.173Z" fill="#F2F2F2"/>
<path d="M679.639 567.216C679.635 567.751 679.405 568.262 678.999 568.642C678.797 568.827 678.559 568.974 678.296 569.074C678.033 569.174 677.752 569.225 677.468 569.224H668.741C668.456 569.225 668.173 569.174 667.909 569.073C667.646 568.972 667.406 568.825 667.204 568.638C667.002 568.451 666.843 568.23 666.734 567.986C666.625 567.742 666.57 567.48 666.571 567.216V323.158C666.571 317.777 664.617 313.411 662.218 313.401H118.979C116.569 313.411 114.626 317.777 114.616 323.158V565.721C114.614 566.22 114.412 566.7 114.049 567.069C113.686 567.438 113.188 567.67 112.651 567.718C110.893 567.879 109.134 568.019 107.387 568.15C107.343 568.15 107.3 568.16 107.256 568.16C106.301 568.24 105.346 568.301 104.391 568.371H104.38C103.881 567.538 103.403 566.684 102.915 565.831C102.758 565.541 102.677 565.222 102.676 564.898V310.5C102.676 309.014 102.741 307.519 102.85 306.043C103.005 304.017 103.276 302 103.664 300.001C105.498 290.675 109.644 284.362 114.355 284.342H666.831C667.519 284.346 668.198 284.479 668.828 284.733C669.754 285.112 670.591 285.654 671.292 286.329C672.244 287.244 673.058 288.274 673.713 289.391C676.035 293.175 677.696 298.816 678.282 305.381C678.282 305.441 678.293 305.501 678.293 305.561C678.445 307.188 678.521 308.844 678.51 310.5L678.662 332.011L678.76 344.839L679.053 385.091L679.161 399.385L679.639 567.216Z" fill="#E6E6E6"/>
<path d="M478.024 209.928H422.662C421.879 209.929 421.128 210.217 420.575 210.73C420.022 211.243 419.712 211.938 419.713 212.662V293.541H480.981V212.662C480.982 212.303 480.905 211.947 480.757 211.616C480.608 211.284 480.39 210.982 480.116 210.728C479.841 210.474 479.515 210.273 479.156 210.135C478.797 209.998 478.413 209.927 478.024 209.928V209.928ZM450.529 255.882C448.798 255.874 447.14 255.235 445.916 254.103C444.692 252.971 444 251.437 443.992 249.836V240.507C443.992 238.904 444.681 237.366 445.907 236.232C447.133 235.099 448.796 234.462 450.529 234.462C452.263 234.462 453.926 235.099 455.152 236.232C456.378 237.366 457.067 238.904 457.067 240.507V249.836C457.059 251.437 456.367 252.971 455.143 254.103C453.919 255.235 452.261 255.874 450.529 255.882V255.882Z" fill="#CCCCCC"/>
<path d="M419.523 290.954V298.757C419.524 299.161 419.698 299.549 420.007 299.835C420.316 300.12 420.735 300.281 421.172 300.282H479.522C479.959 300.28 480.377 300.119 480.686 299.833C480.995 299.548 481.169 299.161 481.171 298.757V290.954H419.523Z" fill="#3F3D56"/>
<path d="M569.699 83.7079H333.047C331.014 83.7109 329.065 84.4592 327.628 85.7888C326.19 87.1183 325.381 88.9208 325.377 90.801V238.484C325.379 240.365 326.188 242.168 327.626 243.497C329.064 244.827 331.014 245.575 333.047 245.577H569.699C571.733 245.575 573.683 244.827 575.121 243.497C576.559 242.168 577.367 240.365 577.369 238.484V90.801C577.366 88.9208 576.557 87.1183 575.119 85.7888C573.681 84.4592 571.732 83.7109 569.699 83.7079V83.7079Z" fill="#E6E6E6"/>
<path d="M567.724 88.8312H335.025C333.936 88.8334 332.893 89.2348 332.124 89.9475C331.355 90.6601 330.923 91.6257 330.923 92.6325V236.655C330.924 237.66 331.357 238.624 332.126 239.335C332.895 240.046 333.937 240.447 335.025 240.448H567.724C568.811 240.447 569.853 240.046 570.622 239.335C571.391 238.624 571.824 237.66 571.826 236.655V92.6325C571.826 91.6257 571.394 90.6601 570.625 89.9474C569.856 89.2348 568.812 88.8334 567.724 88.8312V88.8312Z" fill="white"/>
<path d="M522.398 302.997H383.955C383.576 302.997 383.201 302.919 382.859 302.768C382.517 302.618 382.216 302.398 381.977 302.126C381.738 301.854 381.568 301.536 381.479 301.195C381.39 300.855 381.384 300.5 381.462 300.157L383.611 290.722C383.733 290.194 384.047 289.721 384.5 289.38C384.953 289.04 385.519 288.854 386.102 288.852H520.25C520.834 288.854 521.399 289.04 521.853 289.38C522.306 289.721 522.62 290.194 522.742 290.722L524.89 300.157C524.968 300.5 524.963 300.855 524.874 301.195C524.785 301.536 524.614 301.854 524.376 302.126C524.137 302.398 523.835 302.618 523.493 302.768C523.151 302.919 522.777 302.997 522.398 302.997V302.997Z" fill="#CCCCCC"/>
<path d="M390.819 290.551H387.615C387.323 290.551 387.085 290.77 387.085 291.041V292.427C387.085 292.697 387.323 292.917 387.615 292.917H390.819C391.112 292.917 391.349 292.697 391.349 292.427V291.041C391.349 290.77 391.112 290.551 390.819 290.551Z" fill="#E6E6E6"/>
<path d="M399.347 290.551H396.143C395.851 290.551 395.613 290.77 395.613 291.041V292.427C395.613 292.697 395.851 292.917 396.143 292.917H399.347C399.64 292.917 399.877 292.697 399.877 292.427V291.041C399.877 290.77 399.64 290.551 399.347 290.551Z" fill="#E6E6E6"/>
<path d="M407.875 290.551H404.671C404.378 290.551 404.141 290.77 404.141 291.041V292.427C404.141 292.697 404.378 292.917 404.671 292.917H407.875C408.168 292.917 408.405 292.697 408.405 292.427V291.041C408.405 290.77 408.168 290.551 407.875 290.551Z" fill="#E6E6E6"/>
<path d="M416.403 290.551H413.199C412.906 290.551 412.669 290.77 412.669 291.041V292.427C412.669 292.697 412.906 292.917 413.199 292.917H416.403C416.696 292.917 416.933 292.697 416.933 292.427V291.041C416.933 290.77 416.696 290.551 416.403 290.551Z" fill="#E6E6E6"/>
<path d="M424.931 290.551H421.727C421.434 290.551 421.197 290.77 421.197 291.041V292.427C421.197 292.697 421.434 292.917 421.727 292.917H424.931C425.223 292.917 425.461 292.697 425.461 292.427V291.041C425.461 290.77 425.223 290.551 424.931 290.551Z" fill="#E6E6E6"/>
<path d="M433.459 290.551H430.255C429.962 290.551 429.725 290.77 429.725 291.041V292.427C429.725 292.697 429.962 292.917 430.255 292.917H433.459C433.751 292.917 433.989 292.697 433.989 292.427V291.041C433.989 290.77 433.751 290.551 433.459 290.551Z" fill="#E6E6E6"/>
<path d="M441.986 290.551H438.782C438.49 290.551 438.252 290.77 438.252 291.041V292.427C438.252 292.697 438.49 292.917 438.782 292.917H441.986C442.279 292.917 442.516 292.697 442.516 292.427V291.041C442.516 290.77 442.279 290.551 441.986 290.551Z" fill="#E6E6E6"/>
<path d="M450.514 290.551H447.31C447.018 290.551 446.78 290.77 446.78 291.041V292.427C446.78 292.697 447.018 292.917 447.31 292.917H450.514C450.807 292.917 451.044 292.697 451.044 292.427V291.041C451.044 290.77 450.807 290.551 450.514 290.551Z" fill="#E6E6E6"/>
<path d="M459.042 290.551H455.838C455.546 290.551 455.308 290.77 455.308 291.041V292.427C455.308 292.697 455.546 292.917 455.838 292.917H459.042C459.335 292.917 459.572 292.697 459.572 292.427V291.041C459.572 290.77 459.335 290.551 459.042 290.551Z" fill="#E6E6E6"/>
<path d="M467.57 290.551H464.366C464.073 290.551 463.836 290.77 463.836 291.041V292.427C463.836 292.697 464.073 292.917 464.366 292.917H467.57C467.863 292.917 468.1 292.697 468.1 292.427V291.041C468.1 290.77 467.863 290.551 467.57 290.551Z" fill="#E6E6E6"/>
<path d="M476.098 290.551H472.894C472.601 290.551 472.364 290.77 472.364 291.041V292.427C472.364 292.697 472.601 292.917 472.894 292.917H476.098C476.391 292.917 476.628 292.697 476.628 292.427V291.041C476.628 290.77 476.391 290.551 476.098 290.551Z" fill="#E6E6E6"/>
<path d="M484.626 290.551H481.422C481.129 290.551 480.892 290.77 480.892 291.041V292.427C480.892 292.697 481.129 292.917 481.422 292.917H484.626C484.918 292.917 485.156 292.697 485.156 292.427V291.041C485.156 290.77 484.918 290.551 484.626 290.551Z" fill="#E6E6E6"/>
<path d="M493.154 290.551H489.949C489.657 290.551 489.42 290.77 489.42 291.041V292.427C489.42 292.697 489.657 292.917 489.949 292.917H493.154C493.446 292.917 493.683 292.697 493.683 292.427V291.041C493.683 290.77 493.446 290.551 493.154 290.551Z" fill="#E6E6E6"/>
<path d="M501.681 290.551H498.477C498.185 290.551 497.947 290.77 497.947 291.041V292.427C497.947 292.697 498.185 292.917 498.477 292.917H501.681C501.974 292.917 502.211 292.697 502.211 292.427V291.041C502.211 290.77 501.974 290.551 501.681 290.551Z" fill="#E6E6E6"/>
<path d="M510.209 290.551H507.005C506.713 290.551 506.475 290.77 506.475 291.041V292.427C506.475 292.697 506.713 292.917 507.005 292.917H510.209C510.502 292.917 510.739 292.697 510.739 292.427V291.041C510.739 290.77 510.502 290.551 510.209 290.551Z" fill="#E6E6E6"/>
<path d="M518.737 290.551H515.533C515.24 290.551 515.003 290.77 515.003 291.041V292.427C515.003 292.697 515.24 292.917 515.533 292.917H518.737C519.03 292.917 519.267 292.697 519.267 292.427V291.041C519.267 290.77 519.03 290.551 518.737 290.551Z" fill="#E6E6E6"/>
<path d="M390.719 294.494H387.515C387.222 294.494 386.985 294.714 386.985 294.984V296.37C386.985 296.641 387.222 296.86 387.515 296.86H390.719C391.011 296.86 391.249 296.641 391.249 296.37V294.984C391.249 294.714 391.011 294.494 390.719 294.494Z" fill="#E6E6E6"/>
<path d="M399.246 294.494H396.042C395.75 294.494 395.512 294.714 395.512 294.984V296.37C395.512 296.641 395.75 296.86 396.042 296.86H399.246C399.539 296.86 399.776 296.641 399.776 296.37V294.984C399.776 294.714 399.539 294.494 399.246 294.494Z" fill="#E6E6E6"/>
<path d="M407.774 294.494H404.57C404.278 294.494 404.04 294.714 404.04 294.984V296.37C404.04 296.641 404.278 296.86 404.57 296.86H407.774C408.067 296.86 408.304 296.641 408.304 296.37V294.984C408.304 294.714 408.067 294.494 407.774 294.494Z" fill="#E6E6E6"/>
<path d="M416.302 294.494H413.098C412.805 294.494 412.568 294.714 412.568 294.984V296.37C412.568 296.641 412.805 296.86 413.098 296.86H416.302C416.595 296.86 416.832 296.641 416.832 296.37V294.984C416.832 294.714 416.595 294.494 416.302 294.494Z" fill="#E6E6E6"/>
<path d="M424.83 294.494H421.626C421.333 294.494 421.096 294.714 421.096 294.984V296.37C421.096 296.641 421.333 296.86 421.626 296.86H424.83C425.123 296.86 425.36 296.641 425.36 296.37V294.984C425.36 294.714 425.123 294.494 424.83 294.494Z" fill="#E6E6E6"/>
<path d="M433.358 294.494H430.154C429.861 294.494 429.624 294.714 429.624 294.984V296.37C429.624 296.641 429.861 296.86 430.154 296.86H433.358C433.651 296.86 433.888 296.641 433.888 296.37V294.984C433.888 294.714 433.651 294.494 433.358 294.494Z" fill="#E6E6E6"/>
<path d="M441.886 294.494H438.682C438.389 294.494 438.152 294.714 438.152 294.984V296.37C438.152 296.641 438.389 296.86 438.682 296.86H441.886C442.178 296.86 442.416 296.641 442.416 296.37V294.984C442.416 294.714 442.178 294.494 441.886 294.494Z" fill="#E6E6E6"/>
<path d="M450.414 294.494H447.209C446.917 294.494 446.68 294.714 446.68 294.984V296.37C446.68 296.641 446.917 296.86 447.209 296.86H450.414C450.706 296.86 450.943 296.641 450.943 296.37V294.984C450.943 294.714 450.706 294.494 450.414 294.494Z" fill="#E6E6E6"/>
<path d="M458.941 294.494H455.737C455.445 294.494 455.207 294.714 455.207 294.984V296.37C455.207 296.641 455.445 296.86 455.737 296.86H458.941C459.234 296.86 459.471 296.641 459.471 296.37V294.984C459.471 294.714 459.234 294.494 458.941 294.494Z" fill="#E6E6E6"/>
<path d="M467.469 294.494H464.265C463.972 294.494 463.735 294.714 463.735 294.984V296.37C463.735 296.641 463.972 296.86 464.265 296.86H467.469C467.762 296.86 467.999 296.641 467.999 296.37V294.984C467.999 294.714 467.762 294.494 467.469 294.494Z" fill="#E6E6E6"/>
<path d="M475.997 294.494H472.793C472.5 294.494 472.263 294.714 472.263 294.984V296.37C472.263 296.641 472.5 296.86 472.793 296.86H475.997C476.29 296.86 476.527 296.641 476.527 296.37V294.984C476.527 294.714 476.29 294.494 475.997 294.494Z" fill="#E6E6E6"/>
<path d="M484.525 294.494H481.321C481.028 294.494 480.791 294.714 480.791 294.984V296.37C480.791 296.641 481.028 296.86 481.321 296.86H484.525C484.818 296.86 485.055 296.641 485.055 296.37V294.984C485.055 294.714 484.818 294.494 484.525 294.494Z" fill="#E6E6E6"/>
<path d="M493.053 294.494H489.849C489.556 294.494 489.319 294.714 489.319 294.984V296.37C489.319 296.641 489.556 296.86 489.849 296.86H493.053C493.345 296.86 493.583 296.641 493.583 296.37V294.984C493.583 294.714 493.345 294.494 493.053 294.494Z" fill="#E6E6E6"/>
<path d="M501.581 294.494H498.377C498.084 294.494 497.847 294.714 497.847 294.984V296.37C497.847 296.641 498.084 296.86 498.377 296.86H501.581C501.873 296.86 502.111 296.641 502.111 296.37V294.984C502.111 294.714 501.873 294.494 501.581 294.494Z" fill="#E6E6E6"/>
<path d="M510.109 294.494H506.905C506.612 294.494 506.375 294.714 506.375 294.984V296.37C506.375 296.641 506.612 296.86 506.905 296.86H510.109C510.401 296.86 510.638 296.641 510.638 296.37V294.984C510.638 294.714 510.401 294.494 510.109 294.494Z" fill="#E6E6E6"/>
<path d="M518.636 294.494H515.432C515.14 294.494 514.902 294.714 514.902 294.984V296.37C514.902 296.641 515.14 296.86 515.432 296.86H518.636C518.929 296.86 519.166 296.641 519.166 296.37V294.984C519.166 294.714 518.929 294.494 518.636 294.494Z" fill="#E6E6E6"/>
<path d="M461.5 299.226H428.448C428.156 299.226 427.918 299.445 427.918 299.716V301.102C427.918 301.372 428.156 301.592 428.448 301.592H461.5C461.793 301.592 462.03 301.372 462.03 301.102V299.716C462.03 299.445 461.793 299.226 461.5 299.226Z" fill="#E6E6E6"/>
<path d="M344.799 312.006H279.675C277.372 312.006 275.163 312.852 273.535 314.358C271.906 315.864 270.991 317.906 270.991 320.036C270.991 322.166 271.906 324.208 273.535 325.714C275.163 327.22 277.372 328.066 279.675 328.066H303.554V390.301H320.92V328.066H344.799C347.102 328.066 349.311 327.22 350.939 325.714C352.568 324.208 353.483 322.166 353.483 320.036C353.483 317.906 352.568 315.864 350.939 314.358C349.311 312.852 347.102 312.006 344.799 312.006V312.006Z" fill="#3F3D56"/>
<path d="M387.783 424.767H213.593C196.706 424.71 180.405 419.037 167.667 408.783C154.93 398.53 146.606 384.381 144.217 368.921L138.051 347.947C125.289 304.483 105.849 262.937 80.327 224.579C68.6617 207.059 62.6576 190.1 76.2949 173.772C76.411 173.633 76.5252 173.496 76.6375 173.361C87.5754 160.195 142.017 157.345 159.764 156.791C160.466 156.769 161.169 156.758 161.876 156.758H270.221C270.928 156.758 271.631 156.769 272.332 156.791C281.899 157.049 291.213 159.697 299.284 164.455C307.355 169.212 313.883 175.902 318.176 183.814C322.756 191.891 324.886 200.965 324.34 210.071C323.794 219.178 320.593 227.978 315.076 235.538C277.017 288.408 265.365 321.559 277.294 343.028C288.834 363.793 324.206 374.411 388.613 376.439C405.921 376.984 413.865 389.448 413.921 400.797C413.975 411.853 406.337 424.06 389.441 424.735C388.892 424.756 388.34 424.767 387.783 424.767Z" fill="#3F3D56"/>
<path d="M243.184 567.806H308.309C310.612 567.806 312.82 566.96 314.449 565.454C316.077 563.948 316.992 561.905 316.992 559.775C316.992 557.646 316.077 555.603 314.449 554.097C312.82 552.591 310.612 551.745 308.309 551.745H284.43V416.235H267.063V551.745H243.184C240.881 551.745 238.672 552.591 237.044 554.097C235.415 555.603 234.5 557.646 234.5 559.775C234.5 561.905 235.415 563.948 237.044 565.454C238.672 566.96 240.881 567.806 243.184 567.806Z" fill="#3F3D56"/>
<path d="M302.128 513.175L313.347 518.81L343.046 480.836L326.487 472.518L302.128 513.175Z" fill="#FFB6B6"/>
<path d="M307.528 499.643L327.895 505.541L324.653 513.431L338.619 532.177C339.309 533.102 339.661 534.208 339.623 535.332C339.586 536.455 339.161 537.539 338.41 538.423C337.66 539.308 336.623 539.947 335.452 540.248C334.281 540.55 333.036 540.497 331.9 540.097L308.19 531.767L307.31 522.526L302.507 529.771L293.568 526.63L307.528 499.643Z" fill="#2F2E41"/>
<path d="M330.474 130.217C330.74 131.903 330.603 133.623 330.072 135.255C329.542 136.888 328.631 138.392 327.403 139.664C326.176 140.935 324.662 141.942 322.968 142.614C321.275 143.286 319.442 143.606 317.6 143.552L274.345 228.667L260.778 211.172L305.306 130.688C305.61 127.832 307.035 125.178 309.313 123.23C311.59 121.281 314.562 120.172 317.664 120.114C320.766 120.056 323.784 121.053 326.145 122.914C328.506 124.776 330.046 127.375 330.474 130.217Z" fill="#FFB6B6"/>
<path d="M186.928 245.877C186.928 245.877 185.769 260.747 203.953 263.663C222.137 266.579 270.748 238.152 278.732 233.787C286.715 229.422 301.593 174.503 301.593 174.503L288.654 154.265C272.68 172.952 260.135 190.184 259.374 202.416L186.928 245.877Z" fill="#C78989"/>
<path d="M276.91 326.636L276.828 326.643C276.387 326.681 275.74 326.737 274.915 326.807C273.265 326.946 270.905 327.143 268.064 327.371C262.382 327.827 254.778 328.407 247.089 328.904C239.399 329.402 231.63 329.816 225.615 329.942C222.607 330.005 220.047 329.995 218.159 329.888C217.214 329.835 216.45 329.758 215.888 329.657C215.607 329.606 215.388 329.552 215.228 329.496C215.148 329.468 215.089 329.443 215.047 329.42C215.004 329.397 214.989 329.384 214.99 329.384L214.989 329.383C214.718 329.122 214.448 328.681 214.194 328.06C213.943 327.447 213.723 326.696 213.531 325.851C213.147 324.16 212.886 322.138 212.71 320.183C212.534 318.231 212.443 316.359 212.397 314.974C212.374 314.283 212.362 313.713 212.355 313.317C212.352 313.119 212.35 312.964 212.349 312.859L212.348 312.74L212.348 312.71L212.348 312.702L212.348 312.701L212.348 312.7L211.848 312.702L212.348 312.7L212.348 312.639L212.333 312.579L208.538 297.499L270.753 286.943C270.781 295.628 272.328 305.572 273.878 313.393C274.672 317.396 275.469 320.85 276.067 323.304C276.366 324.53 276.615 325.507 276.79 326.178C276.835 326.351 276.876 326.504 276.91 326.636Z" fill="#FFB6B6" stroke="black"/>
<path d="M335.031 496.701L313.323 485.659C312.91 459.536 329.9 424.184 350.052 387.156C304.983 394.324 262.464 396.621 225.687 387.949C219.649 386.475 214.481 382.862 211.3 377.893C208.119 372.923 207.18 366.996 208.686 361.392C208.829 360.841 208.995 360.297 209.183 359.758C213.584 347.339 203.715 339.554 212.792 325.895C236.667 318.354 259.348 316.225 280.088 322.883L293.083 349.455L357.494 341.747C360.606 341.403 363.761 341.631 366.777 342.42C369.793 343.209 372.61 344.542 375.066 346.342C377.522 348.142 379.569 350.374 381.088 352.91C382.607 355.445 383.568 358.233 383.917 361.113C384.004 361.76 384.06 362.409 384.087 363.061C371.063 419.526 356.459 470.333 335.031 496.701Z" fill="#2F2E41"/>
<path d="M199.178 198.302L223.991 196.947C225.038 196.889 226.077 197.136 226.965 197.651C227.853 198.166 228.545 198.925 228.945 199.821L235.957 215.541L265.101 237.817C265.101 237.817 276.639 251.397 276.666 268.934C276.693 286.471 280.76 327.062 280.76 327.062C280.76 327.062 263.92 305.141 253.526 310.972C251.757 311.963 251.135 313.992 249.283 315.017C248.359 315.528 246.225 315.031 245.292 315.544C230.969 323.407 216.031 331.089 214.635 329.742C211.895 327.097 208.571 313.583 208.571 313.583L185.857 236.405C184.626 232.345 184.381 228.082 185.141 223.924C185.901 219.765 187.647 215.814 190.253 212.353C191.839 210.287 193.502 208.75 195.047 208.496C198.516 207.813 196.671 200.622 199.178 198.302Z" fill="#C78989"/>
<path d="M410.257 545.866L420.731 539.132L397.003 497.732L381.545 507.671L410.257 545.866Z" fill="#FFB6B6"/>
<path d="M411.84 518.088L395.425 531.657C369.323 504.76 349.591 467.038 332.869 424.2C289.055 412.333 256.014 393.195 227.169 370.471C217.384 362.814 210.048 352.976 218.394 343.649C218.784 343.213 219.191 342.791 219.616 342.384C229.47 333.018 254.458 334.803 269.094 326.223L301.788 358.541L299.732 367.205L361.142 386.443C364.096 387.4 366.817 388.89 369.146 390.825C371.476 392.759 373.368 395.102 374.713 397.716C376.059 400.33 376.831 403.165 376.986 406.057C377.141 408.949 376.676 411.841 375.616 414.566C375.386 415.182 375.128 415.788 374.842 416.384L411.84 518.088Z" fill="#2F2E41"/>
<path d="M404.15 543.136L420.917 530.925L426.127 537.856L450.742 537.787C451.958 537.783 453.143 538.139 454.124 538.802C455.106 539.466 455.832 540.402 456.198 541.474C456.563 542.547 456.548 543.699 456.156 544.763C455.763 545.827 455.012 546.747 454.014 547.389L433.188 560.777L424.445 556.229L428.197 563.985L420.345 569.033L404.15 543.136Z" fill="#2F2E41"/>
<path d="M235.819 392.802C234.123 392.136 232.605 391.135 231.372 389.867C230.14 388.6 229.223 387.099 228.685 385.468C228.148 383.838 228.004 382.119 228.264 380.431C228.523 378.744 229.179 377.129 230.186 375.702L174.011 297.305L197.224 295.673L248.458 372.67C250.939 374.393 252.651 376.898 253.268 379.71C253.885 382.522 253.366 385.446 251.808 387.927C250.25 390.409 247.762 392.276 244.815 393.174C241.868 394.073 238.668 393.941 235.819 392.802Z" fill="#FFB6B6"/>
<path d="M203.52 219.287C203.52 219.287 190.383 210.647 178.242 223.501C166.102 236.356 167.115 289.537 167.001 298.113C166.965 300.798 171.159 306.593 176.936 313.286C179.53 316.291 182.443 319.477 185.436 322.645C187.168 324.478 185.675 328.292 187.414 330.074C189.144 331.845 194.105 331.584 195.75 333.228C203.559 341.033 209.902 346.974 209.902 346.974L235.323 347.263C235.61 329.787 222.669 314.188 206.043 299.112L203.52 219.287Z" fill="#C78989"/>
<path d="M177.897 143.198C175.49 144.804 172.958 146.459 170.022 146.857C167.085 147.255 163.647 145.942 162.834 143.302C161.84 140.075 164.992 137.136 167.825 135.038L176.808 128.386C178.453 127.037 180.31 125.926 182.315 125.093C183.323 124.683 184.417 124.487 185.517 124.521C186.617 124.555 187.694 124.818 188.67 125.289C189.635 125.892 190.418 126.713 190.942 127.675C191.467 128.637 191.717 129.707 191.669 130.783C191.541 132.941 190.771 135.023 189.444 136.802C187.776 139.205 185.6 141.272 183.046 142.878C180.493 144.483 177.614 145.594 174.583 146.144" fill="#2F2E41"/>
<path d="M246.027 316.021H180.902C178.599 316.021 176.39 316.867 174.762 318.373C173.133 319.879 172.219 321.921 172.219 324.051C172.219 326.181 173.133 328.223 174.762 329.729C176.39 331.235 178.599 332.081 180.902 332.081H204.781V394.315H222.148V332.081H246.027C248.33 332.081 250.538 331.235 252.167 329.729C253.795 328.223 254.71 326.181 254.71 324.051C254.71 321.921 253.795 319.879 252.167 318.373C250.538 316.867 248.33 316.021 246.027 316.021V316.021Z" fill="#3F3D56"/>
<path d="M181.887 126.35C182.149 120.329 175.211 115.562 168.71 115.939C162.209 116.316 156.621 120.545 152.934 125.513C149.248 130.476 147.034 136.226 144.131 141.615C141.227 147.005 137.361 152.282 131.591 155.075C125.822 157.864 117.792 157.366 113.805 152.605C112.565 154.343 111.786 156.328 111.53 158.397C111.274 160.466 111.549 162.562 112.332 164.515C113.965 168.424 117.009 171.69 120.949 173.76C122.517 174.62 124.192 175.302 125.937 175.789C126.657 173.993 127.669 172.309 128.94 170.795C128.366 172.587 128.147 174.459 128.293 176.323C130.983 176.8 133.751 176.759 136.423 176.204C139.048 175.662 141.499 174.56 143.583 172.989C145.667 171.417 147.327 169.417 148.43 167.149C150.868 161.811 149.626 155.725 150.148 149.951C150.665 144.176 154.428 137.583 160.694 137.489C165.465 137.417 164.834 137.78 167.857 141.195" fill="#2F2E41"/>
<path d="M225.218 157.988C225.218 164.909 222.244 171.547 216.952 176.442C211.66 181.336 204.482 184.086 196.997 184.086C181.411 184.086 166.605 167.382 166.605 152.969C166.605 138.555 181.411 131.889 196.997 131.889C204.482 131.889 211.66 134.639 216.952 139.533C222.244 144.428 225.218 151.066 225.218 157.988V157.988Z" fill="#2F2E41"/>
<path d="M231.392 165.597C234.306 178.767 225.126 191.689 210.796 194.401C196.465 197.113 182.534 188.564 179.62 175.394C176.706 162.224 185.887 149.302 200.217 146.591C214.547 143.879 228.478 152.427 231.392 165.597Z" fill="#FFB6B6" stroke="black"/>
<path d="M239.328 160.999C231.358 163.012 223.311 165.121 220.203 160.999C219.599 158.266 218.455 155.659 216.828 153.31C216.521 155.941 215.854 158.524 214.841 160.999C204.772 163.023 195.361 163.507 187.228 160.999C186.11 162.869 185.461 164.948 185.329 167.082C184.927 166.848 184.506 166.644 184.07 166.47C183.811 166.334 183.524 166.252 183.229 166.228C182.933 166.203 182.635 166.238 182.355 166.329C182.161 166.437 181.997 166.585 181.875 166.76C181.753 166.936 181.675 167.135 181.649 167.343C181.595 167.761 181.617 168.186 181.714 168.598C181.828 170.033 182.292 171.427 183.071 172.673C183.379 173.102 183.781 173.468 184.25 173.746C184.719 174.024 185.245 174.209 185.796 174.289C186.924 180.161 195.912 188.101 195.912 188.101C168.776 189.105 168.776 172.081 168.776 155.98L172.032 149.957H182.887V136.908H213.278C220.187 136.91 226.811 139.449 231.696 143.966C236.581 148.484 239.326 154.61 239.328 160.999V160.999Z" fill="#2F2E41"/>
<path d="M486.624 570.711L10.3986 571.019C10.2285 571.02 10.0601 570.989 9.90283 570.929C9.7456 570.869 9.60269 570.782 9.48229 570.67C9.36188 570.559 9.26634 570.428 9.20116 570.282C9.13598 570.137 9.10242 569.981 9.10242 569.824C9.10242 569.667 9.13598 569.511 9.20116 569.366C9.26634 569.221 9.36188 569.089 9.48229 568.978C9.60269 568.867 9.7456 568.779 9.90283 568.719C10.0601 568.659 10.2285 568.629 10.3986 568.629L486.624 568.321C486.967 568.321 487.296 568.446 487.538 568.671C487.78 568.895 487.917 569.199 487.917 569.516C487.917 569.833 487.78 570.137 487.538 570.361C487.296 570.585 486.967 570.711 486.624 570.711Z" fill="#CACACA"/>
<path d="M804.651 570.711L558.533 571.019C558.363 571.02 558.195 570.989 558.037 570.929C557.88 570.869 557.737 570.782 557.617 570.67C557.496 570.559 557.401 570.428 557.336 570.282C557.27 570.137 557.237 569.981 557.237 569.824C557.237 569.667 557.27 569.511 557.336 569.366C557.401 569.221 557.496 569.089 557.617 568.978C557.737 568.867 557.88 568.779 558.037 568.719C558.195 568.659 558.363 568.629 558.533 568.629L804.651 568.321C804.994 568.321 805.322 568.446 805.565 568.671C805.807 568.895 805.943 569.199 805.943 569.516C805.943 569.833 805.807 570.137 805.565 570.361C805.322 570.585 804.994 570.711 804.651 570.711Z" fill="#CACACA"/>
<path d="M497.508 210.443H404.213C400.322 210.439 396.591 209.008 393.839 206.463C391.087 203.918 389.539 200.468 389.535 196.869V139.7C389.539 136.101 391.087 132.651 393.839 130.106C396.591 127.561 400.322 126.13 404.213 126.126H497.508C501.4 126.13 505.131 127.561 507.883 130.106C510.635 132.651 512.183 136.101 512.187 139.7V196.869C512.183 200.468 510.635 203.918 507.883 206.463C505.131 209.008 501.4 210.439 497.508 210.443ZM404.213 128.133C400.897 128.137 397.718 129.357 395.373 131.525C393.028 133.694 391.71 136.634 391.706 139.7V196.869C391.71 199.935 393.029 202.875 395.373 205.044C397.718 207.212 400.897 208.432 404.213 208.436H497.508C500.824 208.432 504.004 207.212 506.349 205.044C508.693 202.875 510.012 199.935 510.016 196.869V139.7C510.012 136.634 508.693 133.694 506.349 131.525C504.004 129.357 500.824 128.137 497.508 128.133H404.213Z" fill="#E6E6E6"/>
<path d="M431.856 144.194H406.901V146.201H431.856V144.194Z" fill="#E6E6E6"/>
<path d="M462.258 152.224H406.901V154.232H462.258V152.224Z" fill="#E6E6E6"/>
<path d="M462.258 159.25H406.901V161.258H462.258V159.25Z" fill="#E6E6E6"/>
<path d="M477.453 166.277H406.901V168.284H477.453V166.277Z" fill="#E6E6E6"/>
<path d="M443.806 173.303H406.901V175.311H443.806V173.303Z" fill="#E6E6E6"/>
<path d="M474.197 180.33H406.901V182.337H474.197V180.33Z" fill="#E6E6E6"/>
<path d="M418.841 187.356H406.901V189.364H418.841V187.356Z" fill="#E6E6E6"/>
<defs>
<linearGradient id="paint0_linear_59_328" x1="514.5" y1="0" x2="514.5" y2="872" gradientUnits="userSpaceOnUse">
<stop stop-color="#EDDCDC"/>
<stop offset="0.636373" stop-color="#D5CFDC" stop-opacity="0.380622"/>
<stop offset="1" stop-color="#C6C7DC" stop-opacity="0"/>
</linearGradient>
<linearGradient id="paint1_linear_59_328" x1="514.5" y1="0" x2="514.5" y2="872" gradientUnits="userSpaceOnUse">
<stop stop-color="#EDDCDC"/>
<stop offset="0.636373" stop-color="#D5CFDC" stop-opacity="0.380622"/>
<stop offset="1" stop-color="#C6C7DC" stop-opacity="0"/>
</linearGradient>
<clipPath id="clip0_59_328">
<rect width="871.159" height="509.135" fill="white" transform="translate(9.1062 61.8839)"/>
</clipPath>
</defs>
</svg>
